<?xml version="1.0" encoding="utf-8"?>
<!-- Generator: Adobe Illustrator 16.0.0, SVG Export Plug-In . SVG Version: 6.00 Build 0)  -->
<!DOCTYPE svg PUBLIC "-//W3C//DTD SVG 1.1//EN" "http://www.w3.org/Graphics/SVG/1.1/DTD/svg11.dtd">
<svg version="1.1" id="Layer_1" xmlns="http://www.w3.org/2000/svg" xmlns:xlink="http://www.w3.org/1999/xlink" x="0px" y="0px"
	 width="696.39px" height="232.496px" viewBox="0 0 696.39 232.496" enable-background="new 0 0 696.39 232.496"
	 xml:space="preserve">
<rect fill-rule="evenodd" clip-rule="evenodd" fill="none" width="696.39" height="232.496"/>
<g>
	<g>
		<path d="M263.799,39.366c1.143,2.09,2.459,4.671,3.953,7.743c1.492,3.072,3.047,6.397,4.667,9.975
			c1.62,3.579,3.223,7.236,4.811,10.973c1.587,3.738,3.079,7.252,4.477,10.545c1.397-3.292,2.889-6.807,4.477-10.545
			c1.587-3.736,3.19-7.394,4.81-10.973c1.619-3.577,3.175-6.902,4.668-9.975c1.492-3.071,2.81-5.653,3.953-7.743h13.49
			c0.633,4.37,1.219,9.263,1.758,14.677c0.537,5.415,1.013,11.053,1.425,16.91c0.411,5.859,0.791,11.732,1.14,17.623
			c0.348,5.89,0.649,11.433,0.903,16.625h-14.44c-0.189-6.396-0.443-13.362-0.76-20.9c-0.317-7.536-0.793-15.136-1.425-22.8
			c-1.145,2.66-2.415,5.605-3.812,8.835c-1.398,3.23-2.78,6.46-4.146,9.69s-2.684,6.317-3.955,9.262
			c-1.271,2.945-2.351,5.462-3.24,7.553h-10.355c-0.891-2.09-1.97-4.607-3.24-7.553c-1.271-2.945-2.59-6.032-3.956-9.262
			s-2.748-6.46-4.145-9.69c-1.398-3.23-2.669-6.175-3.812-8.835c-0.634,7.664-1.109,15.264-1.425,22.8
			c-0.317,7.538-0.57,14.504-0.76,20.9h-14.44c0.252-5.192,0.554-10.735,0.902-16.625c0.347-5.89,0.728-11.764,1.14-17.623
			c0.411-5.857,0.886-11.495,1.425-16.91c0.538-5.415,1.124-10.307,1.757-14.677H263.799z"/>
		<path d="M381.666,105.201c-0.733-2.288-1.52-4.637-2.363-7.048c-0.843-2.411-1.684-4.813-2.519-7.202h-25.713
			c-0.831,2.402-1.665,4.808-2.499,7.222c-0.836,2.414-1.614,4.757-2.334,7.028h-15.39c2.478-7.092,4.827-13.647,7.051-19.665
			c2.224-6.016,4.398-11.685,6.526-17.005c2.129-5.32,4.225-10.37,6.289-15.152c2.065-4.781,4.21-9.453,6.434-14.013h14.048
			c2.163,4.56,4.295,9.231,6.396,14.013c2.099,4.782,4.215,9.832,6.347,15.152c2.132,5.32,4.311,10.989,6.537,17.005
			c2.227,6.018,4.581,12.573,7.063,19.665H381.666z M363.861,54.281c-0.331,0.956-0.815,2.258-1.452,3.902
			c-0.637,1.646-1.361,3.548-2.175,5.705s-1.723,4.532-2.729,7.125c-1.005,2.593-2.025,5.313-3.063,8.158h18.826
			c-1.008-2.854-1.982-5.583-2.927-8.184s-1.842-4.98-2.691-7.138c-0.851-2.157-1.596-4.057-2.236-5.702
			C364.772,56.505,364.254,55.216,363.861,54.281z"/>
		<path d="M468.531,72.236c0,5.7-0.888,10.672-2.659,14.915c-1.774,4.244-4.292,7.759-7.553,10.545
			c-3.263,2.788-7.236,4.877-11.923,6.27c-4.688,1.392-9.943,2.09-15.77,2.09c-2.66,0-5.765-0.111-9.311-0.333
			c-3.548-0.223-7.03-0.68-10.45-1.377V40.221c3.42-0.632,6.982-1.06,10.688-1.283c3.705-0.221,6.888-0.333,9.548-0.333
			c5.636,0,10.75,0.634,15.343,1.9c4.591,1.268,8.533,3.263,11.827,5.985c3.292,2.724,5.826,6.208,7.601,10.45
			C467.644,61.185,468.531,66.284,468.531,72.236z M425.687,93.136c0.696,0.064,1.504,0.111,2.423,0.143
			c0.917,0.033,2.01,0.047,3.277,0.047c7.41,0,12.903-1.867,16.482-5.605c3.577-3.736,5.367-8.897,5.367-15.485
			c0-6.902-1.71-12.127-5.13-15.675c-3.42-3.546-8.835-5.32-16.245-5.32c-1.014,0-2.059,0.016-3.135,0.047
			c-1.077,0.033-2.09,0.111-3.04,0.238V93.136z"/>
		<path d="M504.593,38.606c9.88,0,17.447,1.758,22.705,5.273c5.256,3.515,7.885,8.977,7.885,16.387
			c0,4.624-1.061,8.376-3.182,11.257c-2.123,2.883-5.178,5.146-9.168,6.793c1.33,1.647,2.723,3.531,4.18,5.652
			c1.456,2.123,2.897,4.339,4.323,6.65c1.425,2.313,2.802,4.719,4.132,7.22c1.33,2.502,2.565,4.956,3.705,7.362h-16.567
			c-1.208-2.152-2.433-4.337-3.672-6.555c-1.239-2.216-2.51-4.37-3.813-6.46c-1.303-2.09-2.592-4.068-3.862-5.938
			c-1.272-1.867-2.544-3.563-3.814-5.083h-7.315v24.035h-14.82V40.316c3.23-0.633,6.57-1.076,10.022-1.33
			C498.781,38.734,501.869,38.606,504.593,38.606z M505.448,51.241c-1.078,0-2.043,0.033-2.897,0.095
			c-0.855,0.064-1.663,0.128-2.423,0.19v17.86h4.18c5.572,0,9.563-0.696,11.971-2.09c2.406-1.393,3.609-3.768,3.609-7.125
			c0-3.23-1.22-5.525-3.657-6.888C513.792,51.922,510.198,51.241,505.448,51.241z"/>
		<path d="M575.103,66.369c2.663-4.484,5.198-8.969,7.609-13.453c2.409-4.484,4.628-9.001,6.659-13.549h16.34
			c-3.61,7.094-7.348,13.965-11.21,20.615c-3.864,6.65-7.949,13.333-12.255,20.045v25.175h-14.82V80.216
			c-4.308-6.712-8.407-13.426-12.303-20.14c-3.895-6.712-7.647-13.616-11.258-20.71h17.195c2.023,4.548,4.205,9.065,6.546,13.549
			C569.946,57.4,572.445,61.884,575.103,66.369z"/>
		<path d="M663.043,105.201c-4.244-7.536-8.835-14.978-13.775-22.325c-4.94-7.346-10.197-14.281-15.77-20.805v43.13h-14.631V39.366
			h12.065c2.09,2.09,4.401,4.655,6.935,7.695s5.114,6.287,7.743,9.738c2.627,3.453,5.239,7.03,7.837,10.735
			c2.597,3.705,5.035,7.268,7.315,10.688V39.366h14.725v65.835H663.043z"/>
	</g>
</g>
<g>
	<g>
		<path d="M254.973,176.925c-2.867,0-5.092-0.601-6.674-1.801c-1.583-1.199-2.684-2.815-3.3-4.85
			c-0.617-2.032-0.925-4.299-0.925-6.799v-14.299c0-2.732,0.308-5.116,0.925-7.149c0.616-2.032,1.716-3.607,3.3-4.725
			c1.583-1.116,3.808-1.675,6.674-1.675c2.533,0,4.541,0.467,6.024,1.399c1.483,0.934,2.55,2.268,3.2,4
			c0.65,1.733,0.975,3.816,0.975,6.249v3.2h-5.35v-2.85c0-1.5-0.075-2.825-0.225-3.975c-0.15-1.15-0.559-2.041-1.225-2.675
			c-0.667-0.633-1.784-0.95-3.35-0.95c-1.6,0-2.767,0.342-3.5,1.025c-0.733,0.684-1.208,1.649-1.425,2.899
			c-0.217,1.25-0.325,2.708-0.325,4.375v16.048c0,2.034,0.167,3.643,0.5,4.825c0.333,1.184,0.883,2.024,1.65,2.524
			c0.767,0.5,1.8,0.75,3.1,0.75c1.533,0,2.633-0.341,3.3-1.024c0.667-0.684,1.083-1.625,1.25-2.825c0.167-1.2,0.25-2.6,0.25-4.199
			v-3h5.35v3c0,2.467-0.3,4.642-0.9,6.524s-1.633,3.35-3.1,4.399C259.705,176.399,257.639,176.925,254.973,176.925z"/>
		<path d="M285.115,176.925c-2.733,0-4.917-0.533-6.55-1.601c-1.633-1.066-2.8-2.591-3.5-4.574c-0.7-1.982-1.05-4.308-1.05-6.975
			v-15.349c0-2.666,0.358-4.957,1.075-6.874c0.716-1.917,1.883-3.383,3.5-4.4c1.616-1.016,3.791-1.524,6.524-1.524
			c2.732,0,4.899,0.517,6.5,1.55c1.6,1.033,2.757,2.5,3.475,4.399c0.716,1.9,1.075,4.184,1.075,6.85v15.398
			c0,2.634-0.358,4.934-1.075,6.899c-0.717,1.967-1.875,3.492-3.475,4.575C290.015,176.383,287.848,176.925,285.115,176.925z
			 M285.115,172.475c1.5,0,2.632-0.308,3.399-0.925c0.767-0.616,1.283-1.482,1.55-2.6c0.267-1.116,0.4-2.425,0.4-3.925v-17.749
			c0-1.499-0.134-2.791-0.4-3.874c-0.267-1.083-0.783-1.916-1.55-2.5c-0.767-0.583-1.9-0.875-3.399-0.875
			c-1.5,0-2.642,0.292-3.425,0.875c-0.784,0.584-1.309,1.417-1.575,2.5c-0.268,1.083-0.4,2.375-0.4,3.874v17.749
			c0,1.5,0.133,2.809,0.4,3.925c0.266,1.117,0.791,1.983,1.575,2.6C282.473,172.167,283.615,172.475,285.115,172.475z"/>
		<path d="M305.278,176.475l0.75-40.497h5.549l7.149,32.848l7.2-32.848h5.5l0.75,40.497h-4.549l-0.45-29.397l-6.849,29.397h-3.2
			l-6.8-29.397l-0.45,29.397H305.278z"/>
		<path d="M341.829,176.475v-40.497h10.049c2.433,0,4.375,0.442,5.825,1.325c1.45,0.884,2.507,2.158,3.175,3.824
			c0.666,1.667,1,3.684,1,6.05c0,2.134-0.375,3.983-1.125,5.55s-1.858,2.774-3.325,3.624c-1.467,0.851-3.3,1.275-5.5,1.275h-4.45
			v18.849H341.829z M347.479,153.576h2.6c1.633,0,2.917-0.183,3.85-0.55c0.933-0.366,1.6-1.008,2-1.925
			c0.4-0.916,0.6-2.208,0.6-3.875c0-1.933-0.142-3.416-0.425-4.449s-0.875-1.75-1.775-2.15c-0.9-0.399-2.3-0.6-4.199-0.6h-2.65
			V153.576z"/>
		<path d="M370.392,176.475v-40.497h8.148c2.701,0,4.934,0.358,6.7,1.075s3.075,1.867,3.925,3.449
			c0.85,1.584,1.275,3.659,1.275,6.225c0,1.567-0.168,2.992-0.5,4.275c-0.334,1.283-0.867,2.366-1.601,3.249
			c-0.733,0.884-1.7,1.525-2.899,1.925l5.749,20.299h-5.449l-5.3-18.999h-4.399v18.999H370.392z M376.041,153.427h2.149
			c1.6,0,2.9-0.2,3.9-0.601c1-0.399,1.732-1.083,2.199-2.05c0.467-0.966,0.7-2.316,0.7-4.05c0-2.366-0.434-4.074-1.3-5.124
			c-0.867-1.05-2.584-1.575-5.15-1.575h-2.499V153.427z"/>
		<path d="M399.233,176.475l8.6-40.497h5.449l8.65,40.497h-5.35l-1.85-10.199h-8.25l-1.949,10.199H399.233z M407.233,162.226h6.75
			l-3.4-18.248L407.233,162.226z"/>
		<path d="M455.478,176.925c-1.833,0-3.408-0.393-4.725-1.176c-1.316-0.782-2.316-1.857-2.999-3.225
			c-0.684-1.366-1.024-2.933-1.024-4.699c0-2.566,0.574-4.791,1.725-6.675c1.149-1.883,2.541-3.558,4.174-5.024
			c-0.6-1.2-1.242-2.407-1.924-3.625c-0.684-1.216-1.268-2.482-1.75-3.799c-0.484-1.316-0.726-2.691-0.726-4.125
			c0-1.8,0.351-3.366,1.05-4.699c0.7-1.333,1.7-2.375,3-3.125s2.832-1.125,4.6-1.125c1.633,0,3.092,0.3,4.375,0.899
			c1.282,0.601,2.307,1.459,3.074,2.575c0.767,1.117,1.15,2.458,1.15,4.024c0,1.768-0.408,3.459-1.225,5.075
			c-0.818,1.616-1.809,3.116-2.975,4.499c-1.168,1.384-2.301,2.608-3.4,3.675l6.1,9.6c0.366-0.7,0.675-1.491,0.925-2.375
			c0.25-0.883,0.466-1.825,0.649-2.825s0.326-1.966,0.426-2.899h5.299c0,1.3-0.191,2.667-0.574,4.1
			c-0.384,1.434-0.875,2.792-1.475,4.074c-0.601,1.284-1.218,2.375-1.851,3.275c0.433,0.533,1,1.008,1.7,1.425
			c0.699,0.417,1.449,0.625,2.25,0.625v5.499c-0.134,0-0.259,0-0.375,0c-0.117,0-0.225,0-0.325,0
			c-0.968-0.033-1.833-0.258-2.601-0.675c-0.767-0.416-1.458-0.925-2.074-1.524c-0.617-0.601-1.209-1.167-1.775-1.7
			c-0.899,1.134-2.074,2.075-3.523,2.825C459.202,176.55,457.478,176.925,455.478,176.925z M455.478,172.475
			c1.268,0,2.333-0.308,3.2-0.925c0.866-0.616,1.616-1.308,2.25-2.075l-6.2-9.549c-0.799,1.033-1.441,2.242-1.924,3.625
			c-0.484,1.383-0.725,2.808-0.725,4.274c0,0.767,0.1,1.509,0.299,2.225c0.2,0.717,0.551,1.3,1.051,1.75
			S454.61,172.475,455.478,172.475z M456.028,153.477c0.699-0.833,1.357-1.816,1.975-2.95c0.616-1.133,1.125-2.341,1.525-3.624
			c0.399-1.283,0.6-2.542,0.6-3.775c0-0.966-0.301-1.725-0.9-2.274s-1.383-0.825-2.35-0.825c-1.199,0-2.05,0.467-2.55,1.4
			s-0.75,1.983-0.75,3.149c0,1.533,0.258,3.059,0.774,4.574C454.87,150.669,455.429,152.11,456.028,153.477z"/>
		<path d="M496.022,176.475l8.6-40.497h5.449l8.65,40.497h-5.35l-1.85-10.199h-8.25l-1.949,10.199H496.022z M504.022,162.226h6.75
			l-3.4-18.248L504.022,162.226z"/>
		<path d="M527.306,176.475v-40.497h5.648v36.447h10.35v4.05H527.306z"/>
		<path d="M570.081,184.674c-0.9-0.468-1.792-1.134-2.675-2c-0.884-0.867-1.717-1.817-2.499-2.85
			c-0.784-1.033-1.492-2.018-2.125-2.95c-0.134,0.033-0.284,0.051-0.45,0.051c-0.167,0-0.334,0-0.5,0
			c-2.733,0-4.917-0.533-6.55-1.601c-1.633-1.066-2.8-2.591-3.5-4.574c-0.699-1.982-1.049-4.308-1.049-6.975v-15.349
			c0-2.666,0.357-4.957,1.074-6.874s1.883-3.383,3.5-4.4c1.616-1.016,3.791-1.524,6.524-1.524c2.732,0,4.907,0.517,6.524,1.55
			c1.616,1.033,2.782,2.5,3.5,4.399c0.716,1.9,1.074,4.184,1.074,6.85v15.398c0,1.967-0.199,3.759-0.6,5.375
			c-0.4,1.617-1.033,3-1.9,4.149c-0.867,1.15-2.017,2.024-3.449,2.625c0.4,0.5,0.832,1.024,1.3,1.574
			c0.466,0.551,0.933,1.059,1.399,1.525c0.467,0.466,0.9,0.85,1.301,1.149L570.081,184.674z M561.832,172.475
			c1.532,0,2.683-0.308,3.45-0.925c0.766-0.616,1.282-1.482,1.549-2.6c0.267-1.116,0.4-2.425,0.4-3.925v-17.749
			c0-1.499-0.134-2.791-0.4-3.874s-0.783-1.916-1.549-2.5c-0.768-0.583-1.918-0.875-3.45-0.875c-1.5,0-2.642,0.292-3.425,0.875
			c-0.783,0.584-1.309,1.417-1.574,2.5c-0.268,1.083-0.4,2.375-0.4,3.874v17.749c0,1.5,0.133,2.809,0.4,3.925
			c0.266,1.117,0.791,1.983,1.574,2.6C559.19,172.167,560.332,172.475,561.832,172.475z"/>
		<path d="M592.873,176.925c-2.933,0-5.183-0.583-6.749-1.75c-1.567-1.167-2.634-2.808-3.199-4.925
			c-0.568-2.116-0.851-4.591-0.851-7.425v-26.848h5.399v27.098c0,1.733,0.117,3.317,0.35,4.75c0.233,1.434,0.742,2.566,1.525,3.399
			c0.783,0.834,1.957,1.25,3.524,1.25c1.601,0,2.782-0.416,3.55-1.25c0.767-0.833,1.267-1.966,1.5-3.399
			c0.232-1.433,0.35-3.017,0.35-4.75v-27.098h5.35v26.848c0,2.834-0.283,5.309-0.85,7.425c-0.567,2.117-1.625,3.758-3.175,4.925
			S595.806,176.925,592.873,176.925z"/>
		<path d="M613.376,176.475v-40.497h5.55v40.497H613.376z"/>
		<path d="M628.829,176.475v-40.497h5.649v36.447h10.35v4.05H628.829z"/>
		<path d="M652.268,176.475l8.599-40.497h5.45l8.649,40.497h-5.35l-1.851-10.199h-8.249l-1.95,10.199H652.268z M660.267,162.226
			h6.749l-3.399-18.248L660.267,162.226z"/>
	</g>
</g>
<g>
	<g>
		<path fill-rule="evenodd" clip-rule="evenodd" fill="#FC0101" d="M59.023,160.747c0.638-0.24,1.182-0.457,1.734-0.643
			c1.778-0.594,2.697-1.829,2.871-3.688c0.254-2.708-0.315-5.327-0.631-7.997c-0.236,0.053-0.347,0.046-0.371,0.092
			c-0.239,0.422-0.142,1.119-0.772,1.219c-0.701,0.105-1.048-0.521-1.38-0.979c-1.859-2.553-3.074-5.449-4.313-8.318
			c-2.277-5.279-4.23-10.679-5.935-16.168c-0.489-1.574-0.326-3.134-0.093-4.711c0.22-1.488,0.473-2.977,0.459-4.484
			c-0.002-0.297,0.135-0.842-0.411-0.818c-0.448,0.02-0.263,0.486-0.316,0.773c-0.258,1.355-0.532,2.64-1.479,3.797
			c-1.408,1.722-2.002,3.699-0.704,5.831c0.317,0.52,0.234,1.073,0.008,1.605c-0.376,0.888-0.92,1.661-1.68,2.396
			c-0.566-1.293-1.695-1.641-2.905-1.641c-0.744,0-0.958-0.239-0.998-0.918c-0.101-1.637,0.238-3.133,1.135-4.527
			c1.693-2.628,1.876-5.49,1.153-8.457c-0.118-0.481-0.252-1.217-0.895-1.025c-0.808,0.242-0.112,0.838-0.06,1.281
			c0.017,0.151,0.039,0.303,0.063,0.482c-1.196-0.327-2.024-1.975-1.568-2.976c0.156-0.344,0.403-0.442,0.756-0.444
			c0.345-0.003,0.656-0.117,0.57-0.558c-0.064-0.327-0.332-0.441-0.635-0.407c-1.793,0.201-3.457-0.318-5.088-0.949
			c-0.574-0.223-0.988,0.021-1.456,0.219c-1.237,0.521-2.411,1.204-3.787,1.363c-0.761,0.088-1.401-0.121-2.023-0.521
			c-0.412-0.266-0.61-0.562-0.438-1.076c0.183-0.548,0.115-1.117-0.146-1.623c-0.418-0.805-0.069-1.252,0.632-1.604
			c1.43-0.72,2.793-0.229,4.132,0.259c0.495,0.18,0.92,0.318,1.47,0.222c1.791-0.313,3.386,0.058,4.611,1.522
			c0.198,0.236,0.466,0.546,0.801,0.354c0.387-0.221,0.255-0.563,0.096-0.932c-0.69-1.615-1.503-3.151-2.749-4.415
			c-1.066-1.086-2.288-1.793-3.896-1.719c-1,0.046-1.856-0.395-2.462-1.217c-0.508-0.691-0.775-1.315,0.172-1.978
			c0.748-0.523,1.312-1.308,1.332-2.294c0.014-0.636,0.287-0.614,0.739-0.454c1.355,0.476,2.286,1.405,2.862,2.693
			c0.147,0.328,0.21,0.65,0.602,0.814c2.987,1.262,4.059,3.953,4.987,6.742c0.187,0.563,0.329,1.143,0.488,1.715
			c0.098,0.35,0.299,0.584,0.683,0.482c0.356-0.097,0.333-0.419,0.268-0.691c-0.147-0.615-0.32-1.227-0.494-1.836
			c-0.451-1.596-1.132-3.113-1.452-4.764c-0.234-1.214-1.096-2.168-1.93-3.092c-0.816-0.902-1.411-1.928-1.196-3.222
			c0.098-0.591,0.355-0.983,1.064-1.055c0.662-0.063,1.316-0.286,1.948-0.513c1.379-0.497,2.344,0.093,2.491,1.57
			c0.012,0.118,0.03,0.242,0.008,0.354c-0.921,4.581,1.193,8.345,3.842,11.563c2.863,3.48,4.744,7.266,6.294,11.432
			c2.291,6.15,5.685,11.688,10.828,15.966c0.253,0.21,0.277,0.431,0.331,0.709c0.526,2.802,13.939,0.253,16.54,1.825
			c0.286,0.172,0.291,0.438,0.378,0.696c0.9,2.638-2.436,5.416-3.148,9.244c1.896,0.666-2.173,3.494-3.567,4.942
			c-1.853,1.92-4.221,3.059-6.565,4.213c-0.607,0.3-0.969,0.656-1.198,1.327c-1.098,3.203-4.108,5.485-7.269,5.632
			C60.544,161.407,59.808,161.22,59.023,160.747z"/>
		<path fill-rule="evenodd" clip-rule="evenodd" fill="#FC0101" d="M28.516,96.6c2.127-0.192,2.127-0.192,3.025,0.327
			c-1.27,0.234-2.651,0.078-3.719,1.01c-0.418-1.512,0.387-2.744,2.053-3.164c0.613-0.155,1.26-0.161,1.884-0.281
			c0.644-0.123,0.833,0.167,0.873,0.757c0.048,0.72-0.376,0.644-0.842,0.594c-0.589-0.062-1.181-0.143-1.771-0.139
			C29.417,95.708,28.837,95.837,28.516,96.6z"/>
		<path fill-rule="evenodd" clip-rule="evenodd" fill="#FC0101" d="M38.608,89.764c0.345,0.608,0.855,0.558,1.202,0.792
			c0.227,0.153,0.552,0.304,0.403,0.627c-0.163,0.357-0.572,0.35-0.803,0.143c-0.42-0.376-0.858-0.693-1.391-0.878
			c-0.477-0.165-0.956-0.326-1.493-0.511c1.864-1.002,4.105-0.885,5.243,0.24c0.176,0.175,0.555,0.35,0.315,0.658
			c-0.28,0.361-0.52,0.082-0.768-0.15C40.598,90.013,39.739,89.711,38.608,89.764z"/>
		<path fill-rule="evenodd" clip-rule="evenodd" fill="#FC0101" d="M40.479,130.231c1.002-0.145,1.593-0.65,2-1.357
			c0.246-0.428,0.547-0.638,0.925-0.299c0.391,0.35-0.069,0.65-0.257,0.861c-0.317,0.353-0.741,0.61-1.318,1.063
			c1.127,0.043,1.701-0.43,2.186-1.037c0.295-0.369,0.589-0.705,1.031-0.258c0.491,0.496-0.154,0.666-0.363,0.859
			C43.429,131.218,42.059,131.286,40.479,130.231z"/>
		<path fill-rule="evenodd" clip-rule="evenodd" fill="#FC0101" d="M27.736,108.22c0.411-0.26,0.848-0.452,1.323-0.235
			c0.079,0.036,0.035,0.354,0.037,0.542c0,0.315-0.128,0.537-0.472,0.556c-0.669,0.032-1.187,0.35-1.577,0.951
			c-0.552-1.608-0.086-2.931,1.136-3.439c0.208-0.087,0.455-0.256,0.616,0.029c0.173,0.304,0.054,0.489-0.299,0.591
			c-0.42,0.122-0.793,0.348-1.018,0.753c-0.166,0.134-0.435,0.282-0.157,0.499C27.509,108.609,27.633,108.367,27.736,108.22z"/>
		<path fill-rule="evenodd" clip-rule="evenodd" fill="#0A0707" d="M27.736,108.22c-0.104,0.147-0.228,0.39-0.411,0.246
			c-0.277-0.217-0.009-0.365,0.157-0.499C27.565,108.052,27.651,108.136,27.736,108.22z"/>
		<path fill="#0A0707" d="M55.557,159.231c-0.239-0.107-0.474-0.348-0.863,0.043c0.764,0.557,1.516,1.105,2.269,1.651
			c4.04,2.933,10.667,0.668,12.349-3.159c0.704-1.599,1.734-2.4,3.196-3.079c2.308-1.071,4.24-2.747,6.256-4.27
			c0.194-0.147,0.373-0.247,0.549-0.308c-0.339-0.573,2.616-2.053,1.319-2.93c-0.37-0.25,1.175-3.844,0.926-4.313
			c-5.009-2.167,3.067-4.503,2.241-7.482c-0.05-0.179-0.102-0.366-0.156-0.561c-3.778-2.626-16.763-0.262-16.8-2.362
			c-1.637-1.52-2.049-2.465-2.569-3.657c-0.154-0.354-0.313-0.721-0.519-1.136c-0.028-0.059-0.05-0.104-0.075-0.155
			c-0.022,0.013-0.039,0.028-0.064,0.038c-0.417,0.168-0.687-0.281-0.914-0.604c-2.718-3.848-5.412-7.718-7.066-12.173
			c-1.354-3.651-3.016-7-5.712-9.976c-2.676-2.953-4.666-6.496-3.829-10.903c0.226-1.187-0.12-2.444-1.5-2.919
			c-0.637-0.217-1.074-0.582-1.518-1.051c-2.03-2.141-5.344-2.247-7.368-0.267c-0.278,0.272-0.677,0.585-0.54,0.985
			c0.156,0.459,0.623,0.129,0.949,0.145c1.238,0.059,2.233,0.74,2.114,1.617c-0.131,0.96-0.115,1.917-0.06,3.128
			c-0.797-1.036-1.564-1.788-2.6-1.938c-2.288-0.332-4.598-0.377-6.778,0.572c-2.155,0.938-2.786,3.668-1.33,5.492
			c0.127,0.16,0.269,0.31,0.487,0.266c0.263-0.055,0.237-0.277,0.212-0.475c-0.106-0.789,0.155-1.367,1-1.447
			c0.793-0.074,1.555-0.035,1.965,0.896c0.739,1.687,1.965,2.641,3.909,2.785c1.973,0.146,3.093,1.178,3.483,2.829
			c-0.759-0.012-1.533-0.249-2.243,0.015c-0.739,0.273-1.319,0.066-2.012-0.192c-1.448-0.54-2.968-0.958-4.436-0.002
			c-0.946,0.619-1.906,1.224-2.786,1.929c-1.214,0.973-1.312,2.305-0.892,3.688c0.32,1.049,0.888,1.924,2.225,2.398
			c-0.178-0.461-0.278-0.666-0.338-0.881c-0.137-0.495-0.112-0.969,0.366-1.271c0.418-0.264,0.837-0.171,1.214,0.123
			c2.022,1.578,4.105,1.199,5.927-0.171c1.453-1.09,2.666-0.326,3.994-0.063c0.223,0.044,0.304,0.218,0.361,0.421
			c0.577,2.04,1.993,3.572,3.188,5.235c0.205,0.285,0.557,0.511,0.513,0.905c-0.149,1.379-0.22,2.875-1.004,3.99
			c-1.492,2.121-2.086,4.293-1.438,6.83c0.188,0.732-0.302,1.321-1.021,1.514c-0.725,0.194-0.934-0.389-1.115-0.946
			c-0.063-0.194-0.034-0.5-0.379-0.489c-0.251,1.604,0.901,3.449,2.618,4.2c1.489,0.649,3.439,0.177,4.409-1.071
			c0.194-0.249,0.333-0.645,0.581-0.73c1.713-0.588,2.253-2.095,2.898-3.658c0.152,0.327,0.287,0.553,0.366,0.799
			c3.059,9.613,7.214,18.732,12.419,27.374c0.153,0.253,0.341,0.46,0.31,0.839C61.984,158.477,58.476,160.556,55.557,159.231z
			 M29.096,108.526c0,0.315-0.128,0.537-0.472,0.556c-0.669,0.032-1.187,0.35-1.577,0.951c-0.552-1.608-0.086-2.931,1.136-3.439
			c0.208-0.087,0.455-0.256,0.616,0.029c0.173,0.304,0.054,0.489-0.299,0.591c-0.42,0.122-0.793,0.348-1.018,0.753
			c0.083,0.085,0.168,0.169,0.254,0.253c0.411-0.26,0.848-0.452,1.323-0.235C29.138,108.021,29.095,108.339,29.096,108.526z
			 M36.527,89.937c1.864-1.002,4.105-0.885,5.243,0.24c0.176,0.175,0.555,0.35,0.315,0.658c-0.28,0.361-0.52,0.082-0.768-0.15
			c-0.72-0.672-1.578-0.974-2.709-0.921c0.345,0.608,0.855,0.558,1.202,0.792c0.227,0.153,0.552,0.304,0.403,0.627
			c-0.163,0.357-0.572,0.35-0.803,0.143c-0.42-0.376-0.858-0.693-1.391-0.878C37.542,90.282,37.064,90.121,36.527,89.937z
			 M27.822,97.937c-0.418-1.512,0.387-2.744,2.053-3.164c0.613-0.155,1.26-0.161,1.884-0.281c0.644-0.123,0.833,0.167,0.873,0.757
			c0.048,0.72-0.376,0.644-0.842,0.594c-0.589-0.062-1.181-0.143-1.771-0.139c-0.601,0.005-1.181,0.134-1.502,0.896
			c2.127-0.192,2.127-0.192,3.025,0.327C30.271,97.161,28.89,97.005,27.822,97.937z M44.683,130.063
			c-1.254,1.154-2.625,1.223-4.205,0.168c1.002-0.145,1.593-0.65,2-1.357c0.246-0.428,0.547-0.638,0.925-0.299
			c0.391,0.35-0.069,0.65-0.257,0.861c-0.317,0.353-0.741,0.61-1.318,1.063c1.127,0.043,1.701-0.43,2.186-1.037
			c0.295-0.369,0.589-0.705,1.031-0.258C45.538,129.7,44.893,129.87,44.683,130.063z M62.998,148.419
			c-0.236,0.053-0.347,0.046-0.371,0.092c-0.239,0.422-0.142,1.119-0.772,1.219c-0.701,0.105-1.048-0.521-1.38-0.979
			c-1.859-2.553-3.074-5.449-4.313-8.318c-2.277-5.279-4.23-10.679-5.935-16.168c-0.489-1.574-0.326-3.134-0.093-4.711
			c0.22-1.488,0.473-2.977,0.459-4.484c-0.002-0.297,0.135-0.842-0.411-0.818c-0.448,0.02-0.263,0.486-0.316,0.773
			c-0.258,1.355-0.532,2.64-1.479,3.797c-1.408,1.722-2.002,3.699-0.704,5.831c0.317,0.52,0.234,1.073,0.008,1.605
			c-0.376,0.888-0.92,1.661-1.68,2.396c-0.566-1.293-1.695-1.641-2.905-1.641c-0.744,0-0.958-0.239-0.998-0.918
			c-0.101-1.637,0.238-3.133,1.135-4.527c1.693-2.628,1.876-5.49,1.153-8.457c-0.118-0.481-0.252-1.217-0.895-1.025
			c-0.808,0.242-0.112,0.838-0.06,1.281c0.017,0.151,0.039,0.303,0.063,0.482c-1.196-0.327-2.024-1.975-1.568-2.976
			c0.156-0.344,0.403-0.442,0.756-0.444c0.345-0.003,0.656-0.117,0.57-0.558c-0.064-0.327-0.332-0.441-0.635-0.407
			c-1.793,0.201-3.457-0.318-5.088-0.949c-0.574-0.223-0.988,0.021-1.456,0.219c-1.237,0.521-2.411,1.204-3.787,1.363
			c-0.761,0.088-1.401-0.121-2.023-0.521c-0.412-0.266-0.61-0.562-0.438-1.076c0.183-0.548,0.115-1.117-0.146-1.623
			c-0.418-0.805-0.069-1.252,0.632-1.604c1.43-0.72,2.793-0.229,4.132,0.259c0.495,0.18,0.92,0.318,1.47,0.222
			c1.791-0.313,3.386,0.058,4.611,1.522c0.198,0.236,0.466,0.546,0.801,0.354c0.387-0.221,0.255-0.563,0.096-0.932
			c-0.69-1.615-1.503-3.151-2.749-4.415c-1.066-1.086-2.288-1.793-3.896-1.719c-1,0.046-1.856-0.395-2.462-1.217
			c-0.508-0.691-0.775-1.315,0.172-1.978c0.748-0.523,1.312-1.308,1.332-2.294c0.014-0.636,0.287-0.614,0.739-0.454
			c1.355,0.476,2.286,1.405,2.862,2.693c0.147,0.328,0.21,0.65,0.602,0.814c2.987,1.262,4.059,3.953,4.987,6.742
			c0.187,0.563,0.329,1.143,0.488,1.715c0.098,0.35,0.299,0.584,0.683,0.482c0.356-0.097,0.333-0.419,0.268-0.691
			c-0.147-0.615-0.32-1.227-0.494-1.836c-0.451-1.596-1.132-3.113-1.452-4.764c-0.234-1.214-1.096-2.168-1.93-3.092
			c-0.816-0.902-1.411-1.928-1.196-3.222c0.098-0.591,0.355-0.983,1.064-1.055c0.662-0.063,1.316-0.286,1.948-0.513
			c1.379-0.497,2.344,0.093,2.491,1.57c0.012,0.118,0.03,0.242,0.008,0.354c-0.921,4.581,1.193,8.345,3.842,11.563
			c2.863,3.48,4.744,7.266,6.294,11.432c2.291,6.15,5.685,11.688,10.828,15.966c0.253,0.21,0.277,0.431,0.331,0.709
			c0.526,2.802,13.939,0.253,16.54,1.825c0.286,0.172,0.291,0.438,0.378,0.696c0.9,2.638-6.178,6.071-3.309,7.079
			c1.896,0.666-2.012,5.659-3.406,7.107c-1.853,1.92-4.221,3.059-6.565,4.213c-0.607,0.3-0.969,0.656-1.198,1.327
			c-1.098,3.203-4.108,5.485-7.269,5.632c-0.82,0.037-1.557-0.15-2.341-0.623c0.638-0.24,1.182-0.457,1.734-0.643
			c1.778-0.594,2.697-1.829,2.871-3.688C63.883,153.708,63.313,151.089,62.998,148.419z"/>
	</g>
	<g>
		<path fill-rule="evenodd" clip-rule="evenodd" fill="#FC0101" d="M86.653,69.06c-4.002-1.731-7.735-1.77-11.52-1.064
			C78.726,69.61,82.343,70.933,86.653,69.06z"/>
		<path fill-rule="evenodd" clip-rule="evenodd" fill="#FC0101" d="M200.563,118.831c0.27-0.23,0.551-0.461,0.616-0.949
			c0.012-0.077,0.025-0.129,0.025-0.218c-0.116,0.141-0.218,0.257-0.321,0.372c-0.192,0.218-0.36,0.424-0.513,0.603
			c-0.513,0.59-1.039,1.154-1.527,1.744c-3.63,4.388-7.004,8.929-9.454,14.11c-0.193,0.398-0.308,0.732-0.346,1.053
			c-0.051,0.397,0.026,0.744,0.307,1.077c0.155,0.206,0.385,0.41,0.693,0.616c0.628,0.436,0.961,0.5,1.18,0.282
			c0.013-0.013,0.026-0.013,0.026-0.026c0.141-0.153,0.231-0.423,0.346-0.795c0.847-2.797,1.873-5.541,3.118-8.171
			c0.179-0.372,0.358-0.757,0.551-1.116c0.437-0.859,0.886-1.707,1.386-2.527c0.898-1.475,1.86-2.925,2.809-4.374
			C199.832,119.947,200.204,119.396,200.563,118.831z"/>
		<path fill-rule="evenodd" clip-rule="evenodd" fill="#FC0101" d="M211.839,107.363c-3.413,1.54-6.607,3.489-9.724,5.555
			c-5.4,3.604-9.979,8.171-14.674,12.61c-1.039,0.987-2.13,1.949-3.387,3.09c0.5-0.063,0.975-0.127,1.45-0.23h0.039
			c0.115-0.025,0.218-0.051,0.32-0.076c0.77-0.167,1.501-0.373,2.207-0.643c2.232-0.82,4.156-2.115,5.862-3.887
			c3.643-3.783,7.286-7.594,11.289-11.006c0.358-0.308,0.705-0.629,1.064-0.924c0.115-0.089,0.218-0.23,0.333-0.333
			c0.154-0.142,0.334-0.23,0.604-0.128c0,0.295-0.103,0.513-0.231,0.705c-0.141,0.191-0.308,0.359-0.449,0.539
			c-3.309,4.387-6.786,8.646-8.928,13.814c-1.09,2.631-0.603,6.055,1.745,8.813c1-5.49,2.681-10.673,5.066-15.65
			c0.167-0.346,0.321-0.692,0.487-1.026c0.565-1.115,1.167-2.18,1.797-3.244c0.974-1.643,2.039-3.221,3.155-4.772
			c0.731-1.014,1.461-2.001,2.231-2.989c0.026-0.051,0.077-0.115,0.128-0.18c0.014-0.012,0.014-0.025,0.025-0.038
			c0.026-0.052,0.052-0.089,0.064-0.103c0-0.013,0.013-0.026,0.013-0.026C212.108,107.042,211.979,107.209,211.839,107.363z"/>
		<path fill-rule="evenodd" clip-rule="evenodd" fill="#FC0101" d="M183.246,135.521c-2.322-0.604-4.849-0.693-7.62-0.154
			c-3.644,0.705-6.49,2.797-8.12,5.555c-1.629,2.77-2.04,6.208-0.808,9.621c1.167,3.219,3.732,5.732,6.555,6.656
			c0.705,0.232,1.423,0.385,2.142,0.398c4.797,0.103,8.89-2.271,10.377-6.209c0.064-0.167,0.116-0.295,0.167-0.448
			c0.692-1.822,0.82-2.399-0.309-3.63c-0.321-0.348-0.705-0.745-1.245-1.245c-0.128,0.334-0.269,0.667-0.41,0.987
			c-0.526,1.18-1.155,2.245-2.104,3.078c-0.205,0.168-0.41,0.334-0.641,0.488c-2.784,1.822-6.311,0.398-6.939-2.809
			c-0.359-1.848,0.218-3.451,1.372-4.503c0.642-0.591,1.45-1.014,2.374-1.193c0.859-0.179,1.809-0.153,2.821,0.103
			c4.131,1.078,7.081,4.271,8.031,8.068c0.834,3.387,0.077,7.236-2.912,10.531c-0.41,0.463-0.847,0.873-1.283,1.258
			c-1.09,0.937-2.257,1.643-3.489,2.182c-0.153,0.076-0.32,0.141-0.487,0.205h-0.013c-0.013,0-0.013,0-0.025,0
			c-1.18,0.23-2.668,0.358-4.361,0.358c-5.914,0-14.226-1.552-19.473-5.913l-0.475-0.385l0.18-0.577
			c1.95-6.401-1.822-19.64-9.967-23.27c-9.146-4.079-23.975-19.075-18.703-35.469c0.359-2.015,0.757-4.015,1.154-6.017
			c0.129-0.666,0.27-1.334,0.398-2.001c0.59-2.963,1.168-5.927,1.578-8.915c1.001-7.223,1.629-14.443,0.155-21.679
			c-0.783-3.861-0.77-3.861-4.696-3.874c-0.513-0.013-1.32,0.359-1.513-0.347c-0.193-0.718,0.603-1.026,1.116-1.334
			c2.014-1.192,4.067-2.335,5.952-3.733c4.298-3.207,7.03-7.389,8.261-13.135c-2.912,3.13-6.336,4.131-9.916,4.746
			c-5.208,0.911-10.608,1.193-14.815,5.182c-0.5-1.205,0.539-1.809,0.654-2.731c-5.452-1.809-10.93-3.156-16.663-2.989
			c-2.45,0.064-4.926,0.372-6.978,1.938c-1.912,1.449-1.848,3.297,0.141,4.605c0.667,0.436,1.411,0.73,2.116,1.115
			c0.269,0.154,0.744,0.244,0.539,0.705c-0.179,0.424-0.577,0.206-0.897,0.154c-0.334-0.064-0.667-0.166-1.001-0.256
			c-5.361-1.412-10.788-2.477-16.342-2.874c-1.283-0.089-1.873,0.077-2.065,1.591c-0.256,2.168-1.27,3.964-3.9,3.964
			c-0.794,0-0.859,0.653-1.052,1.154c-0.949,2.565-0.821,5.221-0.705,8.249c5.272-4.375,10.941-5.363,17.074-3.182
			c1.513,0.539,2-0.154,2.219-1.438c4.746,3.182,5.452,10.904,1.295,13.88c-0.038-0.808-0.077-1.564-0.115-2.374
			c-5.259,2.502-9.21,3.285-15.316,0.117c-1.039-0.553-0.962,0.217-1.129,0.807c-1.167,4.016-2.81,7.723-6.953,10.25
			c4.836-0.59,9.288-0.859,13.162-4.041c0.205,2.656-1.437,4.08-2.963,6.042c3.938-1.526,6.889-3.565,9.338-6.786
			c0.437,2.438,0.154,4.35-1.41,6.439c2.693-1.5,4.514-3.104,5.695-5.349c0.423-0.808,0.846-1.014,1.744-0.564
			c1.206,0.603,2.54,1.039,3.9,1.142c8.53,0.564,15.483-7.939,13.315-16.227c-0.154-0.59-0.782-1.296-0.282-1.758
			c0.577-0.525,1.192,0.347,1.847,0.41c0.09,0,0.18-0.063,0.282-0.103c-0.731-1.064-2.18-1.654-2.168-3.296
			c0.898,0.166,1.372,0.795,1.976,1.192c2.168,1.462,4.207,3.438,7.248,1.821c-1.552,1.514-3.194,2.746-5.439,2.541
			c-0.949-0.09-1.167,0.23-1.155,1.103c0,1.282-0.141,2.553-0.436,3.784c-0.141,1.32-0.359,2.604-0.654,3.848
			c-1.873,8.223-6.657,14.919-11.712,21.514c-9.056,11.826-19.331,25.244-19.331,48.436c0,8.826,2.899,57.986,54.248,57.986
			c22.077,0,39.098-10.129,45.432-14.538c6.333-4.409,11.497-11.25,11.946-11.866c0.013-0.012,0.013-0.012,0.026-0.025
			c0.95-1.167,1.834-2.412,2.617-3.758c0.051-0.09,0.103-0.18,0.154-0.27c0.308-0.564,0.616-1.129,0.898-1.719
			c0.077-0.141,0.141-0.296,0.205-0.437c0.321-0.692,0.642-1.398,0.911-2.142c0.552-1.438,0.976-2.861,1.283-4.285
			c1.334-6.132,0.333-12.032-3.977-17.395C190.378,139.009,187.106,136.534,183.246,135.521z"/>
	</g>
	<path fill="#0A0707" d="M214.058,105.528c-6.324,3.105-12.507,6.479-18.215,10.686c-5.733,4.246-10.48,9.557-16.009,14.06
		c4.105,0.025,7.928-0.847,11.635-2.501c-1.321,2.334-2.553,4.668-4.22,6.734c-0.372,0.461-0.731,0.576-1.308,0.308
		c-3.002-1.372-6.158-1.796-9.429-1.296c-7.889,1.193-13.417,7.62-11.943,15.521c1.065,5.67,6.363,11.365,13.161,10.096
		c4.272-0.795,7.671-2.681,9.428-6.863c0.064-0.153,0.167-0.281,0.36-0.23c-0.116,5.029-2.065,8.274-6.17,10.198
		c-4.426,1.038-16.381,0.642-22.886-4.374c1.784-7.313-1.606-21.494-10.457-25.445c-8.273-3.682-23.048-16.707-18.584-31.651
		c0.27,0.243,2.475-0.321,3.348-0.192c2.053,0.295,3.45,1.86,3.579,4.105c0.064,1.064,0.026,2.143,0.026,3.219
		c1.257-0.243,1.706-1.41,2.373-2.244c4.182-5.131,4.092-9.043-0.231-14.033c-0.782-0.911-1.591-1.81-2.386-2.707
		c-0.692-0.77-1.359-1.578-1.68-2.553c-0.373-1.104-0.642-2.206,0.756-2.95c1.296-0.706,2.31-0.397,3.169,0.653
		c0.769,0.938,1.231,2.041,1.424,3.246c0.154,1.014,0.282,2.027,0.475,3.426c2.232-3.413,3.771-6.556,3.399-10.365
		c-0.32-3.284-2.129-5.722-4.335-7.94c-1.386-1.386-2.797-2.72-4.169-4.104c-0.796-0.796-0.54-1.348,0.436-1.797
		c2.207-1.014,4.387-0.256,5.452,1.95c0.244,0.513,0.18,1.257,0.975,1.373c0.077-0.153,0.167-0.257,0.167-0.36
		c0-0.743,0.026-1.487-0.025-2.23c-0.385-5.721-2.104-10.66-7.953-13.047c-0.808-0.32-0.654-0.68-0.206-1.218
		c1.578-1.95,3.207-3.874,4.566-6.004c1.886-2.95,3.066-6.105,2.899-9.672c-0.013-0.308,0.154-0.731-0.27-0.897
		c-0.397-0.154-0.603,0.217-0.833,0.461c-2.72,2.835-6.312,3.387-10.07,3.874c0.949-2.81,2.796-5.259,2.142-8.633
		c-2.245,2.206-4.746,3.476-7.389,4.566c-4.361,1.796-9.223,2.13-13.417,4.425c-0.205,0.104-0.551-0.063-0.834-0.102
		c-2.36-0.346-4.733-0.821-7.106-1.014c-4.079-0.334-8.12-0.051-11.929,1.604c-1.411,0.603-2.617,1.463-3.053,3.027
		c-0.411,1.449,0.628,2.373,1.731,3.617c-0.59-0.218-0.782-0.295-0.988-0.372c-6.234-2.411-12.635-3.95-19.395-3.181
		c-4.375,0.5-8.466,1.809-11.814,4.861c-0.283,0.27-0.86,0.5-0.321,1.244c2.515-1.912,5.041-1.488,7.543,0.09
		c0.821,0.513,1.642,1.039,2.488,1.501c0.5,0.27,0.603,0.552,0.359,1.078c-0.885,1.897-0.949,3.976-1.347,5.978
		c-0.283,1.437,0.821,3.335-0.679,4.207c-1.271,0.744-3.028,0.282-4.567,0.295c-2.822,0.013-5.478-0.666-8.017-1.938
		c2.245,0.065,4.335-0.396,6.555-1.68c-9.031-4.016-16.24-10.096-22.526-17.677c-0.846,9.095,6.966,26.464,13.495,30.107
		c-0.385-2.669-0.924-5.171-0.873-7.723c-0.051-0.116-0.09-0.231-0.141-0.347c0.141,0.026,0.269,0.039,0.398,0.064
		c2.373,2.039,5.054,3.438,8.146,4.092c3.668,0.795,7.273,0.359,10.878-0.32c0.975-0.18,1.192,0.051,1.103,0.987
		c-0.243,2.425-1.039,4.682-2.347,6.708c-1.36,2.117-2.796,4.247-5.656,4.542c-0.309,0.038-0.59,0.243-0.552,0.538
		c0.051,0.462,0.487,0.398,0.821,0.398c3.207-0.052,6.401-0.104,9.607-0.141h2.874c-0.95,1.076-1.668,1.885-2.694,3.04
		c3.591-0.296,6.646-0.745,9.441-2.322c0.128-0.026,0.27-0.064,0.411-0.09c-0.039,0.142-0.064,0.282-0.103,0.423
		c-0.321,1.168-1.72,1.424-2.207,2.515c0.745,0.231,1.334,0.09,1.938-0.063c3.386-0.924,6.183-3.607,8.724-5.979
		c0.552-0.515,1.052-0.821,1.809-0.578c1.462,0.487,2.667,2.374,3.578,3.505c0.09,0.025,0.192,0.063,0.333,0.141
		c0.5,0.27,0.539,0.244,0.757,0.09c0.193-0.142,0.5-0.359,1.167-0.526c0.09-0.025,0.206-0.064,0.321-0.116
		c0.18-0.115,0.373-0.217,0.526-0.32c2.091-1.488,4.232-2.898,6.119-4.682c1.103-1.129,2.194-2.425,3.091-3.835
		c-2.04,6.426-6.426,12.161-11.378,18.625c-9.249,12.059-19.716,25.72-19.716,49.54c0,25.232,14.906,59.795,56.07,59.795
		c28.965,0,44.43-13.121,52.915-20.676c2.33-2.075,5.823-6.356,6.581-7.537c1.654-2.219,3.053-4.707,4.13-7.504
		c3.374-8.773,2.746-17.086-3.592-24.501c-0.257-0.295-0.475-0.564-0.475-1.001c0.052-2.629,0.911-5.016,2.181-7.426
		c0.988,2.668,2.142,5.041,3.708,7.195c0.256,0.359,0.539,0.988,1,0.873c0.501-0.129,0.359-0.796,0.385-1.245
		c0.18-2.103,0.513-4.181,0.949-6.233c2.027-9.75,6.106-18.536,12.418-26.271C214.032,106.209,214.417,106.042,214.058,105.528z
		 M197.151,159.88c-0.308,1.424-0.731,2.848-1.283,4.285c-0.269,0.743-0.59,1.449-0.911,2.142c-0.064,0.141-0.128,0.296-0.205,0.437
		c-0.282,0.59-0.59,1.154-0.898,1.719c-0.051,0.09-0.103,0.18-0.154,0.27c-0.783,1.346-1.667,2.591-2.617,3.758
		c-0.013,0.014-0.013,0.014-0.026,0.025c-0.449,0.616-1.052,1.412-1.898,2.078c-2.732,2.721-5.58,5.864-9.273,8.639
		c-8.028,5.847-24.13,15.688-46.207,15.688c-51.349,0-54.248-49.16-54.248-57.986c0-23.191,10.275-36.609,19.331-48.436
		c5.055-6.595,9.839-13.291,11.712-21.514c0.295-1.244,0.513-2.527,0.654-3.848c0.295-1.231,0.436-2.502,0.436-3.784
		c-0.012-0.872,0.206-1.192,1.155-1.103c2.245,0.205,3.887-1.027,5.439-2.541c-3.041,1.616-5.08-0.359-7.248-1.821
		c-0.604-0.397-1.077-1.026-1.976-1.192c-0.012,1.642,1.437,2.231,2.168,3.296c-0.103,0.039-0.192,0.103-0.282,0.103
		c-0.654-0.063-1.27-0.936-1.847-0.41c-0.5,0.462,0.127,1.168,0.282,1.758c2.168,8.287-4.785,16.791-13.315,16.227
		c-1.36-0.103-2.694-0.539-3.9-1.142c-0.898-0.449-1.321-0.243-1.744,0.564c-1.181,2.245-3.002,3.849-5.695,5.349
		c1.564-2.09,1.847-4.002,1.41-6.439c-2.449,3.221-5.4,5.26-9.338,6.786c1.526-1.962,3.168-3.386,2.963-6.042
		c-3.874,3.182-8.326,3.451-13.162,4.041c4.144-2.527,5.786-6.234,6.953-10.25c0.167-0.59,0.09-1.359,1.129-0.807
		c6.105,3.168,10.057,2.385,15.316-0.117c0.039,0.81,0.077,1.566,0.115,2.374c4.157-2.976,3.451-10.698-1.295-13.88
		c-0.219,1.283-0.706,1.977-2.219,1.438c-6.132-2.182-11.802-1.193-17.074,3.182c-0.116-3.028-0.244-5.684,0.705-8.249
		c0.192-0.501,0.257-1.154,1.052-1.154c2.63,0,3.644-1.796,3.9-3.964c0.192-1.514,0.783-1.68,2.065-1.591
		c5.555,0.397,10.981,1.462,16.342,2.874c0.334,0.09,0.667,0.191,1.001,0.256c0.321,0.052,0.718,0.27,0.897-0.154
		c0.205-0.461-0.27-0.551-0.539-0.705c-0.705-0.385-1.449-0.68-2.116-1.115c-1.989-1.309-2.053-3.156-0.141-4.605
		c2.052-1.565,4.528-1.873,6.978-1.938c5.733-0.167,11.211,1.181,16.663,2.989c-0.115,0.923-1.154,1.526-0.654,2.731
		c4.207-3.988,9.607-4.271,14.815-5.182c3.579-0.615,7.004-1.616,9.916-4.746c-1.231,5.746-3.963,9.928-8.261,13.135
		c-1.885,1.398-3.938,2.541-5.952,3.733c-0.513,0.308-1.309,0.616-1.116,1.334c0.193,0.706,1,0.334,1.513,0.347
		c3.926,0.013,3.913,0.013,4.696,3.874c1.475,7.235,0.846,14.456-0.155,21.679c-0.41,2.988-0.988,5.952-1.578,8.915
		c-0.128,0.667-0.269,1.335-0.398,2.001c-0.397,2.002-0.795,4.002-1.154,6.017c-5.272,16.394,9.557,31.39,18.703,35.469
		c7.732,3.446,11.513,15.536,10.21,22.231c-0.176-0.121-0.367-0.238-0.576-0.345c-0.437-0.204-0.877-0.433-1.298-0.688
		c-0.424-0.258-0.842-0.523-1.259-0.752c-0.39-0.279-0.771-0.523-1.096-0.731c-0.644-0.427-1.099-0.682-1.099-0.682l-0.085,0.095
		c0,0,0.308,0.421,0.81,1.006c0.248,0.297,0.531,0.647,0.862,0.995c0.354,0.335,0.758,0.67,1.157,1.015
		c0.394,0.355,0.784,0.717,1.156,1.021c0.341,0.279,0.692,0.488,1.015,0.65l-0.01,0.031l0.475,0.385
		c5.247,4.361,13.559,5.913,19.473,5.913c1.693,0,3.181-0.128,4.361-0.358c0.012,0,0.012,0,0.025,0h0.013
		c0.167-0.064,0.334-0.129,0.487-0.205c1.232-0.539,2.399-1.245,3.489-2.182c0.436-0.385,0.873-0.795,1.283-1.258
		c2.989-3.295,3.746-7.145,2.912-10.531c-0.95-3.797-3.899-6.99-8.031-8.068c-1.012-0.256-1.962-0.281-2.821-0.103
		c-0.924,0.18-1.731,0.603-2.374,1.193c-1.154,1.052-1.731,2.655-1.372,4.503c0.628,3.207,4.156,4.631,6.939,2.809
		c0.231-0.154,0.437-0.32,0.641-0.488c0.95-0.833,1.578-1.898,2.104-3.078c0.141-0.32,0.282-0.653,0.41-0.987
		c0.54,0.5,0.924,0.897,1.245,1.245c1.129,1.23,1,1.808,0.309,3.63c-0.051,0.153-0.103,0.281-0.167,0.448
		c-1.488,3.938-5.58,6.312-10.377,6.209c-0.719-0.014-1.437-0.166-2.142-0.398c-2.822-0.924-5.388-3.438-6.555-6.656
		c-1.232-3.413-0.821-6.852,0.808-9.621c1.63-2.758,4.477-4.85,8.12-5.555c2.771-0.539,5.298-0.449,7.62,0.154
		c3.861,1.014,7.132,3.488,9.929,6.965C197.484,147.848,198.485,153.748,197.151,159.88z M75.133,67.995
		c3.785-0.705,7.518-0.667,11.52,1.064C82.343,70.933,78.726,69.61,75.133,67.995z M181.731,147.886l-0.23,0.309
		c-0.731,0.987-1.668,1.514-2.616,1.564c-0.449,0.025-0.886-0.039-1.322-0.219c-0.295-0.115-0.539-0.256-0.744-0.423
		c-0.642-0.513-0.923-1.257-0.885-2.335c0.013-0.423,0.103-0.808,0.206-1.154c0.449-1.385,1.616-2.116,3.335-1.963
		c0.243,0.014,0.5,0.039,0.756,0.077c0.77,0.091,1.552,0.257,2.078,0.667c0.205,0.154,0.372,0.346,0.474,0.59
		C183.155,145.859,182.412,146.962,181.731,147.886z M195.265,127.413c-0.192,0.359-0.372,0.744-0.551,1.116
		c-1.245,2.63-2.271,5.374-3.118,8.171c-0.115,0.372-0.205,0.642-0.346,0.795c0,0.014-0.013,0.014-0.026,0.026
		c-0.218,0.218-0.551,0.153-1.18-0.282c-0.308-0.206-0.539-0.41-0.693-0.616c-0.281-0.333-0.358-0.68-0.307-1.077
		c0.038-0.32,0.153-0.654,0.346-1.053c2.45-5.182,5.824-9.723,9.454-14.11c0.488-0.59,1.014-1.154,1.527-1.744
		c0.153-0.179,0.321-0.385,0.513-0.603c0.103-0.115,0.205-0.231,0.321-0.372c0,0.089-0.013,0.141-0.025,0.218
		c-0.065,0.488-0.347,0.719-0.616,0.949c-0.359,0.564-0.731,1.116-1.104,1.681c-0.949,1.449-1.911,2.899-2.809,4.374
		C196.15,125.706,195.701,126.554,195.265,127.413z M212.313,107.261c-0.012,0.014-0.039,0.051-0.064,0.103
		c-0.012,0.013-0.012,0.026-0.025,0.038c-0.051,0.064-0.103,0.129-0.128,0.18c-0.77,0.988-1.5,1.976-2.231,2.989
		c-1.116,1.552-2.181,3.13-3.155,4.772c-0.629,1.064-1.232,2.129-1.797,3.244c-0.167,0.334-0.321,0.681-0.487,1.026
		c-2.386,4.978-4.066,10.16-5.066,15.65c-2.348-2.759-2.835-6.183-1.745-8.813c2.143-5.169,5.619-9.428,8.928-13.814
		c0.141-0.18,0.308-0.348,0.449-0.539c0.128-0.192,0.231-0.41,0.231-0.705c-0.27-0.103-0.449-0.014-0.604,0.128
		c-0.115,0.103-0.218,0.244-0.333,0.333c-0.359,0.295-0.706,0.616-1.064,0.924c-4.002,3.412-7.646,7.223-11.289,11.006
		c-1.706,1.771-3.63,3.066-5.862,3.887c-0.706,0.27-1.437,0.476-2.207,0.643c-0.103,0.025-0.205,0.051-0.32,0.076h-0.039
		c-0.475,0.104-0.949,0.167-1.45,0.23c1.257-1.141,2.348-2.103,3.387-3.09c4.695-4.439,9.274-9.006,14.674-12.61
		c3.117-2.065,6.312-4.015,9.724-5.555c0.141-0.154,0.269-0.321,0.487-0.129C212.326,107.234,212.313,107.248,212.313,107.261z"/>
	<path fill="#001F12" d="M110.551,69.06c-0.026,0.09-0.039,0.167-0.064,0.244l-0.013,0.013
		C110.487,69.227,110.513,69.149,110.551,69.06z"/>
	<path fill-rule="evenodd" clip-rule="evenodd" fill="#001F12" d="M136.232,92.278c3.938,3.514,4.438,7.684,1.501,12.212
		c-0.026,0.038-0.04,0.076-0.065,0.114c-0.026,0.014-0.064,0-0.089,0c0.051-0.038,0.089-0.089,0.141-0.127
		c-0.141-3.644-2.732-5.119-5.567-6.44c-0.603-0.281-1.988-0.013-1.449-1.501c0.474-1.295,1.436-1.564,2.617-1.219
		c1.218,0.373,2.245,1.104,3.117,2.053c0.309,0.347,0.424,0.988,1.257,0.885c-0.384-2.052-1.847-3.181-3.386-4.232
		c-2.424-1.668-2.617-2.182-1.912-5.131C133.679,90.021,134.962,91.149,136.232,92.278z"/>
	<path fill-rule="evenodd" clip-rule="evenodd" fill="#001F12" d="M141.055,85.646c-0.359-1.103-0.654-2.077-1.309-2.873
		c-0.756-0.91-1.719-1.463-2.848-1.809c-1.116-0.359-2.129,0-3.194,0.27c-0.334-1.129,0.192-2.155,0.282-3.22
		c0.064-0.782,0.667-0.629,1.167-0.449c1.963,0.68,3.541,1.847,4.592,3.655c0.192,0.321,0.167,0.783,0.655,0.924
		c0.616-0.27,0.23-0.68,0.115-0.987c-0.898-2.271-2.489-4.066-4.528-5.233c-1.488-0.859-1.822-1.783-1.398-3.259
		c0.077-0.269,0.051-0.563,0.089-0.987C140.234,74.961,142.607,80.168,141.055,85.646z"/>
	<path fill-rule="evenodd" clip-rule="evenodd" fill="#001F12" d="M137.464,59.08c0.192,0.179,0.372,0.358,0.551,0.563
		c0.539,0.591,1.013,1.258,1.424,1.95c0.269,0.462,0.5,0.924,0.692,1.411c0.193,0.487,0.347,0.975,0.462,1.475
		c0.063,0.271,0.115,0.539,0.153,0.822c0.039,0.217,0.051,0.449,0.065,0.68c0,0.012,0,0.012,0.012,0.012
		c0.039,0.014,0.064,0.026,0.103,0.039c-0.038,0-0.077-0.013-0.115-0.025c-0.014-0.014-0.014-0.014-0.014-0.025
		c-0.167-0.167-0.333-0.334-0.513-0.5c-0.23-0.193-0.474-0.372-0.718-0.527c-0.346-0.242-0.692-0.423-1.064-0.59
		c-0.885-0.358-1.848-0.538-2.887-0.525c-0.487,0.013-1.141,0.128-1.257-0.564c-0.102-0.603-0.256-1.386,0.013-1.834
		c0.347-0.552,1.167-0.32,1.731-0.077c0.745,0.321,1.437,0.771,2.284,1.001c-0.68-1.539-1.745-2.771-3.323-3.297
		c-1.282-0.424-1.731-1.052-1.462-2.297C135,57.144,136.334,57.977,137.464,59.08z"/>
	<path fill-rule="evenodd" clip-rule="evenodd" fill="#001F12" d="M130.332,35.656c-0.192,2.438-3.181,5.645-5.349,5.939
		c-1.86,0.257-3.656,0.692-5.426,1.372c-1.527,0.578-2.874-0.744-4.439-0.962C120.069,39.556,125.906,39.466,130.332,35.656z"/>
	<path fill-rule="evenodd" clip-rule="evenodd" fill="#0A0707" d="M180.68,164.46v0.012c0.012,0,0.012-0.012,0.025-0.012
		C180.692,164.46,180.692,164.46,180.68,164.46z"/>
	<path fill-rule="evenodd" clip-rule="evenodd" fill="#001F12" d="M63.371,48.882c2.796-1.027,5.721-1.168,8.633-1.359
		c0.346-0.014,0.744-0.025,0.782,0.436c0.077,1.078,0.155,2.182-0.641,3.066c-0.718,0.795-1.552,0.5-2.36,0.218
		C67.655,50.485,65.705,49.228,63.371,48.882z"/>
	<path fill-rule="evenodd" clip-rule="evenodd" fill="#001F12" d="M48.683,67.122c-6.517-6.041-8.633-13.828-10.07-21.973
		c4.72,6.195,10.3,11.391,17.471,15.252c-3.578,0.436-6.349-0.501-8.876-2.515c-2.348-1.886-3.745-4.579-5.85-6.683
		c0.809,2.654,2.168,4.977,3.656,7.234c0.847,1.296,1.757,2.539,2.656,3.797C48.632,63.608,49.017,65.109,48.683,67.122z"/>
	<path fill-rule="evenodd" clip-rule="evenodd" fill="#001F12" d="M69.041,66.764c-6.901,2.04-13.341,1.103-18.805-4.003
		c-0.667-0.615-1.207-1.359-2.04-2.309c1.386,0.219,2.078,1,2.887,1.527c4.054,2.654,8.337,4.45,13.328,4.04
		c2.604-0.218,4.99-1.167,7.479-1.809c5.092-1.321,10.223-1.745,15.431-0.667c0.757,0.167,1.54,0.32,2.514,1.168
		c-3.232-0.476-6.003-0.86-8.812-0.732c-0.398,0.014-0.795,0.026-1.193,0.078c-0.295,0.051-0.564,0.205-0.539,0.539
		c0.012,0.384,0.333,0.409,0.615,0.409c1.373-0.025,2.746-0.103,4.118-0.089c1.988,0.012,3.874,0.475,5.58,1.525
		c-2.476-0.205-4.9-0.666-7.363-0.924C77.738,65.045,73.402,65.481,69.041,66.764z"/>
	<path fill-rule="evenodd" clip-rule="evenodd" fill="#FC0101" d="M41.358,51.204c0.809,2.654,2.168,4.977,3.656,7.234
		c0.847,1.296,1.757,2.539,2.656,3.797c0.962,1.373,1.347,2.874,1.013,4.887c-6.517-6.041-8.633-13.828-10.07-21.973
		c4.72,6.195,10.3,11.391,17.471,15.252c-3.578,0.436-6.349-0.501-8.876-2.515C44.86,56.001,43.462,53.308,41.358,51.204z"/>
	<path fill-rule="evenodd" clip-rule="evenodd" fill="#FC0101" d="M84.023,64.917c1.988,0.012,3.874,0.475,5.58,1.525
		c-2.476-0.205-4.9-0.666-7.363-0.924c-4.502-0.474-8.838-0.037-13.2,1.245c-6.901,2.04-13.341,1.103-18.805-4.003
		c-0.667-0.615-1.207-1.359-2.04-2.309c1.386,0.219,2.078,1,2.887,1.527c4.054,2.654,8.337,4.45,13.328,4.04
		c2.604-0.218,4.99-1.167,7.479-1.809c5.092-1.321,10.223-1.745,15.431-0.667c0.757,0.167,1.54,0.32,2.514,1.168
		c-3.232-0.476-6.003-0.86-8.812-0.732c-0.398,0.014-0.795,0.026-1.193,0.078c-0.295,0.051-0.564,0.205-0.539,0.539
		c0.012,0.384,0.333,0.409,0.615,0.409C81.278,64.98,82.651,64.903,84.023,64.917z"/>
	<path fill-rule="evenodd" clip-rule="evenodd" fill="#FC0101" d="M137.733,104.49l-0.014-0.013
		c-0.141-3.644-2.732-5.119-5.567-6.44c-0.603-0.281-1.988-0.013-1.449-1.501c0.474-1.295,1.436-1.564,2.617-1.219
		c1.218,0.373,2.245,1.104,3.117,2.053c0.309,0.347,0.424,0.988,1.257,0.885c-0.384-2.052-1.847-3.181-3.386-4.232
		c-2.424-1.668-2.617-2.182-1.912-5.131c1.283,1.129,2.565,2.258,3.836,3.387C140.17,95.792,140.67,99.962,137.733,104.49z"/>
	<path fill-rule="evenodd" clip-rule="evenodd" fill="#FC0101" d="M141.055,85.646c-0.359-1.103-0.654-2.077-1.309-2.873
		c-0.756-0.91-1.719-1.463-2.848-1.809c-1.116-0.359-2.129,0-3.194,0.27c-0.334-1.129,0.192-2.155,0.282-3.22
		c0.064-0.782,0.667-0.629,1.167-0.449c1.963,0.68,3.541,1.847,4.592,3.655c0.192,0.321,0.167,0.783,0.655,0.924
		c0.616-0.27,0.23-0.68,0.115-0.987c-0.898-2.271-2.489-4.066-4.528-5.233c-1.488-0.859-1.822-1.783-1.398-3.259
		c0.077-0.269,0.051-0.563,0.089-0.987C140.234,74.961,142.607,80.168,141.055,85.646z"/>
	<path fill-rule="evenodd" clip-rule="evenodd" fill="#FC0101" d="M130.332,35.656c-0.192,2.438-3.181,5.645-5.349,5.939
		c-1.86,0.257-3.656,0.692-5.426,1.372c-1.527,0.578-2.874-0.744-4.439-0.962C120.069,39.556,125.906,39.466,130.332,35.656z"/>
	<path fill-rule="evenodd" clip-rule="evenodd" fill="#FC0101" d="M140.798,65.981v-0.014c-0.167-0.18-0.333-0.332-0.513-0.486
		c-0.23-0.193-0.474-0.372-0.718-0.527c-0.333-0.242-0.692-0.436-1.064-0.59c-0.885-0.358-1.848-0.538-2.887-0.525
		c-0.487,0.013-1.141,0.128-1.257-0.564c-0.102-0.603-0.256-1.386,0.013-1.834c0.347-0.552,1.167-0.32,1.731-0.077
		c0.745,0.321,1.437,0.771,2.284,1.001c-0.68-1.539-1.745-2.771-3.323-3.297c-1.282-0.424-1.731-1.052-1.462-2.297
		c1.398,0.373,2.732,1.206,3.862,2.31c0.192,0.179,0.372,0.372,0.551,0.563c0.539,0.591,1.013,1.258,1.424,1.95
		c0.269,0.462,0.5,0.924,0.692,1.411c0.193,0.487,0.347,0.975,0.462,1.475c0.063,0.271,0.115,0.539,0.153,0.822
		c0.039,0.217,0.051,0.449,0.065,0.68C140.812,65.981,140.812,65.981,140.798,65.981z"/>
	<path fill-rule="evenodd" clip-rule="evenodd" fill="#FC0101" d="M140.824,65.993l-0.012,0.014c0-0.014,0-0.014,0-0.025
		C140.812,65.993,140.812,65.993,140.824,65.993z"/>
	<path fill-rule="evenodd" clip-rule="evenodd" fill="#FC0101" d="M72.145,51.024c-0.718,0.795-1.552,0.5-2.36,0.218
		c-2.13-0.757-4.08-2.015-6.414-2.36c2.796-1.027,5.721-1.168,8.633-1.359c0.346-0.014,0.744-0.025,0.782,0.436
		C72.863,49.036,72.94,50.14,72.145,51.024z"/>
	<path fill-rule="evenodd" clip-rule="evenodd" fill="none" d="M86.653,69.06c-4.31,1.873-7.927,0.551-11.52-1.064
		C78.918,67.29,82.651,67.328,86.653,69.06z"/>
	<path fill-rule="evenodd" clip-rule="evenodd" fill="#FC0101" d="M140.927,66.032c-0.038,0-0.077-0.013-0.115-0.025l0.012-0.014
		C140.863,66.007,140.889,66.02,140.927,66.032z"/>
	<path fill-rule="evenodd" clip-rule="evenodd" fill="none" d="M82.651,82.195c-0.039,0.142-0.064,0.282-0.103,0.423
		c-0.103-0.102-0.206-0.217-0.308-0.333C82.368,82.259,82.51,82.221,82.651,82.195z"/>
	<path fill-rule="evenodd" clip-rule="evenodd" fill="#0A0707" d="M109.445,51.483c-2.928-1.318-5.598-0.025-8.321,0.605
		c-0.853,0.195-1.997-0.095-2.523,0.07c-2.095,0.65-1.84-1.328-2.707-1.96c-0.828-0.603-1.651-1.214-2.455-1.845
		c-0.411-0.324-0.805-0.736-0.686-1.298c0.139-0.657,0.783-0.562,1.261-0.618c0.8-0.096,1.596-0.039,2.358,0.27
		c2.635,1.064,5.378,1.423,8.208,1.377C106.947,48.046,108.355,49.511,109.445,51.483z M101.265,50.84
		c1.152,0.063,2.137-0.529,3.141-1.024c0.227-0.113,0.521-0.381,0.527-0.585c0.012-0.413-0.428-0.48-0.745-0.557
		C102.413,48.246,101.376,48.89,101.265,50.84z M95.7,47.935c1.061,1.361,1.929,2.66,3.684,2.889
		C98.616,49.304,98.323,47.29,95.7,47.935z"/>
	<path fill-rule="evenodd" clip-rule="evenodd" fill="#0A0707" d="M121.173,48.585c1.781,0.666,1.75,0.585,3.983-0.313
		c1.311-0.527,2.73-0.798,4.119-1.104c2.261-0.498,4.345-1.36,6.235-2.701c0.432-0.305,0.91-0.546,1.444-0.86
		c0.163,0.968-0.517,1.149-0.904,1.479c-1.606,1.374-3.383,2.554-4.688,4.257c-0.445,0.582-0.863,0.512-1.46,0.146
		c-2.177-1.334-2.654-1.236-4.139,0.83c-0.529,0.738-0.953,1.557-1.378,2.365c-0.386,0.729-0.753,0.724-1.284,0.137
		C122.3,51.937,121.37,49.966,121.173,48.585z"/>
	<path fill-rule="evenodd" clip-rule="evenodd" fill="#0A0707" d="M109.06,52.466c-0.513,0.959-1.157,0.748-1.692,0.813
		c-0.835,0.099-1.614,0.361-2.028,1.108c-0.535,0.959-1.017,1.447-1.957,0.403c-0.261-0.291-1.068-0.002-1.063-0.623
		c0.003-0.57,0.648-0.752,1.092-0.977C105.146,52.327,106.97,52.235,109.06,52.466z"/>
	<path fill-rule="evenodd" clip-rule="evenodd" fill="#FC0101" d="M101.265,50.84c0.111-1.95,1.148-2.594,2.923-2.166
		c0.317,0.076,0.757,0.144,0.745,0.557c-0.006,0.204-0.301,0.472-0.527,0.585C103.402,50.311,102.417,50.903,101.265,50.84z"/>
	<path fill-rule="evenodd" clip-rule="evenodd" fill="#FC0101" d="M95.7,47.935c2.623-0.645,2.916,1.369,3.684,2.889
		C97.629,50.595,96.761,49.296,95.7,47.935z"/>
	<path fill="#0A0707" d="M140.812,65.981c-0.014-0.23-0.026-0.463-0.065-0.68c0.025,0.217,0.039,0.449,0.051,0.666v0.014
		C140.812,65.981,140.812,65.981,140.812,65.981z"/>
	<g>
		<path fill-rule="evenodd" clip-rule="evenodd" fill="#FC0101" d="M230.355,44.054c-2.146,4.174-3.741,8.513-4.15,13.254
			c-0.503,5.871,0.788,11.217,4.362,15.963c-24.469-5.24-49.129-4.402-73.943-2.845c0.574-1.212,1.556-2.042,2.572-2.81
			c3.729-2.807,8.047-4.406,12.403-5.832c9.271-3.04,18.762-5.086,28.413-6.577c10.608-1.642,20.738-4.878,29.66-11.194
			c0.111-0.079,0.251-0.116,0.376-0.174C230.152,43.911,230.252,43.983,230.355,44.054z"/>
		<path fill-rule="evenodd" clip-rule="evenodd" fill="#FC0101" d="M223.772,77.636c-7.979,3.233-10.996,9.944-8.127,18.684
			c-1.336-0.608-2.572-1.197-3.826-1.741c-15.024-6.523-30.591-11.436-46.331-15.828c-3.394-0.945-6.807-1.843-10.289-2.393
			c-1.142-0.181-1.094-0.886-1.126-1.685c-0.042-0.996,0.639-0.946,1.313-0.969c7.565-0.254,15.132-0.561,22.7-0.305
			c15.151,0.516,30.318,0.947,45.255,3.954C223.529,77.392,223.706,77.421,223.772,77.636z"/>
		<path fill-rule="evenodd" clip-rule="evenodd" fill="#FC0101" d="M207.396,98.869c-9.749,1.599-16.78,6.411-19.057,16.729
			c-0.346,0.086-0.433-0.254-0.604-0.443c-7.786-8.424-15.427-16.987-23.737-24.898c-2.903-2.762-5.996-5.322-8.97-8.007
			c-0.617-0.557-1.124-1.241-1.658-1.882c-0.182-0.216-0.317-0.529-0.165-0.773c0.167-0.262,0.516-0.176,0.772-0.114
			c0.947,0.226,1.893,0.457,2.828,0.728c10.808,3.153,21.597,6.39,32.175,10.271c6.186,2.27,12.089,5.243,18.102,7.947
			C207.245,98.502,207.44,98.54,207.396,98.869z"/>
		<path fill-rule="evenodd" clip-rule="evenodd" fill="#FC0101" d="M141.015,129.421c0.835-1.097,0.836-2.361,1.036-3.563
			c0.379-2.256,0.774-4.505,1.425-6.699c0.212-0.712,0.456-1.425,0.78-2.094c0.252-0.525,0.468-1.301,1.132-1.295
			c0.827,0.01,0.677,0.908,0.783,1.432c0.521,2.612,0.957,5.242,1.448,7.859c0.088,0.469-0.095,1.053,0.755,1.547
			c-0.121-7.952,0.542-15.65,2.466-23.292c0.995,0.485,1.381,1.349,1.798,2.148c2.459,4.703,3.988,9.733,5.207,14.879
			c0.831,3.507,1.299,7.081,1.971,10.613c0.291,1.524-0.077,1.96-1.664,1.688c-2.783-0.483-4.967-2.06-6.709-4.212
			c-0.747-0.928-1.001-0.855-1.582,0.118c-2.67,4.46-1.817,7.128,3.271,9.958c-5.28,1.834-9.667-0.324-11.574-5.672
			c-0.193-0.542-0.13-1.43-0.763-1.51c-0.565-0.066-0.902,0.715-1.271,1.18c-2.019,2.535-2.819,5.725-2.293,9.063
			c-5.193-1.885-6.487-8.226-5.589-12.398c-0.802-0.046-0.934,0.643-1.234,1.077c-2.396,3.479-5.372,6.167-9.577,7.195
			c-0.046,0.012-0.088,0.036-0.132,0.048c-1.059,0.287-2.398,0.483-3.093-0.108c-0.605-0.514,0.148-1.786,0.453-2.678
			c1.957-5.737,5.507-9.883,11.496-11.555c0.09-0.025,0.177-0.063,0.265-0.087c3.148-0.802,3.213-0.737,3.117,2.461
			c-0.028,0.917,0.068,1.833,0.113,2.872c0.716-0.229,0.687-0.709,0.801-1.132c0.703-2.544,2-4.715,4.081-6.36
			c0.358-0.283,0.773-0.523,1.202-0.684c0.749-0.283,1.131-0.172,1.185,0.836C140.469,123.851,140.77,126.635,141.015,129.421z"/>
		<path fill-rule="evenodd" clip-rule="evenodd" fill="#FC0101" d="M165.232,126.589c-1.912-6.339-4.251-12.216-6.726-18.041
			c-1.131-2.66-2.335-5.299-3.951-7.703c-2.235-3.33-3.018-6.974-2.628-10.926c0.17-1.717,0.133-3.453,0.766-5.568
			c10.761,10.624,20.869,21.494,29.543,33.855C174.779,117.103,169.16,119.825,165.232,126.589z"/>
		<path fill-rule="evenodd" clip-rule="evenodd" fill="#FC0101" d="M141.65,120.823c-0.164-1.112-0.267-2.229-0.125-3.35
			c0.034-0.277,0.165-0.611-0.081-0.791c-0.313-0.228-0.595,0.045-0.862,0.223c-2.446,1.619-4.415,3.698-5.953,6.198
			c-0.142,0.229-0.272,0.462-0.541,0.913c0.056-1.35,0.494-2.326,0.91-3.293c0.295-0.682,0.142-0.805-0.557-0.725
			c-1.009,0.115-1.941,0.684-3.226,0.476c1.087-0.304,1.977-0.517,2.843-0.801c7.589-2.502,11.901-7.944,14.002-15.534
			c1.403-5.08,1.554-10.225,1.408-15.42c-0.104-3.834-0.207-7.673,0.486-11.461c1.183-6.479,5.034-10.98,10.537-14.24
			c5.006-2.966,10.463-4.732,16.055-6.135c6.676-1.676,13.481-2.603,20.295-3.521c7.455-1.003,14.865-2.324,21.666-5.801
			c4.711-2.406,8.769-5.756,12.668-9.298c2.001-1.817,4.035-3.591,6.387-4.944c0.762-0.442,1.54-0.861,2.461-0.893
			c1-0.038,1.355,0.39,1.079,1.387c-0.588,2.118-2.446,3.198-4.505,2.264c-1.387-0.632-2.053-0.183-2.949,0.779
			c-4.674,5.035-9.897,9.424-16.189,12.209c-4.816,2.136-10.049,3.158-15.209,4.131c-9.114,1.717-18.31,3.061-27.211,5.772
			c-5.991,1.825-11.963,3.72-17.122,7.478c-1.484,1.084-2.713,2.387-3.336,4.199c-0.34,0.99,0.075,1.271,0.938,1.297
			c0.139,0.007,0.278-0.01,0.416-0.025c7.025-0.815,14.087-1.124,21.146-1.242c14.152-0.236,28.297-0.105,42.354,1.9
			c4.087,0.584,8.143,1.33,12.092,2.572c0.263,0.082,0.54,0.143,0.796,0.25c0.255,0.105,0.554,0.264,0.519,0.574
			c-0.042,0.373-0.419,0.287-0.667,0.314c-2.483,0.268-4.9-0.269-7.324-0.65c-7.874-1.234-15.707-2.798-23.679-3.256
			c-4.908-0.283-9.827-0.413-14.741-0.559c-4.87-0.141-9.744-0.293-14.615-0.301c-5.809-0.01-11.609,0.309-17.394,0.813
			c-1.459,0.127-2.583,2.464-1.999,4.275c0.188,0.58,0.239,0.885-0.272,1.283c-1.07,0.84-0.922,1.846-0.181,2.826
			c0.307,0.406,0.662,0.797,1.057,1.115c10.347,8.367,19.078,18.361,27.94,28.222c2.714,3.017,5.474,5.998,7.818,9.329
			c0.342,0.485,1.12,1.161,0.526,1.662c-0.644,0.542-1.507,0.089-2.092-0.534c-0.416-0.44-0.822-0.899-1.16-1.396
			c-6.686-9.824-14.723-18.443-23.228-26.657c-3.494-3.37-6.967-6.759-10.373-10.216c-0.908-0.92-1.25-0.523-1.485,0.358
			c-0.43,1.63-0.487,3.315-0.583,4.995c-0.142,2.432-0.159,4.871,0.054,7.287c0.185,2.125,1.292,3.977,2.387,5.773
			c5.445,8.955,8.546,18.813,11.051,28.902c0.223,0.898,0.328,1.85,0.187,2.788c-0.083,0.534-0.089,1.217-0.858,1.235
			c-0.701,0.016-0.766-0.664-0.861-1.109c-0.427-2.011-0.757-4.043-1.155-6.061c-1.881-9.511-5.468-18.404-9.63-27.093
			c-0.126-0.263-0.264-0.636-0.507-0.597c-0.463,0.072-0.573,0.552-0.703,0.953c-1.07,3.298-1.664,6.702-2.089,10.129
			c-0.347,2.807-0.54,5.634-0.848,8.448c-0.413-2.563-0.603-5.127-0.011-7.761c-1.771,1.635-3.193,3.461-4.242,5.593
			c-0.741,1.505-0.976,3.166-1.533,4.726L141.65,120.823z"/>
		<path fill-rule="evenodd" clip-rule="evenodd" fill="#FC0101" d="M140.552,113.489c4.177-4.756,5.595-10.402,5.784-16.584
			c0.156-5.094-0.261-10.185,0.132-15.275c0.741-9.604,5.546-16.543,13.667-21.305c6.067-3.557,12.699-5.586,19.507-7.129
			c7.305-1.653,14.773-2.262,22.119-3.629c6.253-1.162,12.454-2.557,18.046-5.813c3.844-2.24,7.213-5.066,10.187-8.395
			c1.454-1.623,2.937-3.27,5.11-3.984c0.259-0.084,0.51-0.232,0.909-0.044c-1.442,1.853-3.082,3.47-4.787,5.021
			c-5.949,5.412-12.527,9.744-20.322,12.002c-4.734,1.372-9.539,2.377-14.41,3.102c-9.867,1.461-19.731,2.956-29.146,6.473
			c-3.444,1.287-6.737,2.871-9.774,4.967c-6.57,4.537-9.529,11.008-9.804,18.846c-0.185,5.322-0.092,10.654-0.336,15.972
			c-0.217,4.712-1.215,9.259-4.055,13.188C142.621,111.948,141.745,112.88,140.552,113.489z"/>
		<path fill-rule="evenodd" clip-rule="evenodd" fill="#FC0101" d="M153.24,77.622c0.735-0.536,1.407-0.223,2.058-0.081
			c11.475,2.468,22.667,5.948,33.787,9.683c9.233,3.102,18.412,6.363,27.151,10.745c0.837,0.421,1.636,0.888,2.323,1.528
			c0.22,0.203,0.604,0.387,0.384,0.789c-0.182,0.33-0.544,0.371-0.864,0.292c-0.944-0.229-1.896-0.45-2.814-0.759
			c-5.25-1.764-10.209-4.217-15.167-6.647c-9.798-4.805-20.208-7.874-30.549-11.152C164.208,80.324,158.866,78.626,153.24,77.622z"
			/>
		<path fill-rule="evenodd" clip-rule="evenodd" fill="#FC0101" d="M129.739,121.13c-6.193,2.276-10.9,6.064-12.822,12.9
			C116.326,128.06,122.981,121.429,129.739,121.13z"/>
		<path fill-rule="evenodd" clip-rule="evenodd" fill="#FC0101" d="M186.647,124.634c1.156-0.332,1.917-1.135,2.55-2.588
			C189.246,124.068,188.485,124.715,186.647,124.634z"/>
		<path fill-rule="evenodd" clip-rule="evenodd" fill="#FC0101" d="M243.873,35.474c-0.334-0.318-0.601-0.559-0.85-0.813
			c-0.234-0.236-0.822-0.031-0.775-0.584c0.02-0.217,0.213-0.412,0.473-0.424c0.473-0.021,0.892,0.087,1.193,0.502
			C244.209,34.563,243.958,34.94,243.873,35.474z"/>
		<path fill-rule="evenodd" clip-rule="evenodd" fill="#FC0101" d="M162.581,137.2c0.518-0.636,0.797-1.384,1.026-2.162
			c0.071-0.244,0.278-0.404,0.519-0.324c0.309,0.105,0.14,0.378,0.103,0.578C164.049,136.214,163.481,136.827,162.581,137.2z"/>
		<path fill-rule="evenodd" clip-rule="evenodd" fill="#FC0101" d="M234.612,79.173c0.008-0.693-0.437-1.429,0.205-2.177
			c0.541,0.858,0.249,1.521-0.218,2.161L234.612,79.173z"/>
		<path fill="#0A0707" d="M141.393,109.722c-0.117,0.088-0.103,0.379-0.244,0.401c-0.001,0.002-0.001,0.004,0,0.005
			c-0.05,0.158-0.074,0.397-0.103,0.673c-0.126,1.229-0.361,3.521-3.472,5.567c-0.018,0.007-0.075,0.035-0.152,0.068
			c-0.11,0.179-0.332,0.342-0.604,0.512c-1.851,1.149-3.955,1.606-6.042,1.979c-5.066,0.912-9.464,2.893-12.562,7.254
			c-3.161,4.445-3.174,9.159-1.238,14.571c0.214-1.773,1.063-1.492,2-1.299c0.872,0.084,2.002-0.033,3.014-0.391
			c0.1-0.1,0.217-0.189,0.375-0.24c2.791-0.908,5.14-2.496,7.07-4.916c1.11,3.466,2.949,6.191,5.867,8.08
			c1.299,0.839,2.724,1.336,4.606,1.3c-2.875-2.071-1.375-4.41-0.886-6.642c0.129-0.588,0.387-1.145,0.639-1.866
			c0.977,1.378,1.858,2.684,3.073,3.711c3.815,3.226,8.416,2.556,12.078,0.42c0.904-0.525,0.053-0.757-0.348-0.948
			c-1.718-0.816-3.234-1.818-3.911-3.755c-0.45-1.282-0.363-2.536-0.098-3.959c1.422,1.122,2.715,2.274,4.292,2.952
			c1.69,0.728,3.335,1.555,5.314,0.649c0.744-0.337,1.162,0.889,1.729,1.372c0.295,0.251,0.063,1.081-0.549,1.378
			c-0.401,0.196-0.811,0.372-1.305,0.597c0.65,0.895,1.513,1.162,2.446,0.872c2.026-0.63,3.435-1.995,4.129-4.028
			c0.23-0.672,0.144-1.373-0.153-2.049c-0.585-1.326-0.714-2.664-0.076-4.031c3.246-6.926,13.319-10.158,19.726-6.309
			c0.473,0.285,1.238,0.352,1.026,1.248c-0.187,0.777-0.754,0.996-1.435,1.102c-0.176,0.028-0.349,0.097-0.583,0.161
			c0.359,0.933,1.111,1.12,1.894,1.181c2.989,0.223,5.127-2.728,4.035-5.541c-0.383-0.988-0.537-1.989-0.521-2.975
			c-0.006-0.025-0.015-0.045-0.02-0.07c-0.812-3.034,1.869-7.012,2.87-8.377c-0.006-0.015,0.004-0.026,0.016-0.02
			c-0.007-0.01-0.014-0.02-0.022-0.029c0.047-0.042,0.098-0.08,0.148-0.119c0.139-0.16,0.321-0.336,0.543-0.527
			c2.959-3.494,6.72-5.574,11.184-6.541c4.153-0.902,8.079-0.104,11.987,1.234c0.505,0.176,0.47,0.492,0.52,0.847
			c0.069,0.488,0.069,0.952-0.536,1.108c-0.263,0.069-0.632,0.066-0.582,0.439c0.038,0.282,0.401,0.339,0.627,0.495
			c0.881,0.606,1.552,0.312,2.167-0.418c0.65-0.773,0.858-1.726,1.167-2.655c0.752-2.266,0.446-3.267-1.641-4.458
			c-0.682-0.388-1.186-0.894-1.514-1.581c-2.624-5.516-1.512-13.074,5.083-16.291c3.015-1.471,6.115-1.959,9.418-1.662
			c1.42,0.127,1.651,0.295,1.06,1.64c-0.314,0.712-0.22,0.851,0.555,0.879c1.51,0.056,2.04-0.993,2.391-2.108
			c0.36-1.152,0.669-2.432-0.681-3.249c-0.811-0.493-1.455-1.161-2.085-1.844c-4.543-4.91-6.125-10.836-4.884-17.247
			c1.552-8.018,3.742-15.871,12.304-19.504c0.538-0.229,1.092-0.805,1.647-0.518c0.613,0.318-0.199,0.907-0.015,1.385
			c0.03,0.08,0.1,0.146,0.172,0.251c1.606-0.495,2.337-1.749,2.652-3.275c0.15-0.726,0.136-1.741-0.661-1.969
			c-1.38-0.396-2.64-1.187-4.059-1.353c-0.747-0.09-1.46-0.186-2.133-0.508c-1.894-0.9-3.657-0.676-5.386,0.475
			c-2.298,1.529-4.289,3.429-6.232,5.354c-6.745,6.682-15.049,9.939-24.187,11.537c-7.508,1.313-15.134,1.74-22.603,3.329
			c-6.958,1.479-13.75,3.394-20.01,6.871c-8.574,4.768-13.902,11.828-15.035,21.823c-0.582,5.133-0.216,10.27-0.16,15.408
			C144.55,100.538,143.977,105.356,141.393,109.722z M234.817,76.996c0.537,0.852,0.253,1.509-0.207,2.145
			c0,0.013,0.001,0.021,0.001,0.032c-0.031,0.026-0.063,0.053-0.096,0.08c0.027-0.031,0.057-0.064,0.083-0.096
			c0.005-0.007,0.007-0.011,0.011-0.017C234.605,78.46,234.184,77.733,234.817,76.996z M242.248,34.077
			c0.02-0.217,0.213-0.412,0.473-0.424c0.473-0.021,0.892,0.087,1.193,0.502c0.294,0.407,0.043,0.785-0.042,1.318
			c-0.334-0.318-0.601-0.559-0.85-0.813C242.789,34.425,242.201,34.63,242.248,34.077z M116.917,134.03
			c-0.591-5.971,6.064-12.602,12.822-12.9C123.545,123.406,118.839,127.194,116.917,134.03z M158.151,132.645
			c-2.783-0.483-4.967-2.06-6.709-4.212c-0.747-0.928-1.001-0.855-1.582,0.118c-2.67,4.46-1.817,7.128,3.271,9.958
			c-5.28,1.834-9.667-0.324-11.574-5.672c-0.193-0.542-0.13-1.43-0.763-1.51c-0.565-0.066-0.902,0.715-1.271,1.18
			c-2.019,2.535-2.819,5.725-2.293,9.063c-5.193-1.885-6.487-8.226-5.589-12.398c-0.802-0.046-0.934,0.643-1.234,1.077
			c-2.396,3.479-5.372,6.167-9.577,7.195c-0.046,0.012-0.088,0.036-0.132,0.048c-1.059,0.287-2.398,0.483-3.093-0.108
			c-0.605-0.514,0.148-1.786,0.453-2.678c1.957-5.737,5.507-9.883,11.496-11.555c0.09-0.025,0.177-0.063,0.265-0.087
			c3.148-0.802,3.213-0.737,3.117,2.461c-0.028,0.917,0.068,1.833,0.113,2.872c0.716-0.229,0.687-0.709,0.801-1.132
			c0.703-2.544,2-4.715,4.081-6.36c0.358-0.283,0.773-0.523,1.202-0.684c0.749-0.283,1.131-0.172,1.185,0.836
			c0.153,2.793,0.454,5.577,0.698,8.363c0.835-1.097,0.836-2.361,1.036-3.563c0.379-2.256,0.774-4.505,1.425-6.699
			c0.212-0.712,0.456-1.425,0.78-2.094c0.252-0.525,0.468-1.301,1.132-1.295c0.827,0.01,0.677,0.908,0.783,1.432
			c0.521,2.612,0.957,5.242,1.448,7.859c0.088,0.469-0.095,1.053,0.755,1.547c-0.121-7.952,0.542-15.65,2.466-23.292
			c0.995,0.485,1.381,1.349,1.798,2.148c2.459,4.703,3.988,9.733,5.207,14.879c0.831,3.507,1.299,7.081,1.971,10.613
			C160.105,132.481,159.738,132.917,158.151,132.645z M164.229,135.292c-0.18,0.922-0.748,1.535-1.647,1.908
			c0.518-0.636,0.797-1.384,1.026-2.162c0.071-0.244,0.278-0.404,0.519-0.324C164.435,134.819,164.266,135.092,164.229,135.292z
			 M165.232,126.589c-1.912-6.339-4.251-12.216-6.726-18.041c-1.131-2.66-2.335-5.299-3.951-7.703
			c-2.235-3.33-3.018-6.974-2.628-10.926c0.17-1.717,0.133-3.453,0.766-5.568c10.761,10.624,20.869,21.494,29.543,33.855
			C174.779,117.103,169.16,119.825,165.232,126.589z M186.647,124.634c1.156-0.332,1.917-1.135,2.55-2.588
			C189.246,124.068,188.485,124.715,186.647,124.634z M207.396,98.869c-9.749,1.599-16.78,6.411-19.057,16.729
			c-0.346,0.086-0.433-0.254-0.604-0.443c-7.786-8.424-15.427-16.987-23.737-24.898c-2.903-2.762-5.996-5.322-8.97-8.007
			c-0.617-0.557-1.124-1.241-1.658-1.882c-0.182-0.216-0.317-0.529-0.165-0.773c0.167-0.262,0.516-0.176,0.772-0.114
			c0.947,0.226,1.893,0.457,2.828,0.728c10.808,3.153,21.597,6.39,32.175,10.271c6.186,2.27,12.089,5.243,18.102,7.947
			C207.245,98.502,207.44,98.54,207.396,98.869z M218.559,99.497c0.22,0.203,0.604,0.387,0.384,0.789
			c-0.182,0.33-0.544,0.371-0.864,0.292c-0.944-0.229-1.896-0.45-2.814-0.759c-5.25-1.764-10.209-4.217-15.167-6.647
			c-9.798-4.805-20.208-7.874-30.549-11.152c-5.34-1.695-10.682-3.394-16.309-4.397c0.735-0.536,1.407-0.223,2.058-0.081
			c11.475,2.468,22.667,5.948,33.787,9.683c9.233,3.102,18.412,6.363,27.151,10.745C217.073,98.39,217.872,98.856,218.559,99.497z
			 M215.646,96.319c-1.336-0.608-2.572-1.197-3.826-1.741c-15.024-6.523-30.591-11.436-46.331-15.828
			c-3.394-0.945-6.807-1.843-10.289-2.393c-1.142-0.181-1.094-0.886-1.126-1.685c-0.042-0.996,0.639-0.946,1.313-0.969
			c7.565-0.254,15.132-0.561,22.7-0.305c15.151,0.516,30.318,0.947,45.255,3.954c0.188,0.038,0.365,0.067,0.429,0.282
			C215.793,80.869,212.777,87.58,215.646,96.319z M230.353,44.153c-2.144,4.176-3.738,8.514-4.147,13.255
			c-0.503,5.871,0.788,11.216,4.362,15.963c-24.469-5.24-49.129-4.402-73.943-2.845c0.574-1.212,1.556-2.042,2.572-2.809
			c3.729-2.807,8.047-4.407,12.403-5.833c9.271-3.04,18.762-5.085,28.413-6.577c10.608-1.641,20.738-4.878,29.66-11.193
			c0.111-0.08,0.251-0.117,0.376-0.176c0.175-0.15,0.295-0.547,0.569-0.313C230.78,43.763,230.512,44.004,230.353,44.153z
			 M240.023,32.427c1-0.038,1.355,0.39,1.079,1.387c-0.588,2.118-2.446,3.198-4.505,2.264c-1.387-0.632-2.053-0.183-2.949,0.779
			c-4.674,5.035-9.897,9.424-16.189,12.209c-4.816,2.136-10.049,3.158-15.209,4.131c-9.114,1.717-18.31,3.061-27.211,5.772
			c-5.991,1.825-11.963,3.72-17.122,7.478c-1.484,1.084-2.713,2.387-3.336,4.199c-0.34,0.99,0.075,1.271,0.938,1.297
			c0.139,0.007,0.278-0.01,0.416-0.025c7.025-0.815,14.087-1.124,21.146-1.242c14.152-0.236,28.297-0.105,42.354,1.9
			c4.087,0.584,8.143,1.33,12.092,2.572c0.263,0.082,0.54,0.143,0.796,0.25c0.255,0.105,0.554,0.264,0.519,0.574
			c-0.042,0.373-0.419,0.287-0.667,0.314c-2.483,0.268-4.9-0.269-7.324-0.65c-7.874-1.234-15.707-2.798-23.679-3.256
			c-4.908-0.283-9.827-0.413-14.741-0.559c-4.87-0.141-9.744-0.293-14.615-0.301c-5.809-0.01-11.609,0.309-17.394,0.813
			c-1.459,0.127-2.583,2.464-1.999,4.275c0.188,0.58,0.239,0.885-0.272,1.283c-1.07,0.84-0.922,1.846-0.181,2.826
			c0.307,0.406,0.662,0.797,1.057,1.115c10.347,8.367,19.078,18.361,27.94,28.222c2.714,3.017,5.474,5.998,7.818,9.329
			c0.342,0.485,1.12,1.161,0.526,1.662c-0.644,0.542-1.507,0.089-2.092-0.534c-0.416-0.44-0.822-0.899-1.16-1.396
			c-6.686-9.824-14.723-18.443-23.228-26.657c-3.494-3.37-6.967-6.759-10.373-10.216c-0.908-0.92-1.25-0.523-1.485,0.358
			c-0.43,1.63-0.487,3.315-0.583,4.995c-0.142,2.432-0.159,4.871,0.054,7.287c0.185,2.125,1.292,3.977,2.387,5.773
			c5.445,8.955,8.546,18.813,11.051,28.902c0.223,0.898,0.328,1.85,0.187,2.788c-0.083,0.534-0.089,1.217-0.858,1.235
			c-0.701,0.016-0.766-0.664-0.861-1.109c-0.427-2.011-0.757-4.043-1.155-6.061c-1.881-9.511-5.468-18.404-9.63-27.093
			c-0.126-0.263-0.264-0.636-0.507-0.597c-0.463,0.072-0.573,0.552-0.703,0.953c-1.07,3.298-1.664,6.702-2.089,10.129
			c-0.347,2.807-0.54,5.634-0.848,8.448c-0.413-2.563-0.603-5.127-0.011-7.761c-1.771,1.635-3.193,3.461-4.242,5.593
			c-0.736,1.495-0.974,3.14-1.521,4.689c0.001,0.017,0.003,0.032,0.006,0.048c-0.007,0.008-0.015,0.018-0.02,0.024
			c-0.005,0.073-0.01,0.142-0.014,0.214c-0.04-0.018-0.078-0.037-0.118-0.058c0.046-0.053,0.088-0.104,0.132-0.156
			c0-0.011,0-0.024,0.002-0.036c0.003-0.011,0.007-0.023,0.011-0.036c-0.16-1.097-0.257-2.196-0.119-3.302
			c0.034-0.277,0.165-0.611-0.081-0.791c-0.313-0.228-0.595,0.045-0.862,0.223c-2.446,1.619-4.415,3.698-5.953,6.198
			c-0.142,0.229-0.272,0.462-0.541,0.913c0.056-1.35,0.494-2.326,0.91-3.293c0.295-0.682,0.142-0.805-0.557-0.725
			c-1.009,0.115-1.941,0.684-3.226,0.476c1.087-0.304,1.977-0.517,2.843-0.801c7.589-2.502,11.901-7.944,14.002-15.534
			c1.403-5.08,1.554-10.225,1.408-15.42c-0.104-3.834-0.207-7.673,0.486-11.461c1.183-6.479,5.034-10.98,10.537-14.24
			c5.006-2.966,10.463-4.732,16.055-6.135c6.676-1.676,13.481-2.603,20.295-3.521c7.455-1.003,14.865-2.324,21.666-5.801
			c4.711-2.406,8.769-5.756,12.668-9.298c2.001-1.817,4.035-3.591,6.387-4.944C238.325,32.877,239.103,32.458,240.023,32.427z
			 M146.335,96.905c0.156-5.094-0.261-10.185,0.132-15.275c0.741-9.604,5.546-16.543,13.667-21.305
			c6.067-3.557,12.699-5.586,19.507-7.129c7.305-1.653,14.773-2.262,22.119-3.629c6.253-1.162,12.454-2.557,18.046-5.813
			c3.844-2.24,7.213-5.066,10.187-8.395c1.454-1.623,2.937-3.27,5.11-3.984c0.259-0.084,0.51-0.232,0.909-0.044
			c-1.442,1.853-3.082,3.47-4.787,5.021c-5.949,5.412-12.527,9.744-20.322,12.002c-4.734,1.372-9.539,2.377-14.41,3.102
			c-9.867,1.461-19.731,2.956-29.146,6.473c-3.444,1.287-6.737,2.871-9.774,4.967c-6.57,4.537-9.529,11.008-9.804,18.846
			c-0.185,5.322-0.092,10.654-0.336,15.972c-0.217,4.712-1.215,9.259-4.055,13.188c-0.759,1.047-1.635,1.979-2.828,2.588
			C144.729,108.733,146.146,103.087,146.335,96.905z"/>
	</g>
	<path fill="#0A0707" d="M181.206,164.255l-0.013,0.102c-0.154,0.039-0.308,0.064-0.475,0.104
		C180.885,164.396,181.052,164.331,181.206,164.255z"/>
	<path d="M192.07,172.991l-0.095-0.309l-0.304-0.107c-0.683-0.242-1.891-0.278-2.55-0.278c-0.571,0-5.62,0.054-6.934,1.924
		c-0.148,0.212-0.241,0.71-0.178,1.003c-2.489-0.143-7.296,0.789-8.449,2.922c-0.26,0.48-0.343,0.979-0.251,1.477
		c-2.727,0.193-5.657,1.336-6.68,2.667c-0.183,0.238-0.294,0.464-0.358,0.674c-2.342,0.11-10.378,1.899-11.45,5.132
		c-0.584-0.116-1.631-0.225-3.562-0.225c-0.469,0-10.565-0.764-12.676,2.031c-2.1-1.566-8.024-2.256-11.063-2.256
		c-1.626,0-2.559,0.156-3.11,0.373c-1.629-2.099-7.294-5.588-10.595-5.588c-0.357,0-0.684,0.039-0.982,0.119
		c-1.093-2.811-6.251-6.887-8.573-7.003c-0.503-2.602-3.155-8.647-6.478-9.003c0.231-2.541-0.852-6.298-2.509-8.408
		c-0.571-0.729-1.168-1.202-1.818-1.416c0.448-2.176,0.38-6.666-0.983-9.07c-0.379-0.67-0.837-1.15-1.366-1.438
		c1.352-2.896,1.876-8.102,0.528-10.688c-0.395-0.756-0.882-1.162-1.346-1.373c0.953-2.672,2.519-8.43,1.304-10.311
		c-0.097-0.148-0.208-0.275-0.333-0.378l0.23-0.456c2.456-4.86,3.917-7.924,3.05-9.585c-0.104-0.198-0.27-0.426-0.533-0.614
		c2.01-2.525,5.694-7.908,4.944-9.892c-0.021-0.056-0.046-0.109-0.073-0.161c2.894-2.107,6.465-5.648,6.122-7.669
		c-0.032-0.19-0.115-0.458-0.322-0.705c2.62-2.155,8.22-7.081,7.739-9.437c-0.042-0.207-0.152-0.514-0.437-0.78
		c2.719-3.458,5.089-10.089,4.206-12.085c-0.117-0.264-0.291-0.467-0.505-0.598c0.453-2.444,1.313-9.112-0.003-10.775
		c-0.323-0.408-0.706-0.494-0.969-0.494l-3.525,0.338l-1.463,11.092c-1.112,0.967-6.356,5.79-5.537,10.175
		c-1.935,0.476-4.437,1.885-6.015,4.175c-1.171,1.698-1.615,3.606-1.298,5.551c-4.224,1.78-6.68,4.78-7.137,8.718
		c-1.418,0.589-5.973,2.962-5.431,8.982c-2.168,0.817-3.875,2.561-4.843,4.958c-1.048,2.596-1.107,5.723-0.196,7.879
		c-2.077,1.276-3.188,4.072-3.372,6.445c-0.188,2.403,0.502,4.451,1.861,5.611c-2.099,4.148-2.972,9.602,0.499,13.227
		c-2.117,5.453-2.925,9.086,2.308,12.359c-0.782,6.602,0.79,10.514,5.064,12.582c0.018,3.35,1.588,7.106,4.078,9.686
		c1.472,1.525,3.053,2.411,4.488,2.52c0.479,2.094,2.799,9.43,11.801,9.816c2.724,4.707,7.82,6.395,11.744,6.395
		c1.615,0,3.128-0.285,4.307-0.806c1.053,0.604,4.641,2.435,9.36,2.435c2.549,0,5.023-0.542,7.355-1.612
		c2.311,0.275,4.972,0.55,7.383,0.55c4.903,0,8.402-1.128,11.646-3.765c6.108,0.124,9.881-1.394,12.142-4.933
		c1.231-0.033,5.703-0.491,8.412-5.255l0.262-0.085c5.549-1.796,6.828-2.588,8.369-6.828
		C190.235,179.177,191.448,176.841,192.07,172.991z M112.321,61.722l2.325-0.245c0.753,0.57,0.482,6.438-0.256,9.931
		c-1.414,0.227-2.803,0.319-3.376,0.229L112.321,61.722z M110.37,72.781c0.297,0.104,0.735,0.179,1.395,0.179
		c0.754,0,1.798-0.098,3.245-0.355c0.629,0.998-1.388,7.666-4.296,11.068c-1.763-0.172-4.436-0.733-5.154-1.663
		C104.434,78.467,109.033,73.987,110.37,72.781z M99.222,86.72c1.401-2.033,3.758-3.354,5.51-3.701
		c1.506,1.51,5.39,1.898,6.125,1.959c0.264,0.084,0.293,0.184,0.301,0.223c0.229,1.122-3.172,4.865-7.775,8.578
		c-2.443-0.263-5.001-1.049-5.131-1.873l-0.027-0.115C97.803,89.998,98.139,88.292,99.222,86.72z M97.254,92.792
		c1.134,1.691,5.156,2.186,6.194,2.287c0.254,0.074,0.277,0.17,0.287,0.223c0.181,1.062-2.603,4.365-6.134,6.779
		c-3.286-0.059-6.339-0.715-6.614-1.42C91.312,97.08,93.428,94.441,97.254,92.792z M90.036,101.517
		c1.331,1.631,6.074,1.832,7.711,1.851c0.438,0.755-2.085,5.476-5.083,9.058c-1.659-0.063-5.371-0.465-6.637-1.791
		c-0.221-0.232-0.319-0.475-0.354-0.736l-0.041-0.3C84.904,104.216,88.667,102.103,90.036,101.517z M80.647,114.681
		c0.574-1.422,1.708-3.215,3.853-4.124c0.122,0.345,0.317,0.668,0.599,0.963c1.907,1.997,7.004,2.183,7.787,2.199
		c0.345,0.054,0.458,0.187,0.516,0.297c0.607,1.161-1.34,5.014-3.057,8.412l-0.371,0.737c-4.427,0.273-8.483-0.119-9.165-0.873
		l-0.14-0.248C79.661,120.245,79.651,117.148,80.647,114.681z M77.167,128.624c0.187-2.383,1.302-4.52,2.771-5.436
		c1.215,1.102,4.426,1.355,7.097,1.355c1.371,0,2.589-0.066,3.328-0.116c0.043,0.002,0.087,0.011,0.151,0.109
		c0.721,1.116-0.231,6.021-1.539,9.466c-3.4,0.436-8.135,0.605-9.586-0.214l0.033-0.061l-0.505-0.321
		C77.652,132.603,76.998,130.813,77.167,128.624z M78.806,134.901c1.107,0.574,2.949,0.758,4.824,0.758
		c2.456,0,4.933-0.304,5.822-0.424c0.202,0.019,0.646,0.117,1.044,0.883c1.106,2.12,0.703,7.275-0.733,9.898
		c-4.113,1.109-8.844,1.74-10.055,0.973l-0.267-0.252C76.176,143.654,76.924,138.724,78.806,134.901z M79.314,148.171
		c0.661,0.293,1.547,0.424,2.566,0.424c3.028,0,6.995-1.005,8.308-1.362c0.439,0.113,0.833,0.46,1.168,1.05
		c1.229,2.167,1.265,6.703,0.787,8.434c-4.534,1.436-9.749,2.621-10.532,2.146l-0.04-0.024
		C76.989,156.126,77.208,153.668,79.314,148.171z M81.815,160.184c0.16,0.015,0.328,0.023,0.512,0.023
		c2.848,0,8.378-1.683,10.419-2.336c0.451,0.01,0.989,0.382,1.519,1.057c1.532,1.952,2.559,5.757,2.172,7.894
		c-4.122,2.483-8.986,4.855-9.851,4.514l-0.057-0.025C82.581,169.565,81.167,166.197,81.815,160.184z M90.623,181.099
		c-2.2-2.28-3.596-5.551-3.695-8.51c2.508-0.195,7.792-3.225,10.307-4.749c2.577-0.424,5.583,6.126,5.808,8.209
		c-3.048,3.331-6.749,6.763-7.979,7.151l-0.397,0.03C93.486,183.323,92.004,182.531,90.623,181.099z M95.462,184.363
		c2.314-0.849,6.586-5.319,8.6-7.527c0.027-0.005,0.056-0.009,0.099-0.009c1.971,0,7.228,4.567,7.566,6.512
		c-2.164,4.349-4.731,9.017-5.493,9.704C98.005,192.786,95.912,186.356,95.462,184.363z M107.214,193.817
		c0.82-0.891,2.388-3.32,5.657-9.9c0.243-0.127,0.549-0.204,0.944-0.204c3.302,0,9.139,4.085,9.729,5.304
		c-0.661,4.196-1.531,8.772-1.924,9.668c-1.028,0.48-2.394,0.752-3.888,0.752C114.215,199.437,109.688,197.93,107.214,193.817z
		 M122.883,198.913c0.662-1.941,1.52-7.095,1.924-9.667c0.191-0.093,0.837-0.317,2.714-0.317c4.324,0,9.778,1.146,10.496,2.18
		c0.083,2.059,0.226,6.88,0.052,8.516c-2.121,0.947-4.361,1.441-6.669,1.441C127.291,201.065,124.042,199.538,122.883,198.913z
		 M139.362,199.513c0.18-2.27-0.03-7.636-0.069-8.559c0.434-0.818,5.836-1.801,11.966-1.801c2.024,0,3.046,0.129,3.445,0.229
		c0.779,2.376,1.903,5.974,2.161,7.217c-2.968,2.374-6.199,3.403-10.728,3.403C143.943,200.003,141.527,199.766,139.362,199.513z
		 M158.095,196.229c-0.411-1.852-1.886-6.377-2.218-7.389c0.083-0.43,1.259-1.508,4.258-2.788c2.378-1.015,5.138-1.81,6.284-1.812
		c0.754,1.82,2.305,5.84,2.481,7.541C166.944,194.919,163.551,196.279,158.095,196.229z M170.133,191.294
		c-0.414-2.454-2.382-7.197-2.642-7.816c-0.027-0.129,0.066-0.291,0.155-0.406c0.788-1.025,3.667-2.169,6.375-2.191
		c0.537,0.458,2.414,2.293,3.189,5.822C174.978,190.618,171.437,191.214,170.133,191.294z M178.345,185.983
		c-0.973-3.842-3.1-5.771-3.6-6.172c-0.223-0.375-0.246-0.705-0.057-1.056c0.754-1.396,4.367-2.591,6.795-2.591
		c0.352,0,0.649,0.03,0.881,0.084c0.341,0.189,2.456,1.447,3.344,3.811C185.428,183.652,183.738,184.237,178.345,185.983z
		 M186.696,179.13c-1.017-2.221-2.846-3.49-3.538-3.901c-0.002-0.095,0.017-0.183,0.079-0.271c0.552-0.785,3.082-1.379,5.884-1.379
		c0.829,0,1.434,0.059,1.804,0.127C191.303,175.841,189.152,178.122,186.696,179.13z"/>
	<g>
		<path fill="#FC0101" d="M94.28,158.955c-0.53-0.675-1.068-1.046-1.519-1.056c-2.041,0.652-7.571,2.336-10.419,2.336
			c-0.183,0-0.352-0.01-0.512-0.024c-0.649,6.014,0.766,9.382,4.714,11.127l0.057,0.024c0.865,0.342,5.729-2.03,9.851-4.514
			C96.839,164.712,95.813,160.907,94.28,158.955z"/>
		<path fill="#FC0101" d="M79.723,147.017c1.211,0.768,5.942,0.137,10.055-0.972c1.437-2.624,1.84-7.778,0.734-9.899
			c-0.399-0.766-0.843-0.863-1.044-0.883c-0.889,0.12-3.367,0.425-5.822,0.425c-1.875,0-3.717-0.185-4.824-0.759
			c-1.881,3.822-2.629,8.753,0.636,11.836L79.723,147.017z"/>
		<path fill="#FC0101" d="M78.934,133.435l0.505,0.322l-0.032,0.061c1.45,0.818,6.185,0.648,9.585,0.213
			c1.308-3.445,2.26-8.349,1.539-9.465c-0.064-0.099-0.109-0.107-0.151-0.11c-0.739,0.05-1.958,0.116-3.328,0.116
			c-2.671,0-5.882-0.254-7.097-1.355c-1.47,0.916-2.585,3.053-2.771,5.436C77.013,130.841,77.667,132.63,78.934,133.435z"/>
		<path fill="#FC0101" d="M80.824,122.319c0.682,0.754,4.737,1.147,9.164,0.873l0.372-0.736c1.717-3.399,3.664-7.252,3.057-8.412
			c-0.058-0.111-0.171-0.244-0.516-0.297c-0.781-0.018-5.879-0.203-7.786-2.199c-0.281-0.296-0.477-0.619-0.599-0.965
			c-2.145,0.91-3.279,2.704-3.853,4.125c-0.996,2.469-0.986,5.564,0.022,7.363L80.824,122.319z"/>
		<path fill="#FC0101" d="M98.268,91.933c0.13,0.825,2.688,1.611,5.131,1.873c4.603-3.712,8.004-7.456,7.775-8.577
			c-0.007-0.039-0.037-0.14-0.301-0.224c-0.735-0.061-4.618-0.449-6.125-1.959c-1.752,0.348-4.108,1.668-5.51,3.701
			c-1.084,1.572-1.419,3.277-0.998,5.07L98.268,91.933z"/>
		<path fill="#FC0101" d="M85.688,109.925c0.035,0.262,0.134,0.505,0.354,0.736c1.266,1.326,4.978,1.729,6.637,1.791
			c2.999-3.582,5.521-8.303,5.084-9.058c-1.638-0.019-6.381-0.22-7.712-1.851c-1.368,0.586-5.131,2.699-4.404,8.08L85.688,109.925z"
			/>
		<path fill="#FC0101" d="M114.29,71.286c0.738-3.492,1.009-9.359,0.255-9.93l-2.324,0.246l-1.308,9.913
			C111.486,71.606,112.875,71.513,114.29,71.286z"/>
		<path fill="#FC0101" d="M110.615,83.552c2.907-3.402,4.924-10.07,4.295-11.066c-1.447,0.257-2.491,0.354-3.246,0.354
			c-0.659,0-1.098-0.074-1.395-0.179c-1.337,1.206-5.937,5.686-4.81,9.229C106.178,82.819,108.851,83.38,110.615,83.552z"/>
		<path fill="#FC0101" d="M97.616,102.108c3.531-2.414,6.314-5.717,6.134-6.779c-0.009-0.053-0.032-0.148-0.287-0.223
			c-1.038-0.101-5.06-0.595-6.193-2.287c-3.826,1.65-5.942,4.288-6.268,7.869C91.277,101.394,94.331,102.051,97.616,102.108z"/>
		<path fill="#FC0101" d="M103.057,176.077c-0.224-2.084-3.23-8.633-5.807-8.209c-2.514,1.523-7.798,4.554-10.307,4.748
			c0.099,2.959,1.495,6.23,3.695,8.511c1.381,1.432,2.864,2.224,4.043,2.131l0.397-0.029
			C96.309,182.839,100.01,179.407,103.057,176.077z"/>
		<path fill="#FC0101" d="M92.159,156.743c0.478-1.73,0.442-6.266-0.787-8.433c-0.335-0.592-0.729-0.937-1.168-1.051
			c-1.313,0.356-5.28,1.363-8.308,1.363c-1.019,0-1.905-0.132-2.566-0.425c-2.106,5.498-2.326,7.955,2.258,10.668l0.04,0.023
			C82.411,159.363,87.625,158.179,92.159,156.743z"/>
		<path fill="#FC0101" d="M174.037,180.907c-2.707,0.023-5.587,1.165-6.375,2.191c-0.089,0.114-0.182,0.277-0.155,0.407
			c0.259,0.618,2.228,5.362,2.642,7.816c1.303-0.081,4.844-0.678,7.077-4.592C176.452,183.2,174.574,181.366,174.037,180.907z"/>
		<path fill="#FC0101" d="M104.177,176.854c-0.043,0-0.072,0.004-0.1,0.009c-2.013,2.208-6.285,6.679-8.599,7.528
			c0.45,1.992,2.542,8.422,10.772,8.678c0.762-0.686,3.33-5.354,5.493-9.703C111.404,181.422,106.147,176.854,104.177,176.854z"/>
		<path fill="#FC0101" d="M182.379,176.276c-0.231-0.053-0.528-0.084-0.88-0.084c-2.429,0-6.042,1.195-6.795,2.591
			c-0.189,0.351-0.166,0.681,0.057,1.057c0.5,0.399,2.627,2.33,3.6,6.171c5.394-1.746,7.083-2.33,7.364-5.924
			C184.836,177.724,182.721,176.466,182.379,176.276z"/>
		<path fill="#FC0101" d="M189.137,173.606c-2.802,0-5.332,0.594-5.885,1.379c-0.062,0.088-0.081,0.177-0.079,0.271
			c0.692,0.411,2.521,1.681,3.538,3.902c2.457-1.009,4.607-3.29,4.229-5.425C190.571,173.665,189.966,173.606,189.137,173.606z"/>
		<path fill="#FC0101" d="M127.536,188.956c-1.876,0-2.523,0.225-2.714,0.318c-0.404,2.571-1.262,7.725-1.923,9.665
			c1.158,0.626,4.407,2.154,8.515,2.154c2.309,0,4.549-0.495,6.669-1.442c0.174-1.636,0.032-6.457-0.051-8.516
			C137.314,190.103,131.86,188.956,127.536,188.956z"/>
		<path fill="#FC0101" d="M159.718,185.786c-2.999,1.279-3.742,2.652-3.825,3.082c0.332,1.012,1.807,5.538,2.217,7.389
			c5.457,0.051,8.849-1.311,10.806-4.446c-0.177-1.702-1.727-5.722-2.481-7.541C165.288,184.271,162.096,184.771,159.718,185.786z"
			/>
		<path fill="#FC0101" d="M151.275,189.181c-6.13,0-11.532,0.982-11.966,1.801c0.038,0.924,0.248,6.288,0.068,8.56
			c2.165,0.253,4.582,0.49,6.775,0.49c4.529,0,7.76-1.03,10.729-3.403c-0.258-1.243-1.383-4.841-2.161-7.218
			C154.321,189.31,153.3,189.181,151.275,189.181z"/>
		<path fill="#FC0101" d="M113.831,183.741c-0.395,0-0.702,0.076-0.944,0.204c-3.269,6.579-4.836,9.009-5.657,9.9
			c2.474,4.112,7.002,5.618,10.519,5.618c1.494,0,2.859-0.271,3.888-0.752c0.394-0.895,1.264-5.471,1.924-9.668
			C122.97,187.825,117.133,183.741,113.831,183.741z"/>
	</g>
	<g>
		<path fill-rule="evenodd" clip-rule="evenodd" fill="#FC0101" d="M79.651,193.521c0.729-1.107,0.122-1.822-0.608-2.521
			c-0.182-0.183-0.592-0.41-0.273-0.745c0.318-0.363,0.516,0.092,0.745,0.229c0.621,0.365,0.896,0.988,1.108,1.656
			c0.53-1.033-0.122-1.732-0.547-2.491c-0.182-0.304-0.683-0.517-0.182-0.94c0.44-0.412,0.698-0.137,1.032,0.195
			C82.916,190.939,82.46,192.747,79.651,193.521z"/>
		<path fill-rule="evenodd" clip-rule="evenodd" fill="#FC0101" d="M42.37,175.48c0.561,0.121,1.033-0.426,1.564-0.198
			c0.227,0.105,0.607,0.122,0.455,0.518c-0.106,0.287-0.212,0.637-0.652,0.425c-0.927-0.425-1.55-0.062-2.051,0.729l-0.03,0.014
			c-0.289-1.822,0.653-3.355,2.156-3.462c0.395-0.03,0.911-0.167,0.957,0.516c0.046,0.653-0.441,0.472-0.79,0.517
			C43.083,174.659,42.931,174.751,42.37,175.48z"/>
		<path fill-rule="evenodd" clip-rule="evenodd" fill="#FC0101" d="M47.001,165.214c-0.227,0.38-0.485,0.242-0.775,0.092
			c-0.683-0.379-1.396-0.608-2.247-0.197c0.472,0.455,1.108,0.242,1.488,0.652c0.213,0.213,0.591,0.334,0.243,0.714
			c-0.243,0.274-0.546,0.319-0.79,0.03c-0.546-0.637-1.246-0.88-2.201-0.789c1.198-1.534,2.657-1.93,3.917-1.17
			C46.895,164.697,47.245,164.805,47.001,165.214z"/>
		<path fill-rule="evenodd" clip-rule="evenodd" fill="#FC0101" d="M54.29,158.821c-0.333,0.547-0.667-0.182-1.017-0.273
			c-0.425-0.106-0.774-0.563-1.291-0.289c0.228,0.441,0.759,0.426,1.017,0.775c0.137,0.197,0.441,0.439,0.183,0.697
			c-0.259,0.26-0.563,0.198-0.774-0.137c-0.41-0.637-0.942-1.122-1.808-1.184c0.592-0.517,1.2-0.851,1.883-1.018
			c0.426-0.121,0.867-0.152,1.231,0.137C54.123,157.864,54.549,158.381,54.29,158.821z"/>
		<path fill-rule="evenodd" clip-rule="evenodd" fill="#FC0101" d="M41.716,177.227c-0.016,0.03-0.061,0.03-0.091,0.046
			c0.016-0.107,0.031-0.213,0.031-0.305l0.03-0.014C41.823,177.029,41.792,177.136,41.716,177.227z"/>
		<path fill="#0A0707" d="M121.124,151.79c-0.197-0.015-0.379,0-0.563,0.029c-0.166,0.016-0.333,0.047-0.485,0.092
			c-0.107,0.016-0.198,0.031-0.289,0.061c-0.121,0.03-0.243,0.076-0.364,0.105c-3.583,1.033-6.332,3.358-8.914,5.908
			c-1.108,1.078-2.081,2.294-2.977,3.569c-1.442,2.034-2.125,4.313-1.958,6.789c0.197,2.854-1.336,4.661-3.463,6.165
			c-0.85,0.592-1.807,0.773-2.854,0.621c1.7-2.186,1.534-3.979-0.654-5.725c-2.732-2.201-5.981-2.748-9.369-2.703
			c-0.091,0.592,0.318,0.518,0.578,0.622c0.986,0.381,1.093,0.776,0.272,1.535c-0.896,0.819-1.974,1.366-3.083,1.852
			c-3.962,1.778-7.957,3.509-11.631,5.877c-1.413,0.913-2.75,1.884-3.386,3.554c-0.623,1.671-0.32,2.491,1.214,3.357
			c1.382,0.789,2.916,1.031,4.419,1.427c0.972,0.272,1.899,0.668,2.521,1.55c0.319,0.439,0.35,0.713-0.212,1.092
			c-1.168,0.76-2.354,1.55-2.566,3.129c-0.061,0.501-0.41,0.318-0.699,0.229c-0.774-0.26-1.29-0.836-1.807-1.412
			c-1.382-1.58-2.734-3.189-4.768-3.995c-1.929-0.744-3.934-1.139-5.968-1.474c-2.674-0.455-5.149-1.428-7.487-2.779
			c-0.272-0.15-0.759-0.242-0.699-0.652c0.046-0.35,0.532-0.395,0.835-0.531c0.303-0.136,0.653-0.183,1.032-0.288
			c-0.075-0.53-0.562-0.622-0.911-0.729c-1.412-0.424-2.839-0.804-4.267-1.169c-1.488-0.394-2.916-0.138-4.328,0.409
			c-1.062,0.426-2.05,0.26-2.946-0.439c-0.5-0.381-0.699-0.805-0.273-1.382c0.698-0.942,0.834-2.05,0.926-3.19
			c0.09-1.168,0.365-1.26,1.352-0.605c2.308,1.578,4.875,2.322,7.684,2.247c0.213,0,0.472,0.061,0.729-0.411
			c-2.156,0.062-2.84-1.686-3.917-2.977c-0.805-0.955-2.02-1.077-3.144-1.335c-1.094-0.259-2.05-0.714-2.749-1.61
			c-0.349-0.44-0.349-0.774,0.153-1.154c0.926-0.729,2.019-1.307,2.383-2.581c0.092-0.304,0.532-0.289,0.835-0.197
			c0.744,0.243,1.428,0.577,1.837,1.32c1.169,2.081,2.399,4.085,4.708,5.118c0.44,0.197,0.759,0.668,1.139,0.987
			c0.243,0.196,0.471,0.698,0.82,0.272c0.334-0.395-0.153-0.592-0.395-0.805c-0.395-0.38-0.805-0.713-1.199-1.093
			c-0.653-0.622-1.2-1.322-1.595-2.125c-0.622-1.261-0.911-2.644-1.96-3.768c-0.682-0.743-0.638-2.034-0.348-3.128
			c0.121-0.44,0.348-0.76,0.805-0.926c0.365-0.123,0.714-0.304,1.034-0.518c1.017-0.668,1.73-0.668,2.459,0.244
			c1.079,1.351,1.488,2.885,0.79,4.556c-0.137,0.349-0.183,0.622-0.091,0.987c0.425,1.579,0.805,3.158,1.245,4.737
			c0.41,1.458,1.093,2.688,2.551,3.417c0.546,0.273,0.911,0.228,1.382,0.091c5.026-1.472,9.264-4.313,13.272-7.548
			c3.523-2.869,6.773-6.014,9.673-9.52c1.277-1.551,2.097-3.373,2.87-5.18c1.549-3.645,3.189-7.259,5.27-10.631
			c0.79-1.305,1.669-2.535,2.703-3.598c0.198-0.229,0.41-0.441,0.638-0.624c0.06-0.076,0.123-0.137,0.197-0.183
			c0.168-0.166,0.366-0.318,0.547-0.454c0.122-0.106,0.243-0.198,0.364-0.288c0.273-0.199,0.547-0.396,0.851-0.563
			c0.304-0.197,0.624-0.38,0.957-0.53c0.015-0.031,0.031-0.031,0.046-0.031c-0.152-0.061-0.081-0.424-0.248-0.484
			c0.654-0.455,1.098-0.807,1.887-1.383c0.866-0.669,1.807-1.367,2.794-1.975c0.501-0.318,1.003-0.607,1.519-0.865
			c0.485-0.289,1.017-0.502,1.518-0.744c1.019-0.41,1.989-0.729,2.841-0.973c0.424-0.091,0.834-0.166,1.183-0.243
			c0.35-0.091,0.668-0.091,0.927-0.12c0.517-0.062,0.805-0.107,0.805-0.107v-0.137c0,0-0.304-0.016-0.819-0.016
			c-0.274,0-0.593-0.029-0.957,0c-0.365,0.031-0.79,0.061-1.246,0.107c-0.44,0.076-0.927,0.152-1.442,0.242
			c-0.517,0.122-1.047,0.273-1.594,0.426c-0.547,0.197-1.124,0.363-1.67,0.607c-0.548,0.228-1.109,0.485-1.656,0.76
			c-0.607,0.318-1.199,0.637-1.761,0.986c0.076-0.486,0.197-1.063,0.364-1.73c0.243-0.941,0.546-2.066,0.972-3.221
			c0.395-1.169,0.942-2.368,1.55-3.537c0.333-0.563,0.622-1.155,1.001-1.686c0.38-0.517,0.714-1.078,1.139-1.52
			c0.396-0.471,0.775-0.941,1.2-1.32c0.411-0.38,0.774-0.79,1.186-1.063c0.41-0.304,0.773-0.577,1.092-0.82
			c0.35-0.197,0.668-0.38,0.911-0.517c0.516-0.289,0.82-0.455,0.82-0.455l-0.06-0.137c0,0-0.319,0.121-0.865,0.349
			c-0.274,0.121-0.607,0.273-0.987,0.427c-0.364,0.212-0.774,0.455-1.214,0.713c-0.471,0.243-0.882,0.623-1.367,0.972
			c-0.486,0.349-0.912,0.805-1.383,1.262c-0.471,0.439-0.865,0.985-1.319,1.502c-0.441,0.517-0.791,1.124-1.201,1.687
			c-0.714,1.185-1.352,2.414-1.853,3.629c-0.516,1.185-0.85,2.354-1.138,3.356c-0.486,1.747-0.639,3.065-0.685,3.356
			c-0.343,0.25-2.865,1.661-4.993,3.832c-2.388,2.436-4.422,5.714-5.12,7.167c-0.881,2.674-4.116,12.69-6.803,12.902h-0.305
			c-0.122,0.167-0.243,0.351-0.425,0.517c-0.866,0.867-1.458,1.989-2.217,2.977c-4.511,5.771-9.514,8.674-16.58,12.148
			c-0.789,0.389-1.902,0.699-2.524,0.183c-0.638-0.53-1.078-1.23-1.382-1.989c-0.866-2.096-1.473-4.236-1.093-6.56
			c0.364-2.157-0.396-3.798-2.339-4.845c-0.274-0.151-0.532-0.273-0.729-0.547c-1.656-2.217-5.012-1.746-6.211,0.835
			c-0.197,0.44-0.349,0.698,0.411,0.593c1.092-0.182,1.731,0.699,1.26,1.7c-0.364,0.745-0.424,1.534-0.349,2.415
			c-0.851-0.243-1.67-0.471-2.46-0.228c-0.774,0.228-1.488,0.167-2.277,0.015c-3.234-0.623-4.89,2.809-4.617,4.86
			c0.03,0.228,0.046,0.561,0.456,0.591c0.031-0.09,0.106-0.197,0.091-0.287c-0.029-0.79,0.046-1.595,1.048-1.625
			c0.941-0.031,1.442,0.516,1.503,1.533c0.047,0.653,0.365,1.26,0.699,1.822c0.608,1.033,0.09,2.064-1.124,2.264
			c-3.174,0.516-4.464,3.311-2.885,6.225c0.212,0.381,0.441,0.836,0.91,0.79c0.562-0.062,0.259-0.622,0.35-0.957
			c0.136-0.424,0.121-0.972,0.653-1.153c0.577-0.182,0.805,0.318,1.109,0.652c1.352,1.488,2.946,2.233,4.981,1.549
			c0.88-0.287,1.792-0.547,2.703-0.729c1.003-0.197,2.278,0.457,2.263,1.291c-0.016,1.245,0.79,1.701,1.61,2.188
			c2.657,1.609,5.588,2.429,8.641,2.93c2.733,0.441,5.436,0.973,7.608,2.871c0.941,0.805,1.776,1.7,2.566,2.672
			c0.775,0.957,1.67,1.61,3.007,1.14c0.517-0.167,0.88,0.136,1.168,0.546c0.288,0.426,0,0.729-0.228,1.048
			c-0.121,0.183-0.334,0.304-0.485,0.486c-0.138,0.151-0.502,0.182-0.411,0.472c0.122,0.349,0.441,0.228,0.699,0.211
			c1.23-0.076,2.369-0.455,3.387-1.123c0.774-0.5,1.351-1.169,1.503-2.111c0.318-2.064-2.734-6.863-4.738-7.441
			c-0.379-0.105-0.759-0.166-1.124-0.271c-1.003-0.29-2.004-0.594-3.006-0.896c-1.002-0.305-1.292-0.896-1.002-1.959
			c0.439-1.609,1.716-2.43,2.946-3.295c5.103-3.601,10.979-5.514,16.75-7.731c1.747-0.667,2.961-0.318,4.298,0.79
			c2.065,1.732,1.913,3.327-0.517,4.525c-0.485,0.229-1.138,0.152-1.563,0.805c2.262,0.594,4.45,0.623,6.575-0.074
			c2.34-0.76,4.283-2.279,4.769-4.662c0.137-0.653,0.319-1.201,0.562-1.656c-0.015-0.061-0.015-0.107-0.031-0.166
			c-1.017-6.896,3.437-8.768,4.621-9.283c2.537-5.271,4.249-5.722,5.493-5.813c0.106-0.016,0.198-0.016,0.289-0.031
			c0,0,0.425-0.09,1.063-0.333c0.062-0.03,0.122-0.076,0.182-0.106c0.942-0.82,2.141-1.199,3.417-1.853
			C121.807,151.88,121.457,151.79,121.124,151.79z M50.6,158.411c0.592-0.517,1.2-0.851,1.883-1.018
			c0.426-0.121,0.867-0.152,1.231,0.137c0.41,0.334,0.836,0.851,0.576,1.291c-0.333,0.547-0.667-0.182-1.017-0.273
			c-0.425-0.106-0.774-0.563-1.291-0.289c0.228,0.441,0.759,0.426,1.017,0.775c0.137,0.197,0.441,0.439,0.183,0.697
			c-0.259,0.26-0.563,0.198-0.774-0.137C51.998,158.958,51.466,158.473,50.6,158.411z M44.92,166.505
			c-0.546-0.637-1.246-0.88-2.201-0.789c1.198-1.534,2.657-1.93,3.917-1.17c0.258,0.151,0.608,0.259,0.364,0.668
			c-0.227,0.38-0.485,0.242-0.775,0.092c-0.683-0.379-1.396-0.608-2.247-0.197c0.472,0.455,1.108,0.242,1.488,0.652
			c0.213,0.213,0.591,0.334,0.243,0.714C45.467,166.749,45.164,166.794,44.92,166.505z M43.979,174.538
			c-0.896,0.121-1.048,0.213-1.609,0.942c0.561,0.121,1.033-0.426,1.564-0.198c0.227,0.105,0.607,0.122,0.455,0.518
			c-0.106,0.287-0.212,0.637-0.652,0.425c-0.927-0.425-1.55-0.062-2.051,0.729c0.137,0.075,0.107,0.182,0.031,0.272
			c-0.016,0.03-0.061,0.03-0.091,0.046c0.016-0.107,0.031-0.213,0.031-0.305c-0.289-1.822,0.653-3.355,2.156-3.462
			c0.395-0.03,0.911-0.167,0.957,0.516C44.814,174.675,44.328,174.493,43.979,174.538z M79.651,193.521
			c0.729-1.107,0.122-1.822-0.608-2.521c-0.182-0.183-0.592-0.41-0.273-0.745c0.318-0.363,0.516,0.092,0.745,0.229
			c0.621,0.365,0.896,0.988,1.108,1.656c0.53-1.033-0.122-1.732-0.547-2.491c-0.182-0.304-0.683-0.517-0.182-0.94
			c0.44-0.412,0.698-0.137,1.032,0.195C82.916,190.939,82.46,192.747,79.651,193.521z"/>
		<path fill-rule="evenodd" clip-rule="evenodd" fill="#FC0101" d="M121.124,151.79c-0.197-0.015-0.379,0-0.563,0.029
			c-0.166,0.016-0.333,0.047-0.485,0.092c-0.107,0.016-0.198,0.031-0.289,0.061c-0.121,0.03-0.243,0.076-0.364,0.105
			c-3.583,1.033-6.332,3.358-8.914,5.908c-1.108,1.078-2.081,2.294-2.977,3.569c-1.442,2.034-2.125,4.313-1.958,6.789
			c0.197,2.854-1.336,4.661-3.463,6.165c-0.85,0.592-1.807,0.773-2.854,0.621c1.7-2.186,1.534-3.979-0.654-5.725
			c-2.732-2.201-5.981-2.748-9.369-2.703c-0.091,0.592,0.318,0.518,0.578,0.622c0.986,0.381,1.093,0.776,0.272,1.535
			c-0.896,0.819-1.974,1.366-3.083,1.852c-3.962,1.778-7.957,3.509-11.631,5.877c-1.413,0.913-2.75,1.884-3.386,3.554
			c-0.623,1.671-0.32,2.491,1.214,3.357c1.382,0.789,2.916,1.031,4.419,1.427c0.972,0.272,1.899,0.668,2.521,1.55
			c0.319,0.439,0.35,0.713-0.212,1.092c-1.168,0.76-2.354,1.55-2.566,3.129c-0.061,0.501-0.41,0.318-0.699,0.229
			c-0.774-0.26-1.29-0.836-1.807-1.412c-1.382-1.58-2.734-3.189-4.768-3.995c-1.929-0.744-3.934-1.139-5.968-1.474
			c-2.674-0.455-5.149-1.428-7.487-2.779c-0.272-0.15-0.759-0.242-0.699-0.652c0.046-0.35,0.532-0.395,0.835-0.531
			c0.303-0.136,0.653-0.183,1.032-0.288c-0.075-0.53-0.562-0.622-0.911-0.729c-1.412-0.424-2.839-0.804-4.267-1.169
			c-1.488-0.394-2.916-0.138-4.328,0.409c-1.062,0.426-2.05,0.26-2.946-0.439c-0.5-0.381-0.699-0.805-0.273-1.382
			c0.698-0.942,0.834-2.05,0.926-3.19c0.09-1.168,0.365-1.26,1.352-0.605c2.308,1.578,4.875,2.322,7.684,2.247
			c0.213,0,0.472,0.061,0.729-0.411c-2.156,0.062-2.84-1.686-3.917-2.977c-0.805-0.955-2.02-1.077-3.144-1.335
			c-1.094-0.259-2.05-0.714-2.749-1.61c-0.349-0.44-0.349-0.774,0.153-1.154c0.926-0.729,2.019-1.307,2.383-2.581
			c0.092-0.304,0.532-0.289,0.835-0.197c0.744,0.243,1.428,0.577,1.837,1.32c1.169,2.081,2.399,4.085,4.708,5.118
			c0.44,0.197,0.759,0.668,1.139,0.987c0.243,0.196,0.471,0.698,0.82,0.272c0.334-0.395-0.153-0.592-0.395-0.805
			c-0.395-0.38-0.805-0.713-1.199-1.093c-0.653-0.622-1.2-1.322-1.595-2.125c-0.622-1.261-0.911-2.644-1.96-3.768
			c-0.682-0.743-0.638-2.034-0.348-3.128c0.121-0.44,0.348-0.76,0.805-0.926c0.365-0.123,0.714-0.304,1.034-0.518
			c1.017-0.668,1.73-0.668,2.459,0.244c1.079,1.351,1.488,2.885,0.79,4.556c-0.137,0.349-0.183,0.622-0.091,0.987
			c0.425,1.579,0.805,3.158,1.245,4.737c0.41,1.458,1.093,2.688,2.551,3.417c0.546,0.273,0.911,0.228,1.382,0.091
			c5.026-1.472,9.264-4.313,13.272-7.548c3.523-2.869,6.773-6.014,9.673-9.52c1.277-1.551,2.097-3.373,2.87-5.18
			c1.549-3.645,3.189-7.259,5.27-10.631c0.79-1.305,1.669-2.535,2.703-3.598c0.198-0.213,0.41-0.426,0.638-0.624
			c0.06-0.076,0.123-0.137,0.197-0.183c0.183-0.166,0.366-0.318,0.547-0.454c0.122-0.106,0.243-0.198,0.364-0.288
			c0.273-0.199,0.547-0.396,0.851-0.563c0.304-0.197,0.624-0.38,0.957-0.53c0.015-0.031,0.031-0.031,0.046-0.031
			c0.122-0.075,0.242-0.121,0.364-0.183c0.305-0.136,0.592-0.333,0.988-0.228c2.368,0.638,4.723,0.607,7.183-0.197
			c-0.79,2.916-0.745,5.649,0.439,8.291c0.533,1.17,1.307,2.173,2.643,3.008c-1.077-2.749,1.033-3.69,2.384-5.027
			c0.366-0.349,0.79-0.622,1.307-1.002c0.045,1.398,0.076,2.719,0.455,3.979c0.912,2.992,3.129,4.647,5.68,5.376
			C121.595,149.983,121.776,150.863,121.124,151.79z"/>
	</g>
</g>
</svg>
