<?xml version="1.0" encoding="utf-8"?>
<!-- Generator: Adobe Illustrator 16.0.0, SVG Export Plug-In . SVG Version: 6.00 Build 0)  -->
<!DOCTYPE svg PUBLIC "-//W3C//DTD SVG 1.1//EN" "http://www.w3.org/Graphics/SVG/1.1/DTD/svg11.dtd">
<svg version="1.1" id="Layer_1" xmlns="http://www.w3.org/2000/svg" xmlns:xlink="http://www.w3.org/1999/xlink" x="0px" y="0px"
	 width="2876.125px" height="845.125px" viewBox="0 0 2876.125 845.125" enable-background="new 0 0 2876.125 845.125"
	 xml:space="preserve">
<g>
	<g>
		<path fill="#FC0101" d="M377.521,236.986c-8.673-1.445-38.887,6.764-38.887,6.764s25.299,12.027,28.19,6.246
			C369.715,244.214,386.193,238.433,377.521,236.986z"/>
		<path fill="#FC0101" d="M413.725,245.184c-8.672-1.445-38.887,6.764-38.887,6.764s25.299,12.027,28.19,6.246
			C405.92,252.41,422.397,246.629,413.725,245.184z"/>
		<path fill="#FC0101" d="M454.791,258.218c-8.559-2.017-39.249,4.173-39.249,4.173s24.446,13.678,27.715,8.1
			C446.523,264.912,463.349,260.234,454.791,258.218z"/>
		<path fill="#FC0101" d="M490.811,277.727c-8.398-3.215-40.354-1.137-40.354-1.137s22.91,17.205,26.984,11.999
			C481.516,283.381,499.209,280.941,490.811,277.727z"/>
		<path fill="#FC0101" d="M524.453,299.521c-8.434-4.418-42.287-6.179-42.287-6.179s21.963,20.918,26.889,15.948
			C513.982,304.318,532.887,303.938,524.453,299.521z"/>
		<path fill="#FC0101" d="M556.22,329.254c-7.673-5.824-41.16-13.272-41.16-13.272s18.4,24.566,24.152,20.435
			C544.965,332.282,563.893,335.079,556.22,329.254z"/>
		<path fill="#FC0101" d="M579.543,362.679c-6.033-6.396-35.063-18.126-35.063-18.126s12.879,24.877,18.676,22.02
			C568.957,363.715,585.576,369.074,579.543,362.679z"/>
		<path fill="#FC0101" d="M581.1,401.876c6.242-1.687,21.518,6.774,16.829-0.663c-4.687-7.438-30.91-24.545-30.91-24.545
			S574.86,403.561,581.1,401.876z"/>
		<path fill="#FC0101" d="M606.785,441.423c-2.76-7.259-22.541-26.601-22.541-26.601s0.799,9.539,2.776,16.663l-6.554,12.595
			c0,0-0.5,77.92,0,81.67s4.5,23.75,10.947,7.75s3.303-24,2.836-27s3.717-9.5,2.717-11.75s-2.717-7.252-2.717-10.5
			s5.25-1.125,5.342-3.125s-4.375-10.25-4.375-10.25c-3.592-5.375,7.5-4.5,5.5-8.625c-0.895-1.845-2.5-4-5-8.5
			s-1.996-14.125,0.004-13.958C601.639,441.83,609.033,447.333,606.785,441.423z"/>
	</g>
	<path fill="#FC7D00" d="M521.635,582.416c-54,98-150.918,94.334-150.918,94.334c-36.192,2.812-94.387,1.574-107.051-11.441
		c6.671-2.016,18.635-1.559,29.734,3.022c6.1-4.419,21.9-0.915,31.591,2.404c12.024-7.681,36.866-2.565,36.866-2.565
		c6.838-12.816,41.053-14.401,41.053-14.401c3.627-13.253,22.391-28.352,42.388-33.325c-1.335-18.641,18.335-44.693,34.502-53.808
		c-7.167-18.781,7.833-48.886,17.106-57.058c-8.727-15.171-5.272-39.494,3.352-55.844c-9.043-9.015-9.625-38.65-9.434-53.982
		c-9.477-5.999-15.191-28.336-17.713-39.889c-12.855-8.219-20.145-18.779-28.155-33.768c-15.011-1.654-27.037-18.922-27.037-18.922
		s-0.286-3.09,15.048-2.998c30,14.76,79.67,44.764,77.333,103.752C509.633,424.772,539.635,472.416,521.635,582.416z"/>
	<path fill="#FC0101" d="M315.838,384.707c-31.627,8.92-86.771,40.547-86.771,106.232c0,34.06,25.14,76.229,68.118,76.229
		c34.295,0,57.577-23.518,57.577-68.93c0-42.212-41.257-95.691-100.556-95.691c-103.801,0-152.457,83.527-152.457,154.89
		S156.895,751.25,347.464,751.25c165.431,0,252.202-134.615,246.524-277.34c-7.766-195.281-231.116-226.252-264.365-231.928
		c-33.248-5.677,43.859-19.922,34.127-20.732c-9.73-0.811-86.838,0.459-124.141,0.459c-9.293,0-19.905,0-28.575,1.146
		c-6.778,0.896-12.368,2.494-15.216,5.341c-21.811,1.781-50.977,0-68.117,0c-8.921,0,4.865,12.164,12.164,12.164
		c-19.463,2.433-38.115,7.298-38.115,7.298s98.123,8.109,126.506,21.896c-28.383,8.108-108.816,49.916-84.506,40.695
		c29-11,37.697-11.891,75-20c16.921-3.678,33-3,43.796-0.479c4.515,1.054,9.501,4.922,13.556,8.166c2.49,0.116-1.966-7.842,0-7.299
		c5.021,1.386,8.445,7.159,9.731,9.73c7.298-8.109,5.677-16.219,2.433-23.517c46.224,0.811,145.304,13.575,190.57,84.337
		C549.387,471.478,491,675.833,340.977,675.833c-133.805,0-180.839-78.661-180.839-118.396c0-72.174,37.304-122.452,91.636-122.452
		c64.064-2.432,77.039,44.602,77.039,63.254c0,12.975-10.542,40.547-30.815,39.735c-19.446-0.777-40.547-25.95-40.547-51.089
		c0-35.681,36.492-87.581,76.228-87.581c2.434,8.109,6.488,26.761,9.731,30.815c3.244,4.055,60.82-66.496,56.766-70.551
		s-107.044,15.407-115.153,16.219C276.912,376.598,311.783,379.842,315.838,384.707z"/>
	<path fill="#210000" d="M207.25,229.75c4.473-2.236,12-2,19.5-0.5c5.591,1.118-4.266,0.218-8.5,0.5c-7.5,0.5-7,3-6,7
		c0.971,3.881-6,1-7-4c-2.139,0-7.067-1.746-7-2C198.373,230.291,201.25,232.75,207.25,229.75z"/>
	<path fill="#FC0101" d="M206.551,265.916c-12.418-1.043-52.596,8.732-61.676,10.334c-17,3-27,8-48.043,4.771
		c-0.129-0.021-0.242-0.034-0.367-0.052c1.808-1.242,6.885-1.982,4.033-2.594c-3.932-0.844-15.152-1.334-15.057-0.544
		c0.094,0.79,12.119,13.714,12.119,13.714c3.106,2.852-0.924-3.201-2.218-6.865c1.878,0.727,4.134,1.299,6.341,1.43
		c19.191,1.141,26.793-6.188,67.191-9.859c11-1,29.037,1.32,37.479,1.484c12.279-3.984,17.446-6.984,21.901-8.18
		C223.631,268.23,214.627,266.202,206.551,265.916z"/>
	<g>
		<path fill="#210000" d="M315.838,384.707c0,0,1.744-0.583,4.795-1.603c1.519-0.531,3.408-1.034,5.571-1.634
			c2.164-0.596,4.605-1.311,7.292-1.929c2.683-0.642,5.582-1.392,8.672-2.058c3.088-0.674,6.337-1.433,9.719-2.11
			c3.38-0.68,6.865-1.435,10.424-2.095c3.558-0.668,7.173-1.347,10.788-2.026l2.716-0.481c0.448-0.08,0.923-0.16,1.397-0.225
			c0.241-0.032,0.483-0.062,0.751-0.08c0.139-0.007,0.274-0.015,0.452-0.008c0.081,0.002,0.195,0.014,0.315,0.034
			c0.093,0.023,0.155,0.035,0.271,0.081c0.136,0.068,0.27,0.108,0.486,0.376c0.186,0.2,0.252,0.697,0.186,0.852
			c-0.064,0.276-0.108,0.296-0.177,0.426c-0.101,0.147-0.187,0.233-0.254,0.297c-0.14,0.132-0.255,0.218-0.367,0.3
			c-0.222,0.161-0.429,0.292-0.636,0.419c-0.413,0.254-0.817,0.481-1.223,0.707c-0.737,0.375-1.553,0.935-2.224,1.418
			c-2.908,2.128-5.77,4.223-8.539,6.25c-2.782,2.043-5.528,3.946-8.149,5.725c-2.63,1.768-5.15,3.392-7.533,4.803
			c-2.369,1.432-4.599,2.652-6.626,3.634c-2.009,1.016-3.838,1.749-5.346,2.325c-0.772,0.242-1.461,0.458-2.061,0.646
			c-0.591,0.209-1.141,0.229-1.56,0.327c-0.849,0.148-1.302,0.228-1.302,0.228s0.445-0.116,1.279-0.334
			c0.41-0.131,0.94-0.191,1.512-0.449c0.579-0.227,1.244-0.488,1.989-0.78c1.457-0.662,3.213-1.493,5.14-2.62
			c0.981-0.526,1.982-1.168,3.046-1.826c1.072-0.643,2.17-1.369,3.318-2.122c4.583-3.027,9.767-6.806,15.244-10.97
			c2.767-2.071,5.505-4.263,8.508-6.436c0.797-0.57,1.477-1.054,2.356-1.52c0.389-0.219,0.778-0.442,1.142-0.669
			c0.182-0.113,0.36-0.229,0.507-0.337c0.072-0.053,0.139-0.107,0.165-0.133c0.016-0.014,0.007-0.013-0.028,0.041
			c-0.044,0.079-0.048,0.054-0.108,0.271c-0.014,0.089-0.023,0.153-0.001,0.323c0.023,0.148,0.101,0.287,0.158,0.369
			c0.051,0.086,0.192,0.192,0.215,0.207c0.041,0.029,0.086,0.054,0.132,0.071c0.064,0.025,0.068,0.027,0.107,0.033
			c0.006,0.004,0.008,0.001-0.027,0.001c-0.05-0.002-0.144,0.002-0.234,0.007c-0.189,0.014-0.402,0.041-0.615,0.07
			c-0.434,0.062-0.864,0.137-1.318,0.221l-2.709,0.496c-7.227,1.32-14.453,2.64-21.227,3.878c-3.383,0.639-6.653,1.257-9.754,1.843
			c-3.097,0.609-6.024,1.186-8.726,1.717c-2.709,0.517-5.161,1.071-7.351,1.529c-2.187,0.465-4.103,0.852-5.652,1.29
			C317.622,384.259,315.838,384.707,315.838,384.707z"/>
	</g>
	<g>
		<path fill="#210000" d="M140.137,239.342c0,0,0.212-0.001,0.583-0.004c0.197,0.004,0.378-0.02,0.616-0.031
			c0.227-0.008,0.505-0.043,0.808-0.08c1.208-0.146,2.839-0.483,4.411-1.02c1.576-0.52,3.095-1.248,4.053-2.044
			c0.259-0.181,0.425-0.41,0.612-0.584c0.158-0.195,0.268-0.387,0.375-0.537c0.13-0.344,0.205-0.541,0.205-0.541
			s-0.046,0.209-0.126,0.575c-0.084,0.166-0.169,0.383-0.305,0.611c-0.161,0.205-0.309,0.479-0.545,0.701
			c-0.875,0.978-2.333,1.962-3.88,2.74c-1.544,0.796-3.183,1.4-4.465,1.753c-0.32,0.088-0.613,0.17-0.898,0.224
			c-0.273,0.056-0.535,0.119-0.709,0.141c-0.367,0.058-0.577,0.091-0.577,0.091c-0.547,0.085-1.06-0.289-1.146-0.835
			c-0.086-0.547,0.288-1.061,0.835-1.146C140.033,239.347,140.09,239.343,140.137,239.342z"/>
	</g>
	<g>
		<path fill="none" stroke="#210000" stroke-width="2" stroke-linecap="round" stroke-linejoin="round" stroke-miterlimit="10" d="
			M297.742,412.928c-7.156-3.604-14.855-6.398-23.02-8.176"/>
		<path fill="none" stroke="#210000" stroke-width="2" stroke-linecap="round" stroke-linejoin="round" stroke-miterlimit="10" d="
			M245.143,435.248c2.182-0.17,4.391-0.264,6.631-0.264c8.855-0.336,16.73,0.277,23.734,1.625"/>
	</g>
	<g>
		<path fill="#FC0101" d="M759.625,96.502c-4.527,1.133-15.85,2.265-15.85,2.265c-1.131,2.265-2.264,4.528-6.793,4.528
			l-44.658,63.912c1.131,2.264,5.66,4.527,5.66,5.66c-1.133,1.132-7.926,0-7.926,0c-0.408,0-4.163-0.13-9.507,0.158l-55.253,36.824
			c-0.887,2.102-1.55,3.814-2.035,4.906c0,3.396,4.461,4.236,3.328,5.369c-1.133,1.132-5.592-0.842-7.855,0.291
			c-0.518,0.259-5.787,0.23-13.111,0.854l-55.789,22.729c-4.381,3.941-6.951,7.147-6.951,8.117c0,4.528,0.665,6.301-0.584,7.301
			c-0.834,0.668-3.786-5.548-4.917-4.416c-0.552,0.551-21.559-1.823-45.032-3.021l-53.523,1.859
			c-3.279,0.793-5.967,1.805-7.861,3.079c-2.645,1.779-2.282,6.604,3.125,9.208c6.75,3.25,10.125,5.813-0.75,5.313
			c-7.274-0.334-6.82,3.42,0,4.313c8.425,1.102,17.563,1.75,2.688,4.875c-9.06,1.903-19.952-0.289-11.75,2.625
			c4.75,1.688,20.876,1.922,11.625,4.188c-8.839,1.965-25.572,3.014-31.944,1.002c-13.289-4.195-19.278-18.797-11.938-33.066
			c7.341-14.271,80.313-86.189,98.279-109.289c14-18,29-31.429,78.333-34.668c14.704-0.965,123.495-13.066,154.321-16.999
			c8.303-1.06,13.463-1.704,13.463-1.704s2.83,0.394,7.357,1.525C750.568,94.238,759.625,96.502,759.625,96.502z"/>
		<g>
			<path fill="#210000" d="M736.982,103.295c0.004-0.024-0.348-0.054-1.028-0.037c-0.681,0.015-1.69,0.057-3.006,0.129
				c-2.632,0.14-6.489,0.412-11.398,0.75c-9.818,0.671-23.831,1.812-40.647,3.155c-16.816,1.338-36.421,3.077-57.417,4.992
				c-10.498,0.963-21.34,2.006-32.344,3.172c-11.001,1.177-22.176,2.434-33.279,4.055c-2.775,0.405-5.547,0.825-8.296,1.315
				c-2.737,0.5-5.507,1.015-8.071,1.822c-0.622,0.202-1.266,0.451-1.679,0.715c-0.034,0.03-0.069,0.057-0.107,0.082
				c-0.011,0.015-0.017,0.023-0.018,0.013c0.045-0.053,0.042-0.077,0.074-0.227c0.028,0.042-0.055-0.299-0.025-0.188l0.034,0.122
				c-0.028-0.152-0.018-0.055,0.073,0.021c0.068,0.076,0.177,0.164,0.282,0.25c0.95,0.705,2.247,1.283,3.485,1.813
				c2.523,1.055,5.145,1.948,7.761,2.804c10.503,3.366,21.045,6.144,31.23,8.834c20.424,5.244,39.487,10.138,55.827,14.333
				c16.346,4.188,29.911,7.917,39.339,10.761c4.714,1.42,8.378,2.674,10.841,3.618c2.469,0.937,3.71,1.607,3.71,1.607
				s-1.259-0.636-3.748-1.505c-2.482-0.884-6.18-2.009-10.913-3.347c-9.464-2.687-23.12-6.029-39.504-10.042
				c-8.198-1.989-17.079-4.143-26.472-6.422c-9.394-2.28-19.304-4.678-29.517-7.324c-10.213-2.654-20.767-5.388-31.368-8.737
				c-2.647-0.855-5.296-1.743-7.922-2.828c-1.315-0.568-2.612-1.098-3.922-2.048c-0.167-0.133-0.331-0.265-0.501-0.445
				c-0.157-0.171-0.35-0.362-0.532-0.828l-0.038-0.13c-0.007,0.028-0.073-0.401-0.039-0.446c0.016-0.332,0.13-0.502,0.244-0.713
				c0.106-0.147,0.22-0.27,0.332-0.376l0.307-0.24c0.77-0.49,1.456-0.719,2.158-0.962c2.781-0.885,5.546-1.398,8.329-1.922
				c2.78-0.505,5.567-0.946,8.356-1.355c11.164-1.583,22.354-2.796,33.375-3.931c11.021-1.123,21.875-2.124,32.383-3.045
				c10.506-0.937,20.672-1.714,30.313-2.438c9.643-0.691,18.76-1.344,27.175-1.947c16.834-1.163,30.877-1.913,40.708-2.423
				c4.915-0.253,8.78-0.393,11.416-0.47c1.318-0.038,2.329-0.053,3.011-0.05C736.635,103.231,736.988,103.271,736.982,103.295z"/>
		</g>
		<g>
			<path fill="#210000" d="M683.967,170.75c0,0-4.403-1.203-12.108-3.309c-7.697-2.134-18.692-5.183-31.887-8.841
				c-13.196-3.645-28.592-7.897-45.087-12.453c-8.249-2.271-16.778-4.593-25.459-6.896c-8.681-2.297-17.512-4.595-26.375-6.704
				c-4.426-1.056-8.869-2.116-13.292-2.882c-1.097-0.179-2.221-0.353-3.246-0.39c-0.24-0.005-0.511-0.001-0.636,0.027
				c-0.032,0.005-0.02,0.009-0.026,0.002c0.036-0.01,0.07-0.029,0.098-0.054c0.017-0.02,0.267-0.265,0.124-0.114
				c-0.017,0.039,0.167-0.209,0.158-0.333c0.013-0.148,0.012-0.087,0.009-0.141c-0.015-0.064,0.005-0.01-0.001-0.013
				c0.096,0.271,0.439,0.774,0.745,1.18c1.321,1.712,2.885,3.352,4.423,4.958c6.243,6.401,12.735,12.413,19.015,18.208
				c6.31,5.771,12.428,11.333,18.269,16.563c5.846,5.226,11.398,10.145,16.547,14.649c5.166,4.488,9.903,8.599,14.152,12.183
				c4.243,3.593,8.018,6.631,11.141,9.117c3.173,2.419,5.636,4.364,7.408,5.563c1.743,1.241,2.672,1.903,2.672,1.903
				s-0.951-0.631-2.734-1.813c-1.809-1.149-4.352-2.989-7.583-5.344c-3.187-2.411-7.042-5.36-11.377-8.851
				c-4.346-3.478-9.191-7.474-14.413-11.905c-5.225-4.433-10.848-9.266-16.778-14.408c-5.924-5.146-12.149-10.602-18.475-16.376
				c-6.324-5.778-12.847-11.755-19.185-18.189c-1.573-1.63-3.144-3.249-4.599-5.111c-0.359-0.504-0.716-0.912-1.032-1.701
				c-0.038-0.14-0.077-0.219-0.097-0.425c-0.003-0.125-0.024-0.136,0.005-0.353c0.014-0.191,0.194-0.517,0.22-0.534
				c-0.094,0.101,0.181-0.222,0.269-0.266c0.09-0.06,0.186-0.114,0.283-0.159c0.129-0.046,0.275-0.092,0.382-0.112
				c0.433-0.082,0.733-0.068,1.059-0.068c1.243,0.042,2.37,0.219,3.516,0.398c4.541,0.765,8.989,1.8,13.443,2.848
				c8.886,2.161,17.713,4.504,26.393,6.847c8.678,2.348,17.201,4.713,25.441,7.027c8.246,2.296,16.188,4.618,23.72,6.813
				c7.527,2.21,14.644,4.301,21.213,6.23c13.136,3.868,24.038,7.239,31.685,9.547C679.603,169.412,683.967,170.75,683.967,170.75z"
				/>
		</g>
		<g>
			<path fill="#210000" d="M616.717,216.75c0,0-0.198-0.136-0.583-0.4c-0.384-0.265-0.963-0.644-1.667-1.213
				c-1.435-1.104-3.526-2.748-6.131-4.89c-5.209-4.293-12.65-10.431-21.44-17.956c-8.785-7.531-19.054-16.296-29.906-25.86
				c-5.412-4.799-11.003-9.758-16.686-14.797c-5.649-5.082-11.403-10.212-17.031-15.53l-2.083-2.043l-0.499-0.49l-0.259-0.252
				l-0.189-0.156c-0.133-0.102-0.264-0.169-0.304-0.184c-0.056,0.005,0.154-0.004,0.195-0.059c0.037-0.044-0.043,0.045-0.093,0.188
				c-0.059,0.133-0.105,0.327-0.147,0.517c-0.08,0.395-0.121,0.841-0.144,1.29c-0.047,0.902-0.018,1.842,0.031,2.778
				c0.229,3.762,0.797,7.542,1.395,11.271c1.23,7.464,2.723,14.78,4.22,21.846c3.028,14.126,5.988,27.294,8.623,38.557
				c2.591,11.276,4.75,20.673,6.262,27.251c0.75,3.291,1.293,5.887,1.66,7.658c0.364,1.771,0.525,2.723,0.525,2.723
				s-0.198-0.944-0.631-2.699c-0.446-1.752-1.1-4.321-1.932-7.591c-1.66-6.542-4.168-15.852-6.978-27.077
				c-1.391-5.617-2.898-11.702-4.493-18.137c-1.565-6.443-3.198-13.245-4.731-20.319c-1.542-7.072-3.082-14.394-4.366-21.906
				c-0.624-3.761-1.222-7.557-1.484-11.465c-0.056-0.981-0.095-1.966-0.049-2.986c0.024-0.511,0.064-1.027,0.17-1.577
				c0.061-0.279,0.122-0.558,0.249-0.87c0.126-0.3,0.277-0.655,0.697-1c0.212-0.169,0.49-0.297,0.788-0.348
				c0.138-0.013,0.282-0.019,0.417-0.011c0.12,0.017,0.24,0.04,0.357,0.067c0.421,0.13,0.704,0.321,0.958,0.505
				c0.127,0.097,0.247,0.203,0.367,0.306l0.261,0.25l0.536,0.52l2.055,1.999c5.553,5.31,11.284,10.481,16.894,15.587
				c5.649,5.069,11.208,10.058,16.589,14.886c10.79,9.625,20.861,18.609,29.493,26.31c8.668,7.659,15.852,14.09,20.954,18.505
				c2.554,2.209,4.548,3.946,5.941,5.096c0.68,0.597,1.247,1,1.621,1.28C616.523,216.605,616.717,216.75,616.717,216.75z"/>
		</g>
		<g>
			<path fill="#210000" d="M537.301,250.417c0,0-1.083-4.27-2.978-11.741c-1.848-7.483-4.558-18.157-7.622-31.011
				c-1.523-6.429-3.173-13.395-4.919-20.761c-1.719-7.374-3.544-15.148-5.284-23.225c-1.751-8.079-3.575-16.407-5.03-25.012
				c-0.143-1.098-0.287-2.198-0.43-3.3c-0.002,0.024-0.037-0.302-0.049-0.271c-0.002,0.005-0.004,0.011,0.023,0.042
				c0.028,0.049,0.123,0.09,0.147,0.099c0.044,0.005,0.008,0.002-0.039,0.009c-0.249,0.038-0.717,0.263-1.122,0.525
				c-1.688,1.105-3.294,2.621-4.854,4.108c-3.118,3.026-6.106,6.252-9.068,9.496c-5.94,6.479-11.75,13.098-17.471,19.61
				c-5.725,6.513-11.359,12.923-16.812,19.126c-10.932,12.384-21.314,23.779-30.11,33.637c-8.805,9.849-16.191,18.014-21.2,23.868
				c-2.51,2.922-4.46,5.237-5.716,6.874c-0.619,0.824-1.114,1.444-1.373,1.911c-0.283,0.452-0.429,0.686-0.429,0.686
				s0.138-0.238,0.405-0.7c0.244-0.478,0.718-1.114,1.31-1.961c1.208-1.677,3.059-4.079,5.505-7.059
				c2.433-2.992,5.445-6.574,8.91-10.677c3.472-4.095,7.402-8.706,11.745-13.685c8.678-9.962,18.803-21.585,29.651-34.039
				c5.419-6.229,11.019-12.667,16.708-19.208c5.691-6.543,11.465-13.201,17.403-19.731c2.994-3.245,6.011-6.47,9.205-9.539
				c1.623-1.521,3.213-3.039,5.187-4.324c0.52-0.306,1.023-0.63,1.854-0.785c0.22-0.027,0.462-0.05,0.771,0.029
				c0.292,0.062,0.624,0.262,0.832,0.513c0.198,0.242,0.312,0.5,0.376,0.769c0.066,0.291,0.043,0.241,0.085,0.532
				c0.133,1.056,0.265,2.11,0.397,3.162c1.393,8.502,3.176,16.863,4.882,24.931c3.442,16.144,6.717,31.207,9.603,44.099
				C533.498,233.215,537.301,250.417,537.301,250.417z"/>
		</g>
	</g>
	<g>
		<path fill="none" stroke="#210000" stroke-width="2" stroke-linecap="round" stroke-linejoin="round" stroke-miterlimit="10" d="
			M743.777,94.24c-4.531-1.131-7.36-1.53-7.36-1.53s-5.16,0.649-13.46,1.71c-30.83,3.93-139.62,16.03-154.32,17
			c-49.34,3.24-64.34,16.66-78.34,34.66c-15.5,19.939-71.98,76.24-91.88,100.46c-8.4,1.53-17.479,3.81-21.479,4.851
			c-3.311-0.811-6.5-1.561-9.58-2.261c3.949-5.479,18.399-10.771,10.159-12.14c-7.96-1.33-34.05,5.47-38.28,6.6
			c-4.039-0.689-7.289-1.21-9.609-1.609c-33.25-5.67,43.859-19.92,34.119-20.73c-9.729-0.811-86.829,0.46-124.139,0.46
			c-9.291,0-19.9,0-28.57,1.149c-6.78,0.891-12.37,2.49-15.221,5.341c-21.81,1.78-50.97,0-68.119,0
			c-8.92,0,4.869,12.159,12.17,12.159c-19.461,2.431-38.121,7.301-38.121,7.301s98.131,8.109,126.511,21.89
			c-4.63-1.319-13.63-3.35-21.71-3.63c-12.41-1.05-52.59,8.73-61.67,10.33c-17,3-27,8-48.04,4.77c-0.13-0.02-0.25-0.029-0.37-0.049
			c1.811-1.24,6.88-1.98,4.029-2.601c-3.93-0.841-15.149-1.33-15.059-0.54c0.1,0.79,12.119,13.72,12.119,13.72
			c3.11,2.851-0.92-3.21-2.21-6.87c1.87,0.73,4.13,1.301,6.341,1.43c19.189,1.141,26.789-6.189,67.189-9.859
			c11-1,29.029,1.32,37.48,1.48c-34.351,14.549-82.08,39.899-62.611,32.52c29-11,37.701-11.891,75-20c16.921-3.68,33-3,43.801-0.48
			c4.51,1.061,9.5,4.92,13.55,8.17c2.49,0.11-1.96-7.84,0-7.299c5.03,1.379,8.45,7.159,9.74,9.729c7.29-8.11,5.67-16.22,2.43-23.521
			c30.45,0.541,83.83,6.26,129.66,30.33c0.06,0.09,12.06,17.271,27.03,18.92c8.01,14.98,15.3,25.541,28.15,33.76
			c2.529,11.561,8.239,33.891,17.719,39.891c-0.189,15.33,0.391,44.971,9.431,53.98c-8.62,16.35-12.08,40.68-3.351,55.85
			c-9.27,8.17-24.27,38.27-17.109,57.061c-16.16,9.109-35.83,35.159-34.5,53.799c-20,4.98-38.76,20.08-42.391,33.33
			c0,0-34.209,1.58-41.049,14.4c0,0-24.841-5.12-36.871,2.57c-9.689-3.32-25.49-6.83-31.59-2.41
			c-11.09-4.58-23.039-5.04-29.709-3.03c-75.211-22.76-103.551-77.03-103.551-107.86c0-69.199,34.29-118.26,85.01-122.189
			c-9.68,14.91-16.08,33.33-16.08,55.689c0,34.061,25.141,76.23,68.121,76.23c34.289,0,57.579-23.52,57.579-68.93
			c0-30.84-22.03-67.69-57.03-85.311c10.94-8.35,23.271-13.63,35.94-13.63c2.431,8.11,6.49,26.761,9.729,30.82
			c3.25,4.05,60.82-66.5,56.771-70.55c-4.06-4.061-107.05,15.41-115.149,16.22c-8.11,0.81,26.76,4.05,30.81,8.92
			c-11.79,3.319-26.86,9.81-41.11,20.04c-6.56-1.43-13.41-2.2-20.52-2.2c-103.801,0-152.461,83.521-152.461,154.89
			c0,71.36,55.15,193.811,245.721,193.811c141.359,0,225.27-98.3,243.16-215.96c0.26-0.54,0.52-1.13,0.79-1.79
			c6.44-16,3.3-24,2.829-27c-0.459-3,3.721-9.5,2.721-11.75s-2.721-7.25-2.721-10.5s5.25-1.12,5.341-3.12
			c0.101-2-4.37-10.26-4.37-10.26c-3.59-5.37,7.5-4.5,5.5-8.62c-0.891-1.84-2.5-4-5-8.5s-2-14.12,0-13.96
			c5.92,2.04,13.32,7.54,11.07,1.63c-2.76-7.26-22.541-26.6-22.541-26.6s0.031,0.42,0.101,1.119c-1.51-4.899-3.18-9.66-5-14.279
			c0.591,0.279,1.181,0.369,1.75,0.22c6.25-1.69,21.521,6.771,16.83-0.67c-4.229-6.72-26.04-21.319-30.21-24.08
			c-2.01-3.569-4.109-7.05-6.3-10.43c0.63,0.159,1.21,0.13,1.739-0.13c5.801-2.85,22.42,2.5,16.391-3.891
			c-5.52-5.85-30.26-16.16-34.45-17.88c-2.319-2.71-4.7-5.36-7.13-7.93c0.46-0.05,0.88-0.19,1.25-0.45
			c5.75-4.141,24.68-1.34,17-7.17c-7.13-5.41-36.55-12.221-40.66-13.16c-2.58-2.1-5.199-4.14-7.84-6.119
			c0.52-0.111,0.98-0.32,1.34-0.681c4.93-4.97,23.83-5.351,15.4-9.771c-7.711-4.029-36.61-5.85-41.551-6.14
			c-2.279-1.351-4.56-2.67-6.85-3.95c0.57-0.15,1.051-0.41,1.381-0.84c4.079-5.21,21.77-7.65,13.369-10.859
			c-8.061-3.09-37.82-1.301-40.18-1.15c-3.67-1.67-7.32-3.25-10.96-4.76c1.71,0.05,3-0.32,3.59-1.33
			c3.271-5.58,20.09-10.26,11.53-12.27c-4.7-1.111-16.11,0.26-25.42,1.719c0.039-1.25,0.6-2.35,1.6-3.02
			c1.9-1.279,4.58-2.29,7.859-3.08l53.531-1.859c23.469,1.199,44.479,3.569,45.029,3.02c1.13-1.13,4.08,5.08,4.91,4.42
			c1.25-1,0.59-2.779,0.59-7.3c0-0.97,2.57-4.181,6.95-8.12l55.79-22.73c7.32-0.619,12.59-0.6,13.109-0.85
			c2.26-1.141,6.721,0.84,7.851-0.29c1.14-1.14-3.32-1.979-3.32-5.37c0.479-1.1,1.14-2.81,2.03-4.91l55.25-36.82
			c5.35-0.289,9.1-0.159,9.51-0.159c0,0,6.79,1.13,7.93,0c0-1.14-4.529-3.399-5.66-5.66l44.66-63.91c4.53,0,5.66-2.271,6.791-4.53
			c0,0,11.319-1.14,15.85-2.27C759.627,96.5,750.566,94.24,743.777,94.24z M275.507,436.609c43.67,8.41,53.31,45.551,53.31,61.631
			c0,12.97-10.55,40.55-30.82,39.73c-19.449-0.771-40.549-25.951-40.549-51.091C257.447,471.33,264.387,452.689,275.507,436.609z"/>
	</g>
</g>
<g>
	<g>
		<path fill="#211414" d="M931.182,83.955c5.414,9.9,11.651,22.127,18.725,36.675c7.066,14.555,14.435,30.305,22.106,47.25
			c7.671,16.952,15.265,34.277,22.788,51.975c7.517,17.705,14.583,34.354,21.206,49.95c6.616-15.596,13.683-32.245,21.206-49.95
			c7.517-17.697,15.11-35.022,22.781-51.975c7.671-16.945,15.04-32.695,22.113-47.25c7.066-14.548,13.311-26.775,18.725-36.675
			h63.899c2.996,20.7,5.773,43.875,8.325,69.525c2.546,25.65,4.796,52.355,6.75,80.1c1.948,27.752,3.748,55.575,5.4,83.475
			c1.646,27.9,3.072,54.154,4.274,78.75h-68.399c-0.9-30.298-2.103-63.295-3.601-99c-1.504-35.697-3.754-71.698-6.75-108
			c-5.421,12.6-11.439,26.55-18.056,41.85c-6.624,15.3-13.17,30.6-19.639,45.9s-12.712,29.925-18.731,43.875
			c-6.019,13.95-11.137,25.875-15.349,35.775h-49.05c-4.219-9.9-9.331-21.825-15.35-35.775s-12.27-28.575-18.738-43.875
			s-13.015-30.6-19.631-45.9c-6.624-15.3-12.643-29.25-18.057-41.85c-3.002,36.302-5.252,72.303-6.75,108
			c-1.505,35.705-2.7,68.702-3.6,99h-68.4c1.195-24.596,2.623-50.85,4.275-78.75c1.645-27.9,3.445-55.723,5.399-83.475
			c1.948-27.745,4.198-54.45,6.75-80.1c2.546-25.65,5.323-48.825,8.325-69.525H931.182z"/>
		<path fill="#211414" d="M1471.501,395.805c-3.474-10.835-7.2-21.966-11.193-33.385c-3.994-11.418-7.974-22.795-11.933-34.115
			H1326.58c-3.938,11.377-7.89,22.774-11.841,34.207c-3.959,11.433-7.643,22.535-11.053,33.293h-72.9
			c11.735-33.596,22.865-64.646,33.398-93.15c10.533-28.497,20.834-55.35,30.916-80.55c10.083-25.2,20.012-49.12,29.792-71.775
			c9.78-22.647,19.94-44.775,30.474-66.375h66.543c10.245,21.6,20.342,43.728,30.291,66.375
			c9.942,22.655,19.969,46.575,30.065,71.775c10.097,25.2,20.419,52.053,30.966,80.55c10.547,28.505,21.698,59.555,33.455,93.15
			H1471.501z M1387.161,154.604c-1.568,4.528-3.86,10.695-6.877,18.485c-3.016,7.798-6.447,16.805-10.301,27.021
			c-3.853,10.216-8.163,21.466-12.923,33.75c-4.761,12.284-9.598,25.165-14.513,38.644h89.178
			c-4.774-13.521-9.395-26.445-13.866-38.764c-4.472-12.318-8.726-23.59-12.747-33.813c-4.029-10.216-7.559-19.216-10.597-27.007
			C1391.479,165.138,1389.024,159.034,1387.161,154.604z"/>
		<path fill="#211414" d="M1864.969,239.655c0,27-4.205,50.554-12.601,70.65c-8.402,20.103-20.327,36.752-35.774,49.95
			c-15.455,13.204-34.277,23.104-56.476,29.7c-22.204,6.595-47.103,9.899-74.7,9.899c-12.6,0-27.302-0.527-44.1-1.575
			c-16.805-1.055-33.3-3.22-49.5-6.524V88.005c16.2-2.996,33.075-5.021,50.625-6.075c17.55-1.048,32.625-1.575,45.225-1.575
			c26.698,0,50.921,3.002,72.676,9c21.747,6.005,40.422,15.455,56.024,28.35c15.596,12.902,27.598,29.405,36,49.5
			C1860.764,187.307,1864.969,211.459,1864.969,239.655z M1662.019,338.654c3.298,0.303,7.122,0.527,11.475,0.676
			c4.346,0.154,9.521,0.225,15.525,0.225c35.1,0,61.122-8.846,78.075-26.55c16.945-17.698,25.425-42.146,25.425-73.35
			c0-32.695-8.101-57.445-24.3-74.25c-16.2-16.798-41.851-25.2-76.95-25.2c-4.803,0-9.753,0.078-14.851,0.225
			c-5.104,0.155-9.899,0.527-14.399,1.125V338.654z"/>
		<path fill="#211414" d="M2017.788,80.354c46.801,0,82.646,8.325,107.551,24.975c24.897,16.65,37.35,42.525,37.35,77.625
			c0,21.902-5.027,39.677-15.075,53.325c-10.055,13.655-24.524,24.377-43.425,32.175c6.3,7.805,12.896,16.727,19.8,26.774
			c6.897,10.055,13.726,20.553,20.476,31.5c6.75,10.955,13.274,22.353,19.574,34.2c6.301,11.854,12.15,23.478,17.551,34.875h-78.477
			c-5.723-10.195-11.523-20.545-17.395-31.05c-5.871-10.498-11.891-20.7-18.063-30.601c-6.174-9.899-12.276-19.272-18.296-28.125
			c-6.025-8.845-12.051-16.875-18.07-24.074h-34.649v113.85h-70.2V88.455c15.3-2.995,31.12-5.098,47.475-6.3
			C1990.261,80.959,2004.886,80.354,2017.788,80.354z M2021.839,140.205c-5.105,0-9.676,0.155-13.726,0.45
			c-4.05,0.302-7.875,0.604-11.475,0.9v84.6h19.8c26.396,0,45.295-3.298,56.7-9.9c11.397-6.596,17.1-17.846,17.1-33.75
			c0-15.3-5.779-26.17-17.325-32.625C2061.361,143.432,2044.339,140.205,2021.839,140.205z"/>
		<path fill="#211414" d="M2333.78,211.86c12.614-21.242,24.623-42.483,36.042-63.725c11.412-21.241,21.924-42.637,31.542-64.181
			h77.4c-17.101,33.603-34.805,66.15-53.101,97.65c-18.302,31.5-37.652,63.155-58.05,94.95v119.25h-70.2v-118.35
			c-20.404-31.796-39.824-63.598-58.274-95.4c-18.45-31.795-36.226-64.498-53.325-98.1h81.45
			c9.583,21.544,19.919,42.94,31.008,64.181C2309.354,169.377,2321.194,190.619,2333.78,211.86z"/>
		<path fill="#211414" d="M2732.338,395.805c-20.103-35.697-41.85-70.945-65.25-105.75c-23.4-34.798-48.305-67.647-74.7-98.55v204.3
			h-69.3V83.955h57.15c9.899,9.9,20.848,22.05,32.85,36.45c11.995,14.4,24.223,29.777,36.675,46.125
			c12.445,16.354,24.82,33.3,37.125,50.85c12.298,17.55,23.851,34.425,34.65,50.625V83.955h69.75v311.85H2732.338z"/>
	</g>
</g>
<g>
	<g>
		<path fill="#211414" d="M835.812,760.251v-255.15h23.939v255.15H835.812z"/>
		<path fill="#211414" d="M940.576,760.251v-255.15h17.325l81.27,198.135V505.102h20.79v255.15h-17.01l-81.585-200.34v200.34
			H940.576z"/>
		<path fill="#211414" d="M1138.55,760.251l6.3-255.15h23.94l50.399,221.445l51.345-221.445h23.94l6.3,255.15h-19.845l-5.04-203.175
			l-48.825,203.175h-15.435l-48.195-202.86l-5.04,202.86H1138.55z"/>
		<path fill="#211414" d="M1442.08,763.402c-17.01,0-30.294-3.308-39.848-9.923c-9.558-6.615-16.276-15.854-20.159-27.72
			c-3.889-11.862-5.828-25.461-5.828-40.793v-105.84c0-15.538,2.048-29.029,6.143-40.478c4.095-11.443,10.917-20.317,20.476-26.618
			c9.553-6.3,22.625-9.45,39.217-9.45c16.38,0,29.345,3.15,38.902,9.45c9.554,6.3,16.326,15.174,20.318,26.618
			c3.986,11.448,5.984,24.939,5.984,40.478v106.155c0,15.331-1.944,28.822-5.827,40.478c-3.889,11.654-10.553,20.844-20.003,27.563
			C1472.005,760.044,1458.879,763.402,1442.08,763.402z M1442.08,744.186c11.129,0,19.634-2.254,25.516-6.772
			c5.876-4.513,9.922-10.813,12.127-18.899c2.205-8.082,3.308-17.482,3.308-28.192V574.716c0-10.71-1.103-20.052-3.308-28.035
			c-2.205-7.979-6.251-14.121-12.127-18.428c-5.882-4.302-14.387-6.458-25.516-6.458c-11.34,0-20.002,2.156-25.987,6.458
			c-5.985,4.307-10.08,10.449-12.285,18.428c-2.205,7.983-3.308,17.325-3.308,28.035v115.605c0,10.71,1.103,20.11,3.308,28.192
			c2.205,8.087,6.3,14.387,12.285,18.899C1422.078,741.932,1430.74,744.186,1442.08,744.186z"/>
		<path fill="#211414" d="M1585.215,760.251v-255.15h54.81c11.547,0,21.312,1.472,29.295,4.41
			c7.979,2.943,14.382,7.245,19.215,12.915c4.829,5.67,8.348,12.443,10.553,20.318s3.308,16.538,3.308,25.988
			c0,8.189-0.999,16.119-2.992,23.782c-1.998,7.668-5.306,14.175-9.923,19.53c-4.621,5.354-11.133,8.874-19.53,10.552
			c9.869,2.731,17.641,7.402,23.311,14.018s9.607,14.283,11.813,22.995c2.205,8.717,3.308,17.694,3.308,26.933
			c0,10.08-0.896,19.584-2.678,28.508c-1.787,8.928-4.937,16.749-9.45,23.467c-4.519,6.724-10.66,12.024-18.428,15.908
			c-7.771,3.888-17.64,5.827-29.609,5.827H1585.215z M1609.154,615.037h34.65c9.868,0,17.429-1.939,22.68-5.828
			c5.247-3.883,8.924-9.238,11.025-16.064c2.097-6.822,3.149-14.963,3.149-24.412c0-10.287-1.417-18.792-4.252-25.516
			c-2.835-6.718-7.718-11.655-14.647-14.805c-6.93-3.15-16.907-4.725-29.925-4.725h-22.681V615.037z M1609.154,742.296h34.335
			c16.587,0,27.666-4.514,33.232-13.545c5.563-9.026,8.348-23.099,8.348-42.21c0-10.287-1.26-19.422-3.779-27.405
			c-2.521-7.979-6.772-14.224-12.758-18.742c-5.985-4.514-14.126-6.772-24.413-6.772h-34.965V742.296z"/>
		<path fill="#211414" d="M1783.79,760.251v-255.15h23.939v255.15H1783.79z"/>
		<path fill="#211414" d="M1888.555,760.251v-255.15h23.939v237.195h72.45v17.955H1888.555z"/>
		<path fill="#211414" d="M2055.406,760.251v-255.15h23.939v255.15H2055.406z"/>
		<path fill="#211414" d="M2152.926,760.251l53.865-255.15h25.2l54.18,255.15h-23.625l-12.6-68.355h-60.795l-12.915,68.355H2152.926
			z M2192.616,674.572h54.18l-27.09-137.655L2192.616,674.572z"/>
		<path fill="#211414" d="M2359.657,760.251v-255.15h57.645c15.957,0,28.508,2.574,37.643,7.717
			c9.135,5.148,15.696,12.6,19.688,22.365c3.987,9.765,5.985,21.371,5.985,34.808c0,9.45-1.054,18.378-3.15,26.774
			c-2.102,8.402-5.67,15.544-10.71,21.42c-5.04,5.882-12.182,9.766-21.42,11.655l39.061,130.41h-23.311l-37.485-125.37h-40.005
			v125.37H2359.657z M2383.597,617.242h32.445c10.71,0,19.003-1.782,24.885-5.355c5.877-3.568,10.08-8.819,12.601-15.75
			c2.52-6.93,3.779-15.642,3.779-26.145c0-15.75-2.731-27.509-8.189-35.28c-5.464-7.767-16.276-11.655-32.445-11.655h-33.075
			V617.242z"/>
		<path fill="#211414" d="M2560.53,760.251v-255.15h23.939v255.15H2560.53z"/>
		<path fill="#211414" d="M2658.05,760.251l53.865-255.15h25.2l54.18,255.15h-23.625l-12.6-68.355h-60.795l-12.915,68.355H2658.05z
			 M2697.74,674.572h54.18l-27.09-137.655L2697.74,674.572z"/>
	</g>
</g>
</svg>
