<?xml version="1.0" encoding="utf-8"?>
<!-- Generator: Adobe Illustrator 16.0.0, SVG Export Plug-In . SVG Version: 6.00 Build 0)  -->
<!DOCTYPE svg PUBLIC "-//W3C//DTD SVG 1.1//EN" "http://www.w3.org/Graphics/SVG/1.1/DTD/svg11.dtd">
<svg version="1.1" id="Layer_1" xmlns="http://www.w3.org/2000/svg" xmlns:xlink="http://www.w3.org/1999/xlink" x="0px" y="0px"
	 width="2876.125px" height="845.125px" viewBox="0 0 2876.125 845.125" enable-background="new 0 0 2876.125 845.125"
	 xml:space="preserve">
<g>
	<g>
		<path fill="#FC0101" d="M377.521,236.986c-8.673-1.445-38.887,6.764-38.887,6.764s25.299,12.027,28.19,6.246
			C369.715,244.214,386.193,238.433,377.521,236.986z"/>
		<path fill="#FC0101" d="M413.725,245.184c-8.672-1.445-38.887,6.764-38.887,6.764s25.299,12.027,28.19,6.246
			C405.92,252.41,422.397,246.629,413.725,245.184z"/>
		<path fill="#FC0101" d="M454.791,258.218c-8.559-2.017-39.249,4.173-39.249,4.173s24.446,13.678,27.715,8.1
			C446.523,264.912,463.349,260.234,454.791,258.218z"/>
		<path fill="#FC0101" d="M490.811,277.727c-8.398-3.215-40.354-1.137-40.354-1.137s22.91,17.205,26.984,11.999
			C481.516,283.381,499.209,280.941,490.811,277.727z"/>
		<path fill="#FC0101" d="M524.453,299.521c-8.434-4.418-42.287-6.179-42.287-6.179s21.963,20.918,26.889,15.948
			C513.982,304.318,532.887,303.938,524.453,299.521z"/>
		<path fill="#FC0101" d="M556.22,329.254c-7.673-5.824-41.16-13.272-41.16-13.272s18.4,24.566,24.152,20.435
			C544.965,332.282,563.893,335.079,556.22,329.254z"/>
		<path fill="#FC0101" d="M579.543,362.679c-6.033-6.396-35.063-18.126-35.063-18.126s12.879,24.877,18.676,22.02
			C568.957,363.715,585.576,369.074,579.543,362.679z"/>
		<path fill="#FC0101" d="M581.1,401.876c6.242-1.687,21.518,6.774,16.829-0.663c-4.687-7.438-30.91-24.545-30.91-24.545
			S574.86,403.561,581.1,401.876z"/>
		<path fill="#FC0101" d="M606.785,441.423c-2.76-7.259-22.541-26.601-22.541-26.601s0.799,9.539,2.776,16.663l-6.554,12.595
			c0,0-0.5,77.92,0,81.67s4.5,23.75,10.947,7.75s3.303-24,2.836-27s3.717-9.5,2.717-11.75s-2.717-7.252-2.717-10.5
			s5.25-1.125,5.342-3.125s-4.375-10.25-4.375-10.25c-3.592-5.375,7.5-4.5,5.5-8.625c-0.895-1.845-2.5-4-5-8.5
			s-1.996-14.125,0.004-13.958C601.639,441.83,609.033,447.333,606.785,441.423z"/>
	</g>
	<path fill="#FC7D00" d="M521.635,582.416c-54,98-150.918,94.334-150.918,94.334c-36.192,2.812-94.387,1.574-107.051-11.441
		c6.671-2.016,18.635-1.559,29.734,3.022c6.1-4.419,21.9-0.915,31.591,2.404c12.024-7.681,36.866-2.565,36.866-2.565
		c6.838-12.816,41.053-14.401,41.053-14.401c3.627-13.253,22.391-28.352,42.388-33.325c-1.335-18.641,18.335-44.693,34.502-53.808
		c-7.167-18.781,7.833-48.886,17.106-57.058c-8.727-15.171-5.272-39.494,3.352-55.844c-9.043-9.015-9.625-38.65-9.434-53.982
		c-9.477-5.999-15.191-28.336-17.713-39.889c-12.855-8.219-20.145-18.779-28.155-33.768c-15.011-1.654-27.037-18.922-27.037-18.922
		s-0.286-3.09,15.048-2.998c30,14.76,79.67,44.764,77.333,103.752C509.633,424.772,539.635,472.416,521.635,582.416z"/>
	<path fill="#FC0101" d="M315.838,384.707c-31.627,8.92-86.771,40.547-86.771,106.232c0,34.06,25.14,76.229,68.118,76.229
		c34.295,0,57.577-23.518,57.577-68.93c0-42.212-41.257-95.691-100.556-95.691c-103.801,0-152.457,83.527-152.457,154.89
		S156.895,751.25,347.464,751.25c165.431,0,252.202-134.615,246.524-277.34c-7.766-195.281-231.116-226.252-264.365-231.928
		c-33.248-5.677,43.859-19.922,34.127-20.732c-9.73-0.811-86.838,0.459-124.141,0.459c-9.293,0-19.905,0-28.575,1.146
		c-6.778,0.896-12.368,2.494-15.216,5.341c-21.811,1.781-50.977,0-68.117,0c-8.921,0,4.865,12.164,12.164,12.164
		c-19.463,2.433-38.115,7.298-38.115,7.298s98.123,8.109,126.506,21.896c-28.383,8.108-108.816,49.916-84.506,40.695
		c29-11,37.697-11.891,75-20c16.921-3.678,33-3,43.796-0.479c4.515,1.054,9.501,4.922,13.556,8.166c2.49,0.116-1.966-7.842,0-7.299
		c5.021,1.386,8.445,7.159,9.731,9.73c7.298-8.109,5.677-16.219,2.433-23.517c46.224,0.811,145.304,13.575,190.57,84.337
		C549.387,471.478,491,675.833,340.977,675.833c-133.805,0-180.839-78.661-180.839-118.396c0-72.174,37.304-122.452,91.636-122.452
		c64.064-2.432,77.039,44.602,77.039,63.254c0,12.975-10.542,40.547-30.815,39.735c-19.446-0.777-40.547-25.95-40.547-51.089
		c0-35.681,36.492-87.581,76.228-87.581c2.434,8.109,6.488,26.761,9.731,30.815c3.244,4.055,60.82-66.496,56.766-70.551
		s-107.044,15.407-115.153,16.219C276.912,376.598,311.783,379.842,315.838,384.707z"/>
	<path fill="#460000" d="M207.25,229.75c4.473-2.236,12-2,19.5-0.5c5.591,1.118-4.266,0.218-8.5,0.5c-7.5,0.5-7,3-6,7
		c0.971,3.881-6,1-7-4c-2.139,0-7.067-1.746-7-2C198.373,230.291,201.25,232.75,207.25,229.75z"/>
	<path fill="#FC0101" d="M206.551,265.916c-12.418-1.043-52.596,8.732-61.676,10.334c-17,3-27,8-48.043,4.771
		c-0.129-0.021-0.242-0.034-0.367-0.052c1.808-1.242,6.885-1.982,4.033-2.594c-3.932-0.844-15.152-1.334-15.057-0.544
		c0.094,0.79,12.119,13.714,12.119,13.714c3.106,2.852-0.924-3.201-2.218-6.865c1.878,0.727,4.134,1.299,6.341,1.43
		c19.191,1.141,26.793-6.188,67.191-9.859c11-1,29.037,1.32,37.479,1.484c10.862-4.9,17.446-6.984,21.901-8.18
		C223.631,268.23,214.627,266.202,206.551,265.916z"/>
	<g>
		<path fill="#FC0101" d="M315.838,384.707c14.795-4.957,56.463-12.289,60.129-12.957c3.666-0.666,3.666-0.333,0,1.667
			s-30.192,24.312-42.289,25.887"/>
		<path d="M315.838,384.707c0,0,1.744-0.582,4.796-1.602c1.52-0.531,3.408-1.033,5.571-1.633c2.164-0.596,4.605-1.311,7.292-1.928
			c2.684-0.642,5.583-1.391,8.673-2.057c3.089-0.674,6.338-1.432,9.719-2.109c3.381-0.68,6.865-1.435,10.425-2.095
			c3.559-0.668,7.173-1.347,10.788-2.026l2.715-0.48c0.448-0.079,0.923-0.16,1.397-0.225c0.241-0.031,0.483-0.062,0.751-0.08
			c0.139-0.007,0.273-0.016,0.451-0.008c0.08,0.002,0.194,0.014,0.313,0.034c0.094,0.022,0.154,0.034,0.271,0.081
			c0.135,0.066,0.269,0.107,0.482,0.373c0.186,0.199,0.25,0.691,0.185,0.846c-0.063,0.273-0.107,0.294-0.176,0.424
			c-0.101,0.146-0.186,0.231-0.253,0.296c-0.14,0.131-0.254,0.218-0.365,0.3c-0.223,0.16-0.429,0.291-0.636,0.418
			c-0.412,0.254-0.817,0.481-1.223,0.707c-0.738,0.375-1.553,0.935-2.225,1.418c-2.908,2.129-5.771,4.223-8.539,6.25
			c-2.781,2.044-5.528,3.947-8.149,5.727c-2.629,1.768-5.148,3.393-7.531,4.803c-2.369,1.433-4.599,2.654-6.626,3.637
			c-2.009,1.016-3.837,1.749-5.345,2.325c-0.771,0.241-1.461,0.458-2.061,0.646c-0.591,0.211-1.141,0.23-1.56,0.328
			c-0.849,0.148-1.302,0.228-1.302,0.228s0.445-0.116,1.279-0.333c0.41-0.132,0.94-0.191,1.513-0.449
			c0.578-0.227,1.244-0.486,1.989-0.778c1.457-0.662,3.214-1.492,5.14-2.619c0.981-0.526,1.983-1.168,3.047-1.825
			c1.071-0.643,2.171-1.369,3.318-2.122c4.584-3.026,9.769-6.805,15.245-10.968c2.768-2.07,5.506-4.263,8.508-6.436
			c0.797-0.569,1.477-1.053,2.356-1.519c0.389-0.22,0.778-0.442,1.142-0.669c0.183-0.113,0.36-0.229,0.508-0.338
			c0.072-0.053,0.139-0.107,0.165-0.134c0.017-0.015,0.008-0.014-0.026,0.04c-0.045,0.077-0.048,0.052-0.107,0.267
			c-0.014,0.089-0.022,0.151-0.001,0.319c0.022,0.146,0.1,0.285,0.156,0.366c0.051,0.085,0.19,0.19,0.214,0.206
			c0.04,0.028,0.084,0.053,0.131,0.07c0.063,0.025,0.066,0.026,0.105,0.033c0.006,0.004,0.007,0-0.027,0
			c-0.052-0.002-0.146,0.002-0.235,0.008c-0.189,0.014-0.402,0.041-0.615,0.07c-0.435,0.063-0.864,0.137-1.318,0.221l-2.71,0.495
			c-7.226,1.32-14.452,2.641-21.227,3.879c-3.383,0.64-6.653,1.258-9.754,1.844c-3.097,0.61-6.023,1.187-8.726,1.719
			c-2.71,0.517-5.161,1.071-7.352,1.53c-2.187,0.467-4.102,0.854-5.651,1.292C317.622,384.258,315.838,384.707,315.838,384.707z"/>
	</g>
	<g>
		<path fill="#FC0101" d="M140.217,240.339c3.75-0.167,11.167-2.922,11.584-5.839"/>
		<path d="M140.177,239.84c0,0,0.212-0.009,0.582-0.025c0.369-0.026,0.847-0.068,1.47-0.174c1.227-0.198,2.859-0.602,4.424-1.203
			c1.569-0.585,3.073-1.377,4.01-2.219c0.254-0.191,0.415-0.432,0.596-0.614c0.152-0.202,0.256-0.401,0.358-0.556
			c0.117-0.35,0.185-0.549,0.185-0.549s-0.053,0.206-0.146,0.566c-0.09,0.162-0.182,0.373-0.322,0.592
			c-0.168,0.197-0.32,0.461-0.563,0.673c-0.895,0.933-2.368,1.853-3.923,2.566c-1.551,0.731-3.188,1.269-4.451,1.569
			c-0.62,0.156-1.195,0.25-1.562,0.301c-0.368,0.045-0.578,0.07-0.578,0.07c-0.274,0.032-0.523-0.164-0.557-0.438
			c-0.032-0.275,0.163-0.523,0.438-0.557C140.15,239.842,140.165,239.841,140.177,239.84z"/>
	</g>
	<g>
		
			<path fill="none" stroke="#000000" stroke-width="1.7008" stroke-linecap="round" stroke-linejoin="round" stroke-miterlimit="10" d="
			M297.742,412.928c-7.156-3.604-14.855-6.398-23.02-8.176"/>
		
			<path fill="none" stroke="#000000" stroke-width="1.7008" stroke-linecap="round" stroke-linejoin="round" stroke-miterlimit="10" d="
			M245.143,435.248c2.182-0.17,4.391-0.264,6.631-0.264c8.855-0.336,16.73,0.277,23.734,1.625"/>
	</g>
	<g>
		<path fill="#FC0101" d="M759.625,96.502c-4.527,1.133-15.85,2.265-15.85,2.265c-1.131,2.265-2.264,4.528-6.793,4.528
			l-44.658,63.912c1.131,2.264,5.66,4.527,5.66,5.66c-1.133,1.132-7.926,0-7.926,0c-0.408,0-4.163-0.13-9.507,0.158l-55.253,36.824
			c-0.887,2.102-1.55,3.814-2.035,4.906c0,3.396,4.461,4.236,3.328,5.369c-1.133,1.132-5.592-0.842-7.855,0.291
			c-0.518,0.259-5.787,0.23-13.111,0.854l-55.789,22.729c-4.381,3.941-6.951,7.147-6.951,8.117c0,4.528,0.665,6.301-0.584,7.301
			c-0.834,0.668-3.786-5.548-4.917-4.416c-0.552,0.551-21.559-1.823-45.032-3.021l-53.523,1.859
			c-3.279,0.793-5.967,1.805-7.861,3.079c-2.645,1.779-2.282,6.604,3.125,9.208c6.75,3.25,10.125,5.813-0.75,5.313
			c-7.274-0.334-6.82,3.42,0,4.313c8.425,1.102,17.563,1.75,2.688,4.875c-9.06,1.903-19.952-0.289-11.75,2.625
			c4.75,1.688,20.876,1.922,11.625,4.188c-8.839,1.965-25.572,3.014-31.944,1.002c-13.289-4.195-19.278-18.797-11.938-33.066
			c7.341-14.271,80.313-86.189,98.279-109.289c14-18,29-31.429,78.333-34.668c14.704-0.965,123.495-13.066,154.321-16.999
			c8.303-1.06,13.463-1.704,13.463-1.704s2.83,0.394,7.357,1.525C750.568,94.238,759.625,96.502,759.625,96.502z"/>
		<g>
			<path d="M736.982,103.295c0.004-0.023-0.348-0.055-1.028-0.041c-0.681,0.013-1.69,0.051-3.007,0.117
				c-2.633,0.133-6.491,0.375-11.4,0.715c-9.818,0.663-23.832,1.795-40.649,3.123c-16.818,1.325-36.426,3.037-57.423,4.946
				c-10.498,0.96-21.342,2-32.348,3.163c-11.003,1.174-22.179,2.428-33.286,4.045c-2.776,0.405-5.549,0.827-8.301,1.318
				c-2.74,0.502-5.51,1.017-8.09,1.829c-0.628,0.206-1.275,0.453-1.715,0.733l-0.122,0.094c-0.019,0.023-0.032,0.039-0.041,0.041
				c0.033-0.033,0.021-0.043,0.051-0.156c0.023,0.043-0.049-0.241-0.021-0.141l0.034,0.122c-0.012-0.105,0.012-0.001,0.107,0.081
				c0.075,0.084,0.188,0.176,0.298,0.266c0.978,0.723,2.274,1.298,3.518,1.83c2.531,1.057,5.155,1.95,7.773,2.806
				c10.51,3.364,21.053,6.14,31.24,8.827c20.401,5.307,39.493,10.106,55.84,14.289c16.35,4.172,29.916,7.893,39.345,10.729
				c4.713,1.423,8.385,2.646,10.851,3.584c2.472,0.926,3.716,1.592,3.716,1.592s-1.256-0.643-3.741-1.521
				c-2.48-0.891-6.171-2.045-10.905-3.38c-9.463-2.694-23.117-6.046-39.498-10.074c-8.195-1.996-17.074-4.159-26.466-6.446
				c-9.392-2.289-19.299-4.697-29.511-7.344c-10.211-2.656-20.764-5.394-31.358-8.744c-2.645-0.855-5.292-1.744-7.91-2.826
				c-1.31-0.566-2.605-1.099-3.89-2.031c-0.161-0.13-0.322-0.258-0.484-0.43c-0.152-0.164-0.332-0.35-0.498-0.769l-0.037-0.13
				c-0.009,0.018-0.063-0.354-0.034-0.398c0.013-0.296,0.118-0.451,0.221-0.643c0.099-0.136,0.204-0.25,0.308-0.35l0.293-0.229
				c0.742-0.473,1.426-0.703,2.121-0.943c2.766-0.879,5.53-1.393,8.311-1.915c2.777-0.504,5.563-0.943,8.352-1.353
				c11.159-1.586,22.349-2.802,33.367-3.939c11.021-1.126,21.873-2.13,32.38-3.054c21.015-1.847,40.651-3.245,57.483-4.431
				c16.833-1.178,30.875-1.938,40.704-2.455c4.915-0.25,8.778-0.421,11.414-0.506c1.317-0.043,2.328-0.063,3.01-0.062
				C736.635,103.233,736.987,103.271,736.982,103.295z"/>
		</g>
		<g>
			<path d="M683.967,170.75c0,0-4.4-1.213-12.101-3.337c-7.693-2.146-18.683-5.214-31.871-8.894
				c-13.193-3.658-28.585-7.926-45.076-12.497c-8.247-2.274-16.777-4.601-25.458-6.906c-8.681-2.301-17.512-4.603-26.377-6.715
				c-4.428-1.056-8.871-2.114-13.304-2.88c-1.101-0.179-2.225-0.353-3.267-0.39c-0.245-0.005-0.519-0.002-0.667,0.03
				c-0.037,0.006-0.037,0.014-0.052,0.01c0.025-0.006,0.05-0.02,0.068-0.038c0.01-0.015,0.22-0.216,0.096-0.085
				c-0.016,0.035,0.138-0.168,0.129-0.27c0.01-0.119,0.011-0.063,0.009-0.104c-0.013-0.043,0.008,0.012,0.006,0.02
				c0.112,0.311,0.457,0.807,0.767,1.219c1.331,1.725,2.895,3.361,4.436,4.971c6.25,6.403,12.744,12.412,19.028,18.207
				c6.311,5.771,12.437,11.324,18.284,16.549c5.853,5.22,11.41,10.133,16.564,14.631c5.17,4.483,9.915,8.586,14.172,12.162
				c4.25,3.585,8.03,6.617,11.158,9.098c3.178,2.414,5.646,4.352,7.421,5.547c1.745,1.237,2.677,1.896,2.677,1.896
				s-0.949-0.633-2.729-1.82c-1.806-1.152-4.343-3-7.569-5.36c-3.182-2.416-7.03-5.372-11.359-8.87
				c-4.339-3.486-9.176-7.49-14.394-11.927c-5.219-4.438-10.838-9.278-16.761-14.426c-5.918-5.153-12.136-10.616-18.459-16.391
				c-6.321-5.78-12.842-11.759-19.172-18.19c-1.571-1.629-3.141-3.249-4.586-5.101c-0.354-0.497-0.711-0.911-1.011-1.661
				c-0.034-0.129-0.072-0.207-0.089-0.393c-0.003-0.11-0.022-0.127,0.004-0.314c0.013-0.168,0.164-0.449,0.191-0.471
				c-0.076,0.082,0.159-0.197,0.239-0.236c0.08-0.054,0.167-0.102,0.254-0.143c0.12-0.043,0.254-0.086,0.355-0.104
				c0.41-0.078,0.708-0.065,1.027-0.065c1.228,0.041,2.354,0.219,3.495,0.396c4.532,0.766,8.98,1.803,13.433,2.851
				c8.885,2.157,17.712,4.497,26.392,6.837c8.678,2.345,17.201,4.707,25.442,7.018c16.483,4.619,31.804,9.152,44.944,13
				c13.14,3.854,24.051,7.197,31.7,9.494C679.6,169.422,683.967,170.75,683.967,170.75z"/>
		</g>
		<g>
			<path d="M616.717,216.75c0,0-0.198-0.137-0.582-0.402c-0.383-0.266-0.961-0.646-1.662-1.219
				c-1.432-1.106-3.516-2.758-6.117-4.904c-5.201-4.303-12.623-10.462-21.404-17.997c-8.776-7.54-19.027-16.325-29.875-25.894
				c-5.409-4.801-10.998-9.762-16.678-14.803c-5.646-5.084-11.398-10.217-17.021-15.535l-2.081-2.039l-0.501-0.492l-0.26-0.252
				l-0.202-0.167c-0.142-0.108-0.284-0.185-0.353-0.208c-0.082-0.006,0.057-0.01,0.063-0.033c-0.03-0.018-0.231,0.41-0.293,0.793
				c-0.082,0.406-0.123,0.857-0.146,1.313c-0.047,0.91-0.017,1.854,0.032,2.793c0.232,3.772,0.803,7.555,1.402,11.285
				c1.233,7.469,2.73,14.785,4.23,21.85c3.033,14.129,6.021,27.289,8.668,38.551c2.613,11.271,4.791,20.662,6.315,27.237
				c0.757,3.289,1.31,5.884,1.68,7.653c0.369,1.77,0.533,2.721,0.533,2.721s-0.195-0.944-0.623-2.701
				c-0.441-1.752-1.088-4.323-1.912-7.596c-1.647-6.543-4.127-15.861-6.924-27.09c-2.782-11.23-6.086-24.324-9.18-38.463
				c-1.538-7.072-3.075-14.393-4.354-21.901c-0.622-3.759-1.218-7.554-1.478-11.45c-0.056-0.978-0.094-1.959-0.048-2.971
				c0.024-0.506,0.064-1.018,0.169-1.555c0.059-0.273,0.119-0.545,0.24-0.844c0.121-0.289,0.268-0.623,0.652-0.939
				c0.381-0.342,1.055-0.406,1.432-0.266c0.393,0.121,0.664,0.304,0.908,0.482c0.122,0.092,0.238,0.195,0.354,0.293l0.261,0.251
				l0.532,0.518l2.058,2.003c5.559,5.311,11.291,10.479,16.903,15.582c5.652,5.066,11.214,10.053,16.597,14.879
				c10.802,9.613,20.883,18.586,29.523,26.275c8.678,7.65,15.88,14.059,20.991,18.465c2.557,2.204,4.559,3.934,5.955,5.08
				c0.682,0.595,1.249,0.996,1.624,1.275C616.523,216.606,616.717,216.75,616.717,216.75z"/>
		</g>
		<g>
			<path d="M537.301,250.417c0,0-1.072-4.272-2.949-11.748c-1.837-7.485-4.519-18.166-7.568-31.022
				c-1.516-6.432-3.158-13.398-4.895-20.768c-1.711-7.375-3.524-15.15-5.264-23.228c-1.748-8.078-3.568-16.409-5.02-25.006
				c-0.142-1.095-0.284-2.191-0.427-3.29c0,0-0.035-0.298-0.052-0.291c-0.007-0.016-0.018-0.029-0.006-0.02
				c0.054,0.069,0.139,0.049-0.021,0.061c-0.291,0.047-0.763,0.279-1.176,0.544c-1.709,1.119-3.314,2.634-4.88,4.124
				c-3.123,3.029-6.113,6.255-9.078,9.498c-5.939,6.484-11.746,13.105-17.466,19.619c-5.722,6.516-11.354,12.928-16.804,19.133
				c-10.928,12.387-21.289,23.801-30.075,33.667c-8.796,9.858-16.159,18.042-21.159,23.905c-2.505,2.926-4.448,5.248-5.7,6.887
				c-0.617,0.826-1.11,1.447-1.368,1.914c-0.282,0.453-0.428,0.688-0.428,0.688s0.139-0.238,0.407-0.699
				c0.245-0.478,0.72-1.111,1.314-1.957c1.212-1.674,3.069-4.069,5.521-7.045c2.438-2.986,5.458-6.564,8.93-10.66
				c3.479-4.088,7.418-8.689,11.766-13.665c8.688-9.954,18.824-21.566,29.686-34.009c5.421-6.227,11.023-12.662,16.716-19.201
				c5.693-6.541,11.47-13.195,17.408-19.723c2.991-3.244,6.006-6.469,9.194-9.535c1.618-1.52,3.21-3.035,5.162-4.308
				c0.512-0.304,1.013-0.62,1.799-0.766c0.207-0.024,0.435-0.046,0.716,0.026c0.27,0.057,0.568,0.238,0.759,0.468
				c0.181,0.222,0.286,0.46,0.346,0.708c0.063,0.267,0.044,0.244,0.082,0.513c0.134,1.06,0.268,2.117,0.4,3.173
				c1.396,8.51,3.184,16.867,4.894,24.938c3.448,16.143,6.749,31.2,9.646,44.09C533.465,233.223,537.301,250.417,537.301,250.417z"
				/>
		</g>
	</g>
	<g>
		
			<path fill="none" stroke="#000000" stroke-width="1.7008" stroke-linecap="round" stroke-linejoin="round" stroke-miterlimit="10" d="
			M743.777,94.24c-4.531-1.131-7.36-1.53-7.36-1.53s-5.16,0.649-13.46,1.71c-30.83,3.93-139.62,16.03-154.32,17
			c-49.34,3.24-64.34,16.66-78.34,34.66c-15.5,19.939-71.98,76.24-91.88,100.46c-8.4,1.53-17.479,3.81-21.479,4.851
			c-3.311-0.811-6.5-1.561-9.58-2.261c3.949-5.479,18.399-10.771,10.159-12.14c-7.96-1.33-34.05,5.47-38.28,6.6
			c-4.039-0.689-7.289-1.21-9.609-1.609c-33.25-5.67,43.859-19.92,34.119-20.73c-9.729-0.811-86.829,0.46-124.139,0.46
			c-9.291,0-19.9,0-28.57,1.149c-6.78,0.891-12.37,2.49-15.221,5.341c-21.81,1.78-50.97,0-68.119,0
			c-8.92,0,4.869,12.159,12.17,12.159c-19.461,2.431-38.121,7.301-38.121,7.301s98.131,8.109,126.511,21.89
			c-4.63-1.319-13.63-3.35-21.71-3.63c-12.41-1.05-52.59,8.73-61.67,10.33c-17,3-27,8-48.04,4.77c-0.13-0.02-0.25-0.029-0.37-0.049
			c1.811-1.24,6.88-1.98,4.029-2.601c-3.93-0.841-15.149-1.33-15.059-0.54c0.1,0.79,12.119,13.72,12.119,13.72
			c3.11,2.851-0.92-3.21-2.21-6.87c1.87,0.73,4.13,1.301,6.341,1.43c19.189,1.141,26.789-6.189,67.189-9.859
			c11-1,29.029,1.32,37.48,1.48c-34.351,14.549-82.08,39.899-62.611,32.52c29-11,37.701-11.891,75-20c16.921-3.68,33-3,43.801-0.48
			c4.51,1.061,9.5,4.92,13.55,8.17c2.49,0.11-1.96-7.84,0-7.299c5.03,1.379,8.45,7.159,9.74,9.729c7.29-8.11,5.67-16.22,2.43-23.521
			c30.45,0.541,83.83,6.26,129.66,30.33c0.06,0.09,12.06,17.271,27.03,18.92c8.01,14.98,15.3,25.541,28.15,33.76
			c2.529,11.561,8.239,33.891,17.719,39.891c-0.189,15.33,0.391,44.971,9.431,53.98c-8.62,16.35-12.08,40.68-3.351,55.85
			c-9.27,8.17-24.27,38.27-17.109,57.061c-16.16,9.109-35.83,35.159-34.5,53.799c-20,4.98-38.76,20.08-42.391,33.33
			c0,0-34.209,1.58-41.049,14.4c0,0-24.841-5.12-36.871,2.57c-9.689-3.32-25.49-6.83-31.59-2.41
			c-11.09-4.58-23.039-5.04-29.709-3.03c-75.211-22.76-103.551-77.03-103.551-107.86c0-69.199,34.29-118.26,85.01-122.189
			c-9.68,14.91-16.08,33.33-16.08,55.689c0,34.061,25.141,76.23,68.121,76.23c34.289,0,57.579-23.52,57.579-68.93
			c0-30.84-22.03-67.69-57.03-85.311c10.94-8.35,23.271-13.63,35.94-13.63c2.431,8.11,6.49,26.761,9.729,30.82
			c3.25,4.05,60.82-66.5,56.771-70.55c-4.06-4.061-107.05,15.41-115.149,16.22c-8.11,0.81,26.76,4.05,30.81,8.92
			c-11.79,3.319-26.86,9.81-41.11,20.04c-6.56-1.43-13.41-2.2-20.52-2.2c-103.801,0-152.461,83.521-152.461,154.89
			c0,71.36,55.15,193.811,245.721,193.811c141.359,0,225.27-98.3,243.16-215.96c0.26-0.54,0.52-1.13,0.79-1.79
			c6.44-16,3.3-24,2.829-27c-0.459-3,3.721-9.5,2.721-11.75s-2.721-7.25-2.721-10.5s5.25-1.12,5.341-3.12
			c0.101-2-4.37-10.26-4.37-10.26c-3.59-5.37,7.5-4.5,5.5-8.62c-0.891-1.84-2.5-4-5-8.5s-2-14.12,0-13.96
			c5.92,2.04,13.32,7.54,11.07,1.63c-2.76-7.26-22.541-26.6-22.541-26.6s0.031,0.42,0.101,1.119c-1.51-4.899-3.18-9.66-5-14.279
			c0.591,0.279,1.181,0.369,1.75,0.22c6.25-1.69,21.521,6.771,16.83-0.67c-4.229-6.72-26.04-21.319-30.21-24.08
			c-2.01-3.569-4.109-7.05-6.3-10.43c0.63,0.159,1.21,0.13,1.739-0.13c5.801-2.85,22.42,2.5,16.391-3.891
			c-5.52-5.85-30.26-16.16-34.45-17.88c-2.319-2.71-4.7-5.36-7.13-7.93c0.46-0.05,0.88-0.19,1.25-0.45
			c5.75-4.141,24.68-1.34,17-7.17c-7.13-5.41-36.55-12.221-40.66-13.16c-2.58-2.1-5.199-4.14-7.84-6.119
			c0.52-0.111,0.98-0.32,1.34-0.681c4.93-4.97,23.83-5.351,15.4-9.771c-7.711-4.029-36.61-5.85-41.551-6.14
			c-2.279-1.351-4.56-2.67-6.85-3.95c0.57-0.15,1.051-0.41,1.381-0.84c4.079-5.21,21.77-7.65,13.369-10.859
			c-8.061-3.09-37.82-1.301-40.18-1.15c-3.67-1.67-7.32-3.25-10.96-4.76c1.71,0.05,3-0.32,3.59-1.33
			c3.271-5.58,20.09-10.26,11.53-12.27c-4.7-1.111-16.11,0.26-25.42,1.719c0.039-1.25,0.6-2.35,1.6-3.02
			c1.9-1.279,4.58-2.29,7.859-3.08l53.531-1.859c23.469,1.199,44.479,3.569,45.029,3.02c1.13-1.13,4.08,5.08,4.91,4.42
			c1.25-1,0.59-2.779,0.59-7.3c0-0.97,2.57-4.181,6.95-8.12l55.79-22.73c7.32-0.619,12.59-0.6,13.109-0.85
			c2.26-1.141,6.721,0.84,7.851-0.29c1.14-1.14-3.32-1.979-3.32-5.37c0.479-1.1,1.14-2.81,2.03-4.91l55.25-36.82
			c5.35-0.289,9.1-0.159,9.51-0.159c0,0,6.79,1.13,7.93,0c0-1.14-4.529-3.399-5.66-5.66l44.66-63.91c4.53,0,5.66-2.271,6.791-4.53
			c0,0,11.319-1.14,15.85-2.27C759.627,96.5,750.566,94.24,743.777,94.24z M275.507,436.609c43.67,8.41,53.31,45.551,53.31,61.631
			c0,12.97-10.55,40.55-30.82,39.73c-19.449-0.771-40.549-25.951-40.549-51.091C257.447,471.33,264.387,452.689,275.507,436.609z"/>
	</g>
</g>
<g>
	<g>
		<path fill="#212121" d="M931.182,83.955c5.414,9.9,11.651,22.127,18.725,36.675c7.066,14.555,14.435,30.305,22.106,47.25
			c7.671,16.952,15.265,34.277,22.788,51.975c7.517,17.705,14.583,34.354,21.206,49.95c6.616-15.596,13.683-32.245,21.206-49.95
			c7.517-17.697,15.11-35.022,22.781-51.975c7.671-16.945,15.04-32.695,22.113-47.25c7.066-14.548,13.311-26.775,18.725-36.675
			h63.899c2.996,20.7,5.773,43.875,8.325,69.525c2.546,25.65,4.796,52.355,6.75,80.1c1.948,27.752,3.748,55.575,5.4,83.475
			c1.646,27.9,3.072,54.154,4.274,78.75h-68.399c-0.9-30.298-2.103-63.295-3.601-99c-1.504-35.697-3.754-71.698-6.75-108
			c-5.421,12.6-11.439,26.55-18.056,41.85c-6.624,15.3-13.17,30.6-19.639,45.9s-12.712,29.925-18.731,43.875
			c-6.019,13.95-11.137,25.875-15.349,35.775h-49.05c-4.219-9.9-9.331-21.825-15.35-35.775s-12.27-28.575-18.738-43.875
			s-13.015-30.6-19.631-45.9c-6.624-15.3-12.643-29.25-18.057-41.85c-3.002,36.302-5.252,72.303-6.75,108
			c-1.505,35.705-2.7,68.702-3.6,99h-68.4c1.195-24.596,2.623-50.85,4.275-78.75c1.645-27.9,3.445-55.723,5.399-83.475
			c1.948-27.745,4.198-54.45,6.75-80.1c2.546-25.65,5.323-48.825,8.325-69.525H931.182z"/>
		<path fill="#212121" d="M1471.501,395.805c-3.474-10.835-7.2-21.966-11.193-33.385c-3.994-11.418-7.974-22.795-11.933-34.115
			H1326.58c-3.938,11.377-7.89,22.774-11.841,34.207c-3.959,11.433-7.643,22.535-11.053,33.293h-72.9
			c11.735-33.596,22.865-64.646,33.398-93.15c10.533-28.497,20.834-55.35,30.916-80.55c10.083-25.2,20.012-49.12,29.792-71.775
			c9.78-22.647,19.94-44.775,30.474-66.375h66.543c10.245,21.6,20.342,43.728,30.291,66.375
			c9.942,22.655,19.969,46.575,30.065,71.775c10.097,25.2,20.419,52.053,30.966,80.55c10.547,28.505,21.698,59.555,33.455,93.15
			H1471.501z M1387.161,154.604c-1.568,4.528-3.86,10.695-6.877,18.485c-3.016,7.798-6.447,16.805-10.301,27.021
			c-3.853,10.216-8.163,21.466-12.923,33.75c-4.761,12.284-9.598,25.165-14.513,38.644h89.178
			c-4.774-13.521-9.395-26.445-13.866-38.764c-4.472-12.318-8.726-23.59-12.747-33.813c-4.029-10.216-7.559-19.216-10.597-27.007
			C1391.479,165.138,1389.024,159.034,1387.161,154.604z"/>
		<path fill="#212121" d="M1864.969,239.655c0,27-4.205,50.554-12.601,70.65c-8.402,20.103-20.327,36.752-35.774,49.95
			c-15.455,13.204-34.277,23.104-56.476,29.7c-22.204,6.595-47.103,9.899-74.7,9.899c-12.6,0-27.302-0.527-44.1-1.575
			c-16.805-1.055-33.3-3.22-49.5-6.524V88.005c16.2-2.996,33.075-5.021,50.625-6.075c17.55-1.048,32.625-1.575,45.225-1.575
			c26.698,0,50.921,3.002,72.676,9c21.747,6.005,40.422,15.455,56.024,28.35c15.596,12.902,27.598,29.405,36,49.5
			C1860.764,187.307,1864.969,211.459,1864.969,239.655z M1662.019,338.654c3.298,0.303,7.122,0.527,11.475,0.676
			c4.346,0.154,9.521,0.225,15.525,0.225c35.1,0,61.122-8.846,78.075-26.55c16.945-17.698,25.425-42.146,25.425-73.35
			c0-32.695-8.101-57.445-24.3-74.25c-16.2-16.798-41.851-25.2-76.95-25.2c-4.803,0-9.753,0.078-14.851,0.225
			c-5.104,0.155-9.899,0.527-14.399,1.125V338.654z"/>
		<path fill="#212121" d="M2017.788,80.354c46.801,0,82.646,8.325,107.551,24.975c24.897,16.65,37.35,42.525,37.35,77.625
			c0,21.902-5.027,39.677-15.075,53.325c-10.055,13.655-24.524,24.377-43.425,32.175c6.3,7.805,12.896,16.727,19.8,26.774
			c6.897,10.055,13.726,20.553,20.476,31.5c6.75,10.955,13.274,22.353,19.574,34.2c6.301,11.854,12.15,23.478,17.551,34.875h-78.477
			c-5.723-10.195-11.523-20.545-17.395-31.05c-5.871-10.498-11.891-20.7-18.063-30.601c-6.174-9.899-12.276-19.272-18.296-28.125
			c-6.025-8.845-12.051-16.875-18.07-24.074h-34.649v113.85h-70.2V88.455c15.3-2.995,31.12-5.098,47.475-6.3
			C1990.261,80.959,2004.886,80.354,2017.788,80.354z M2021.839,140.205c-5.105,0-9.676,0.155-13.726,0.45
			c-4.05,0.302-7.875,0.604-11.475,0.9v84.6h19.8c26.396,0,45.295-3.298,56.7-9.9c11.397-6.596,17.1-17.846,17.1-33.75
			c0-15.3-5.779-26.17-17.325-32.625C2061.361,143.432,2044.339,140.205,2021.839,140.205z"/>
		<path fill="#212121" d="M2333.78,211.86c12.614-21.242,24.623-42.483,36.042-63.725c11.412-21.241,21.924-42.637,31.542-64.181
			h77.4c-17.101,33.603-34.805,66.15-53.101,97.65c-18.302,31.5-37.652,63.155-58.05,94.95v119.25h-70.2v-118.35
			c-20.404-31.796-39.824-63.598-58.274-95.4c-18.45-31.795-36.226-64.498-53.325-98.1h81.45
			c9.583,21.544,19.919,42.94,31.008,64.181C2309.354,169.377,2321.194,190.619,2333.78,211.86z"/>
		<path fill="#212121" d="M2732.338,395.805c-20.103-35.697-41.85-70.945-65.25-105.75c-23.4-34.798-48.305-67.647-74.7-98.55v204.3
			h-69.3V83.955h57.15c9.899,9.9,20.848,22.05,32.85,36.45c11.995,14.4,24.223,29.777,36.675,46.125
			c12.445,16.354,24.82,33.3,37.125,50.85c12.298,17.55,23.851,34.425,34.65,50.625V83.955h69.75v311.85H2732.338z"/>
	</g>
</g>
<g>
	<g>
		<path fill="#212121" d="M835.812,760.251v-255.15h23.939v255.15H835.812z"/>
		<path fill="#212121" d="M940.576,760.251v-255.15h17.325l81.27,198.135V505.102h20.79v255.15h-17.01l-81.585-200.34v200.34
			H940.576z"/>
		<path fill="#212121" d="M1138.55,760.251l6.3-255.15h23.94l50.399,221.445l51.345-221.445h23.94l6.3,255.15h-19.845l-5.04-203.175
			l-48.825,203.175h-15.435l-48.195-202.86l-5.04,202.86H1138.55z"/>
		<path fill="#212121" d="M1442.08,763.402c-17.01,0-30.294-3.308-39.848-9.923c-9.558-6.615-16.276-15.854-20.159-27.72
			c-3.889-11.862-5.828-25.461-5.828-40.793v-105.84c0-15.538,2.048-29.029,6.143-40.478c4.095-11.443,10.917-20.317,20.476-26.618
			c9.553-6.3,22.625-9.45,39.217-9.45c16.38,0,29.345,3.15,38.902,9.45c9.554,6.3,16.326,15.174,20.318,26.618
			c3.986,11.448,5.984,24.939,5.984,40.478v106.155c0,15.331-1.944,28.822-5.827,40.478c-3.889,11.654-10.553,20.844-20.003,27.563
			C1472.005,760.044,1458.879,763.402,1442.08,763.402z M1442.08,744.186c11.129,0,19.634-2.254,25.516-6.772
			c5.876-4.513,9.922-10.813,12.127-18.899c2.205-8.082,3.308-17.482,3.308-28.192V574.716c0-10.71-1.103-20.052-3.308-28.035
			c-2.205-7.979-6.251-14.121-12.127-18.428c-5.882-4.302-14.387-6.458-25.516-6.458c-11.34,0-20.002,2.156-25.987,6.458
			c-5.985,4.307-10.08,10.449-12.285,18.428c-2.205,7.983-3.308,17.325-3.308,28.035v115.605c0,10.71,1.103,20.11,3.308,28.192
			c2.205,8.087,6.3,14.387,12.285,18.899C1422.078,741.932,1430.74,744.186,1442.08,744.186z"/>
		<path fill="#212121" d="M1585.215,760.251v-255.15h54.81c11.547,0,21.312,1.472,29.295,4.41
			c7.979,2.943,14.382,7.245,19.215,12.915c4.829,5.67,8.348,12.443,10.553,20.318s3.308,16.538,3.308,25.988
			c0,8.189-0.999,16.119-2.992,23.782c-1.998,7.668-5.306,14.175-9.923,19.53c-4.621,5.354-11.133,8.874-19.53,10.552
			c9.869,2.731,17.641,7.402,23.311,14.018s9.607,14.283,11.813,22.995c2.205,8.717,3.308,17.694,3.308,26.933
			c0,10.08-0.896,19.584-2.678,28.508c-1.787,8.928-4.937,16.749-9.45,23.467c-4.519,6.724-10.66,12.024-18.428,15.908
			c-7.771,3.888-17.64,5.827-29.609,5.827H1585.215z M1609.154,615.037h34.65c9.868,0,17.429-1.939,22.68-5.828
			c5.247-3.883,8.924-9.238,11.025-16.064c2.097-6.822,3.149-14.963,3.149-24.412c0-10.287-1.417-18.792-4.252-25.516
			c-2.835-6.718-7.718-11.655-14.647-14.805c-6.93-3.15-16.907-4.725-29.925-4.725h-22.681V615.037z M1609.154,742.296h34.335
			c16.587,0,27.666-4.514,33.232-13.545c5.563-9.026,8.348-23.099,8.348-42.21c0-10.287-1.26-19.422-3.779-27.405
			c-2.521-7.979-6.772-14.224-12.758-18.742c-5.985-4.514-14.126-6.772-24.413-6.772h-34.965V742.296z"/>
		<path fill="#212121" d="M1783.79,760.251v-255.15h23.939v255.15H1783.79z"/>
		<path fill="#212121" d="M1888.555,760.251v-255.15h23.939v237.195h72.45v17.955H1888.555z"/>
		<path fill="#212121" d="M2055.406,760.251v-255.15h23.939v255.15H2055.406z"/>
		<path fill="#212121" d="M2152.926,760.251l53.865-255.15h25.2l54.18,255.15h-23.625l-12.6-68.355h-60.795l-12.915,68.355H2152.926
			z M2192.616,674.572h54.18l-27.09-137.655L2192.616,674.572z"/>
		<path fill="#212121" d="M2359.657,760.251v-255.15h57.645c15.957,0,28.508,2.574,37.643,7.717
			c9.135,5.148,15.696,12.6,19.688,22.365c3.987,9.765,5.985,21.371,5.985,34.808c0,9.45-1.054,18.378-3.15,26.774
			c-2.102,8.402-5.67,15.544-10.71,21.42c-5.04,5.882-12.182,9.766-21.42,11.655l39.061,130.41h-23.311l-37.485-125.37h-40.005
			v125.37H2359.657z M2383.597,617.242h32.445c10.71,0,19.003-1.782,24.885-5.355c5.877-3.568,10.08-8.819,12.601-15.75
			c2.52-6.93,3.779-15.642,3.779-26.145c0-15.75-2.731-27.509-8.189-35.28c-5.464-7.767-16.276-11.655-32.445-11.655h-33.075
			V617.242z"/>
		<path fill="#212121" d="M2560.53,760.251v-255.15h23.939v255.15H2560.53z"/>
		<path fill="#212121" d="M2658.05,760.251l53.865-255.15h25.2l54.18,255.15h-23.625l-12.6-68.355h-60.795l-12.915,68.355H2658.05z
			 M2697.74,674.572h54.18l-27.09-137.655L2697.74,674.572z"/>
	</g>
</g>
</svg>
